<?xml version="1.0" standalone="no"?>
<!DOCTYPE svg PUBLIC "-//W3C//DTD SVG 1.1//EN" "http://www.w3.org/Graphics/SVG/1.1/DTD/svg11.dtd" >
<svg xmlns="http://www.w3.org/2000/svg" xmlns:xlink="http://www.w3.org/1999/xlink" version="1.1">
<metadata>
Created by FontForge 20170731 at Sat Jan 28 23:33:02 2023
 By Aleksey,,,
(c)2018
</metadata>
<defs>
<font id="DurangoKidMedium" horiz-adv-x="972" >
  <font-face 
    font-family="Durango Kid Medium"
    font-weight="500"
    font-stretch="normal"
    units-per-em="2048"
    panose-1="0 0 6 0 0 0 0 0 0 0"
    ascent="1638"
    descent="-410"
    x-height="1036"
    cap-height="1434"
    bbox="-328 -489.261 4389 2073"
    underline-thickness="102"
    underline-position="-307"
    unicode-range="U+0020-FB01"
  />
<missing-glyph horiz-adv-x="407" 
 />
    <glyph glyph-name="fi" unicode="fi" horiz-adv-x="858" 
d="M786 1036v-1036h-180v877h-235v-877h-181v877h-159v159h159v111q0 134 87 216.5t217 82.5q70 0 124.5 -24t86 -60.5t51 -82t25 -87t1.5 -78.5l-176 2q6 81 -26.5 121.5t-90.5 40.5q-51 0 -84.5 -35.5t-33.5 -103.5v-103h415z" />
    <glyph glyph-name="f_f" unicode="ff" horiz-adv-x="1239" 
d="M909 1446q70 0 124.5 -24t86.5 -60.5t51.5 -82t25 -87t1.5 -78.5l-176 2q6 81 -26.5 121.5t-90.5 40.5q-51 0 -85 -35.5t-34 -103.5v-103h201v-159h-201v-877h-180v877h-235v-877h-181v877h-159v159h159v90q0 134 88 216.5t218 82.5q118 0 192 -67q85 88 221 88z
M606 1036v105q-4 59 -34.5 87.5t-79.5 28.5q-51 0 -86 -35.5t-35 -103.5v-82h235z" />
    <glyph glyph-name="f_f_i" unicode="ffi" horiz-adv-x="1273" 
d="M1202 1036v-1036h-180v877h-236v-877h-180v877h-235v-877h-181v877h-159v159h159v90q0 134 88 216.5t218 82.5q118 0 192 -67q85 88 221 88q70 0 124.5 -24t86.5 -60.5t51.5 -82t25 -87t1.5 -78.5l-176 2q6 81 -26.5 121.5t-90.5 40.5q-51 0 -85 -35.5t-34 -103.5v-103
h416zM606 1036v105q-4 59 -34.5 87.5t-79.5 28.5q-51 0 -86 -35.5t-35 -103.5v-82h235z" />
    <glyph glyph-name="f_f_l" unicode="ffl" horiz-adv-x="1296" 
d="M909 1446q70 0 124.5 -21.5t86.5 -55.5t51.5 -79t26 -87.5t4.5 -86.5v-1116h-180v1116q4 83 -26.5 126.5t-90.5 43.5q-53 0 -86 -38.5t-33 -108.5v-103h146v-159h-146v-877h-180v877h-235v-877h-181v877h-159v159h159v90q0 134 88 216.5t218 82.5q118 0 192 -67
q85 88 221 88zM606 1036v105q-4 59 -34.5 87.5t-79.5 28.5q-51 0 -86 -35.5t-35 -103.5v-82h235z" />
    <glyph glyph-name="f_l" unicode="fl" horiz-adv-x="880" 
d="M496 1446q70 0 124 -21.5t85.5 -55.5t51 -79t25.5 -87.5t4 -86.5v-1116h-180v1116q4 83 -26.5 126.5t-90.5 43.5q-53 0 -85.5 -38.5t-32.5 -108.5v-103h145v-159h-145v-877h-181v877h-159v159h159v111q0 134 88 216.5t218 82.5z" />
    <glyph glyph-name=".notdef" horiz-adv-x="407" 
 />
    <glyph glyph-name=".null" horiz-adv-x="0" 
 />
    <glyph glyph-name="nonmarkingreturn" horiz-adv-x="682" 
 />
    <glyph glyph-name="space" unicode=" " horiz-adv-x="407" 
 />
    <glyph glyph-name="exclam" unicode="!" horiz-adv-x="446" 
d="M121 1434h205l-41 -1069h-123zM111 229h225v-229h-225v229z" />
    <glyph glyph-name="quotedbl" unicode="&#x22;" horiz-adv-x="638" 
d="M84 1434h205l-21 -459h-164zM350 1434h205l-20 -459h-164z" />
    <glyph glyph-name="numbersign" unicode="#" horiz-adv-x="1538" 
d="M1483 877h-353l-83 -306h333v-159h-379l-114 -412h-168l115 412h-297l-115 -412h-168l115 412h-316v159h361l84 306h-342v159h385l110 398h168l-110 -398h297l110 398h168l-110 -398h309v-159zM879 571l84 306h-297l-84 -306h297z" />
    <glyph glyph-name="dollar" unicode="$" horiz-adv-x="1253" 
d="M49 543h201q-6 -151 80 -254t225 -127v450l-217 80q-147 54 -209.5 132t-62.5 208q0 160 129.5 277t359.5 135v153h152v-155q255 -26 400 -203t130 -426h-201q5 82 -13 157.5t-56.5 138.5t-105.5 106.5t-154 56.5v-502l114 -43q118 -43 154 -62q135 -72 161 -210
q7 -37 7 -78q0 -143 -116.5 -253.5t-319.5 -131.5v-156h-152v156q-229 22 -370.5 171.5t-135.5 379.5zM266 1049q0 -58 28 -97t93 -63l168 -64v449q-128 -14 -208.5 -74t-80.5 -151zM707 555v-393q105 15 170 71t65 138q0 33 -16.5 60.5t-48 47.5t-55.5 31t-60 25z" />
    <glyph glyph-name="percent" unicode="%" horiz-adv-x="1349" 
d="M328 1446q128 0 207 -100.5t79 -260.5q0 -169 -77 -268.5t-209 -99.5q-134 0 -211.5 99t-77.5 269q0 162 79.5 261.5t209.5 99.5zM1065 1434h197l-977 -1434h-195zM328 842q69 0 107 63t38 180q0 112 -38 174t-107 62q-71 0 -109.5 -61t-38.5 -175q0 -118 38.5 -180.5
t109.5 -62.5zM1024 717q129 0 208 -100.5t79 -260.5q0 -169 -77.5 -268.5t-209.5 -99.5q-134 0 -211.5 99t-77.5 269q0 162 79.5 261.5t209.5 99.5zM1024 113q69 0 107 63t38 180q0 112 -38 174t-107 62q-71 0 -109 -61t-38 -175q0 -118 38 -180.5t109 -62.5z" />
    <glyph glyph-name="ampersand" unicode="&#x26;" horiz-adv-x="1214" 
d="M39 371q0 121 65 209t187 159l65 39l-22 29q-32 40 -49.5 66t-39.5 65.5t-32 81t-10 88.5q0 150 106.5 244t280.5 94q162 0 264 -92.5t102 -227.5q0 -69 -16.5 -123t-51.5 -94.5t-68.5 -66.5t-86.5 -58l-96 -57l293 -375q68 122 59 269h201q15 -248 -137 -424l149 -193
v-4h-239l-58 74q-150 -86 -346 -86q-133 0 -235.5 31.5t-163 86.5t-91 122t-30.5 143zM399 1108q0 -20 3 -38t11.5 -37t14 -31.5t21 -34t21.5 -29.5t26.5 -33t25.5 -31l140 80q98 58 98 172q0 80 -46 128.5t-124 48.5q-79 0 -135 -52.5t-56 -142.5zM240 375q0 -94 87 -161
t232 -67q135 0 238 64l-326 420l-111 -68q-59 -36 -89.5 -79t-30.5 -109z" />
    <glyph glyph-name="quotesingle" unicode="'" horiz-adv-x="372" 
d="M84 1434h205l-21 -459h-164z" />
    <glyph glyph-name="parenleft" unicode="(" horiz-adv-x="593" 
d="M569 -199l-2 -6h-155q-123 186 -199 429.5t-76 533.5q0 246 77.5 473t197.5 391h155l2 -6q-243 -385 -243 -858q0 -530 243 -957z" />
    <glyph glyph-name="parenright" unicode=")" horiz-adv-x="593" 
d="M25 -199q243 427 243 957q0 473 -243 858l2 6h155q120 -164 197.5 -391t77.5 -473q0 -290 -76 -533.5t-199 -429.5h-155z" />
    <glyph glyph-name="asterisk" unicode="*" horiz-adv-x="823" 
d="M66 956l227 119l-227 119l69 121l213 -139l-6 258h139l-6 -258l213 139l70 -121l-228 -119l228 -119l-70 -120l-213 139l6 -258h-139l6 258l-213 -139z" />
    <glyph glyph-name="plus" unicode="+" horiz-adv-x="999" 
d="M72 479v164h338v346h180v-346h338v-164h-338v-346h-180v346h-338z" />
    <glyph glyph-name="comma" unicode="," horiz-adv-x="372" 
d="M74 229h225v-280q0 -24 -0.5 -35.5t-9 -33.5t-25.5 -34q-43 -32 -135 -18v90q72 -15 72 37v45h-127v229z" />
    <glyph glyph-name="hyphen" unicode="-" horiz-adv-x="722" 
d="M70 479v164h583v-164h-583z" />
    <glyph glyph-name="period" unicode="." horiz-adv-x="372" 
d="M74 229h225v-229h-225v229z" />
    <glyph glyph-name="slash" unicode="/" horiz-adv-x="743" 
d="M549 1434h168l-510 -1434h-168z" />
    <glyph glyph-name="zero" unicode="0" horiz-adv-x="1255" 
d="M629 1446q252 0 409.5 -197.5t157.5 -523.5q0 -346 -152.5 -541.5t-414.5 -195.5q-263 0 -416.5 195.5t-153.5 541.5q0 327 158 524t412 197zM629 156q172 0 267 150.5t95 418.5q0 260 -95 406.5t-267 146.5q-174 0 -269.5 -146t-95.5 -407q0 -268 95.5 -418.5
t269.5 -150.5z" />
    <glyph glyph-name="one" unicode="1" horiz-adv-x="759" 
d="M612 1434v-1434h-188v1176q-142 -130 -348 -234v209q196 109 356 283h180z" />
    <glyph glyph-name="two" unicode="2" horiz-adv-x="1255" 
d="M377 207v-31h813v-176h-1004v197q0 192 73.5 291t266.5 165l283 97q176 60 176 243q0 53 -21.5 103t-61.5 91t-106 66t-147 25q-98 0 -178.5 -40t-131.5 -107.5t-75.5 -155.5t-15.5 -184h-187q-13 140 27.5 263t120 208.5t193.5 134.5t245 49q105 0 193.5 -26.5
t149.5 -71t103.5 -103t62.5 -122t20 -128.5q0 -178 -82.5 -277t-272.5 -163l-256 -86q-108 -37 -148 -97.5t-40 -164.5z" />
    <glyph glyph-name="three" unicode="3" horiz-adv-x="1097" 
d="M821 741q40 -15 77.5 -40.5t73 -63.5t56.5 -94.5t21 -122.5q0 -198 -139 -315t-359 -117q-254 0 -397 159.5t-121 413.5h192q-16 -112 20.5 -208t117.5 -153t188 -57q125 0 215 75t90 202q0 98 -66.5 165.5t-173.5 67.5h-114v160h114q105 0 166.5 70t61.5 166
q0 109 -75 177t-198 68q-166 0 -247.5 -99t-69.5 -267h-193q-20 232 118.5 375t391.5 143q130 0 233.5 -44t167.5 -135.5t64 -217.5q0 -112 -63 -192t-152 -116z" />
    <glyph glyph-name="four" unicode="4" horiz-adv-x="1206" 
d="M967 539h204v-172h-204v-367h-193v367h-725v182l643 885h275v-895zM774 1286l-545 -747h545v747z" />
    <glyph glyph-name="five" unicode="5" horiz-adv-x="1161" 
d="M608 1051q100 0 187.5 -29.5t160 -89.5t114.5 -162.5t42 -237.5q0 -102 -36 -198.5t-102 -174t-171 -124.5t-232 -47q-108 0 -200 32.5t-156.5 87.5t-109 126t-63 149.5t-13.5 157.5h188q-4 -68 17 -137.5t63 -129t112.5 -97.5t155.5 -38q164 0 259.5 116t95.5 280
q0 180 -90 274t-248 94q-105 0 -190 -50.5t-116 -133.5l-170 41l50 674h843v-168h-706l-21 -338q131 123 336 123z" />
    <glyph glyph-name="six" unicode="6" horiz-adv-x="1249" 
d="M1200 872h-188q6 174 -93.5 298t-265.5 124q-127 0 -219.5 -73t-137.5 -201t-40 -293q49 93 155.5 154.5t229.5 60.5q207 -3 334 -136.5t127 -334.5q0 -210 -140 -346.5t-356 -136.5q-165 0 -289 94.5t-189 259t-65 375.5q0 330 162 529.5t428 199.5q256 0 404.5 -159
t142.5 -415zM606 791q-137 0 -225 -92t-88 -232q0 -134 91.5 -233t221.5 -99q132 0 218.5 98t86.5 234q0 140 -85.5 232t-219.5 92z" />
    <glyph glyph-name="seven" unicode="7" horiz-adv-x="1110" 
d="M39 1434h1024v-168q0 -189 -44 -301t-169 -203l-328 -240q-70 -52 -109.5 -131t-39.5 -172v-219h-193v242q0 128 56 243t155 187l289 209q115 82 151.5 158t38.5 214h-831v181z" />
    <glyph glyph-name="eight" unicode="8" horiz-adv-x="1107" 
d="M809 741q40 -11 82.5 -39.5t80.5 -70t62.5 -101t24.5 -124.5q0 -130 -68.5 -225t-181 -142.5t-254.5 -50.5q-144 3 -257 50t-181 141.5t-68 223.5q0 66 24.5 125.5t62.5 101.5t80.5 70.5t82.5 40.5q-85 33 -158 118.5t-73 193.5q0 165 133 279t354 114q218 0 350.5 -114
t132.5 -279q0 -108 -72.5 -193.5t-156.5 -118.5zM555 1303q-128 0 -207.5 -79.5t-79.5 -181.5q0 -103 78 -172t209 -69q129 0 206 69t77 172q0 102 -78.5 181.5t-204.5 79.5zM555 135q130 0 214.5 76.5t84.5 187.5q0 106 -86 188.5t-213 82.5q-130 0 -215.5 -82.5
t-85.5 -188.5q0 -111 84.5 -187.5t216.5 -76.5z" />
    <glyph glyph-name="nine" unicode="9" horiz-adv-x="1150" 
d="M547 1446q165 0 289 -94.5t189 -259t65 -375.5q0 -330 -143 -529.5t-378 -199.5q-222 0 -352.5 122.5t-157.5 335.5h193q11 -128 96.5 -217.5t220.5 -89.5q164 0 256.5 156t73.5 401q-46 -90 -154 -147.5t-233 -56.5q-207 3 -334 136.5t-127 334.5q0 210 140 346.5
t356 136.5zM547 643q137 0 225 92t88 232q0 134 -91.5 232.5t-221.5 98.5q-132 0 -218.5 -98t-86.5 -233q0 -140 85.5 -232t219.5 -92z" />
    <glyph glyph-name="colon" unicode=":" horiz-adv-x="385" 
d="M80 877h225v-230h-225v230zM80 229h225v-229h-225v229z" />
    <glyph glyph-name="semicolon" unicode=";" horiz-adv-x="385" 
d="M80 877h225v-230h-225v230zM80 229h225v-280q0 -24 -0.5 -35.5t-9 -33.5t-25.5 -34q-43 -32 -135 -18v90q72 -15 72 37v45h-127v229z" />
    <glyph glyph-name="less" unicode="&#x3c;" horiz-adv-x="1060" 
d="M969 758l-725 -201l725 -201v-204l-877 282v246l877 283v-205z" />
    <glyph glyph-name="equal" unicode="=" horiz-adv-x="1056" 
d="M115 797h856v-164h-856v164zM115 449h856v-164h-856v164z" />
    <glyph glyph-name="greater" unicode="&#x3e;" horiz-adv-x="1060" 
d="M92 758v205l877 -283v-246l-877 -282v204l725 201z" />
    <glyph glyph-name="question" unicode="?" horiz-adv-x="1071" 
d="M541 1446q221 0 351 -115t130 -309q0 -132 -64.5 -218t-201.5 -145l-211 -92q-61 -26 -76.5 -56t-15.5 -99v-50h-152v91q0 83 15.5 128t51 74t113.5 64l205 92q89 39 128.5 89.5t39.5 121.5q0 35 -11 70t-35.5 69t-60 59.5t-89 41.5t-117.5 16q-171 0 -263.5 -99.5
t-64.5 -287.5h-168q-19 130 10.5 235.5t97 175t167 107t221.5 37.5zM264 229h225v-229h-225v229z" />
    <glyph glyph-name="at" unicode="@" horiz-adv-x="1538" 
d="M782 1262q324 0 511.5 -194t187.5 -529q0 -189 -88.5 -304.5t-223.5 -115.5q-77 0 -135.5 47t-75.5 104q-27 -61 -97.5 -105t-145.5 -44q-149 0 -244 121.5t-82 296.5q13 169 110.5 274t231.5 105q64 0 120.5 -31.5t82.5 -81.5l2 94h151l-18 -483q-3 -76 22.5 -119
t77.5 -43q70 0 109 75.5t39 223.5q0 267 -140.5 420t-394.5 153q-153 0 -280 -77t-201 -217.5t-74 -315.5q0 -135 43 -247t119 -187t180.5 -116.5t225.5 -41.5q72 0 146.5 21.5t125.5 56.5l57 -117q-66 -48 -155.5 -71t-173.5 -25q-205 -4 -372.5 87t-263.5 257.5t-96 374.5
q0 160 55.5 300.5t151.5 240t229 156.5t283 57zM915 530q5 108 -39.5 172t-127.5 64q-81 0 -134 -66.5t-61 -167.5q-8 -104 41 -180t133 -76q87 0 135 71t53 183z" />
    <glyph glyph-name="A" unicode="A" horiz-adv-x="1388" 
d="M1178 0l-177 451h-620l-176 -451h-197l553 1434h262l551 -1434h-196zM449 618h487l-244 660z" />
    <glyph glyph-name="B" unicode="B" horiz-adv-x="1296" 
d="M983 748q46 -9 88.5 -34.5t79 -66t58.5 -102t22 -135.5q0 -192 -111 -301t-289 -109h-716v1434h694q179 0 284 -95.5t105 -279.5q0 -116 -64.5 -201t-150.5 -110zM303 1262v-443h485q90 0 151.5 67t61.5 154q0 90 -60.5 156t-152.5 66h-485zM811 172q97 0 160 66.5
t63 171.5q0 107 -63 174t-160 67h-508v-479h508z" />
    <glyph glyph-name="C" unicode="C" horiz-adv-x="1409" 
d="M1167 592h197q-5 -166 -93 -305t-233.5 -219t-314.5 -80q-141 0 -265.5 54.5t-214 150t-141 231.5t-51.5 293t51.5 293t140 231.5t212.5 150t264 54.5q174 0 318.5 -78.5t229.5 -218.5t87 -313h-197q-5 191 -129.5 316.5t-308.5 125.5q-97 0 -183.5 -43.5t-147.5 -118
t-96.5 -178.5t-35.5 -221q0 -157 60.5 -285.5t167.5 -202t239 -73.5q176 0 303 126.5t141 309.5z" />
    <glyph glyph-name="D" unicode="D" horiz-adv-x="1304" 
d="M1251 725q0 -355 -171.5 -540t-487.5 -185h-477v1434h477q312 0 485.5 -183t173.5 -526zM592 172q230 0 350.5 141t120.5 412q0 261 -121 399t-350 138h-285v-1090h285z" />
    <glyph glyph-name="E" unicode="E" horiz-adv-x="1251" 
d="M1176 1245h-869v-442h725v-172h-725v-443h869v-188h-1061v1434h1061v-189z" />
    <glyph glyph-name="F" unicode="F" horiz-adv-x="1234" 
d="M1176 1245h-869v-442h725v-172h-725v-631h-192v1434h1061v-189z" />
    <glyph glyph-name="G" unicode="G" horiz-adv-x="1478" 
d="M651 770h733v-770h-135l-22 266q-55 -103 -195.5 -190.5t-312.5 -87.5q-140 0 -264 54.5t-212.5 150t-140 231.5t-51.5 293q0 156 52.5 292t142.5 231.5t214.5 150.5t264.5 55q125 0 238 -43t196 -116.5t136 -174.5t63 -213h-199q-18 161 -138.5 270t-295.5 109
q-131 0 -238.5 -74t-169 -203t-61.5 -284q0 -156 60 -284.5t166 -202.5t237 -74q196 0 334.5 125.5t158.5 316.5h-561v172z" />
    <glyph glyph-name="H" unicode="H" horiz-adv-x="1353" 
d="M1042 1434h193v-1434h-193v631h-733v-631h-192v1434h192v-631h733v631z" />
    <glyph glyph-name="I" unicode="I" horiz-adv-x="421" 
d="M305 0h-188v1434h188v-1434z" />
    <glyph glyph-name="J" unicode="J" horiz-adv-x="548" 
d="M264 1434h189v-1133q0 -121 -20 -179t-93 -104q-104 -66 -305 -22v186q229 -59 229 117v1135z" />
    <glyph glyph-name="K" unicode="K" horiz-adv-x="1280" 
d="M1276 1434l-801 -711l801 -723h-320l-653 586v-586h-192v1434h192v-613l690 613h283z" />
    <glyph glyph-name="L" unicode="L" horiz-adv-x="1058" 
d="M311 188h697v-188h-893v1434h196v-1246z" />
    <glyph glyph-name="M" unicode="M" horiz-adv-x="1615" 
d="M1503 1434v-1434h-192v1212l-373 -1212h-262l-371 1210v-1210h-192v1434h309l385 -1284l387 1284h309z" />
    <glyph glyph-name="N" unicode="N" horiz-adv-x="1339" 
d="M1034 1434h193v-1434h-295l-627 1262v-1262h-192v1434h299l622 -1244v1244z" />
    <glyph glyph-name="O" unicode="O" horiz-adv-x="1435" 
d="M719 1446q140 0 263.5 -54.5t211.5 -150t139 -231.5t51 -293t-51 -293t-139 -231.5t-211.5 -150t-263.5 -54.5q-141 0 -264.5 54.5t-212.5 150t-140 231.5t-51 293t51 293t140 231.5t212.5 150t264.5 54.5zM719 156q98 0 184 43.5t146.5 118.5t95.5 178.5t35 220.5
t-35 220.5t-95.5 178.5t-146.5 118.5t-184 43.5q-131 0 -237 -74t-166 -202.5t-60 -284.5t60 -284.5t166 -202.5t237 -74z" />
    <glyph glyph-name="P" unicode="P" horiz-adv-x="1269" 
d="M831 1434q174 0 287 -103t113 -299q0 -198 -114 -308t-286 -110h-528v-614h-188v1434h716zM793 780q98 0 169.5 66.5t71.5 181.5q0 114 -70.5 174t-170.5 60h-490v-482h490z" />
    <glyph glyph-name="Q" unicode="Q" horiz-adv-x="1435" 
d="M51 717q0 157 51 293t140 231.5t212.5 150t264.5 54.5q140 0 263.5 -54.5t211.5 -150t139 -231.5t51 -293q0 -166 -56 -307.5t-157 -239.5l172 -174l-120 -119l-191 191q-144 -80 -313 -80q-141 0 -264.5 54.5t-212.5 150t-140 231.5t-51 293zM256 717q0 -156 60 -284.5
t166 -202.5t237 -74q100 0 182 43l-186 186l121 121l200 -203q68 78 106 184.5t38 229.5q0 117 -35 220.5t-95.5 178.5t-146.5 118.5t-184 43.5q-131 0 -237 -74t-166 -202.5t-60 -284.5z" />
    <glyph glyph-name="R" unicode="R" horiz-adv-x="1271" 
d="M946 713q64 -19 102.5 -52.5t61.5 -103.5t27 -184q6 -176 16.5 -261.5t32.5 -111.5h-219q-6 10 -9.5 27.5t-6 53t-4 62t-3.5 91.5t-4 104q-4 91 -27 151.5t-63.5 90t-83 40.5t-100.5 11h-355v-631h-196v1434h678q199 0 304 -97t105 -288q0 -131 -72 -217t-184 -119z
M782 795q107 0 165.5 65t58.5 170q0 113 -63.5 172.5t-180.5 59.5h-451v-467h471z" />
    <glyph glyph-name="S" unicode="S" horiz-adv-x="1300" 
d="M397 889l424 -162q13 -5 46.5 -17.5t50 -19t47.5 -20.5t47.5 -26.5t40.5 -31.5t37.5 -41t27 -49.5t19.5 -62.5t6 -76q0 -75 -34.5 -145t-97.5 -126t-163 -90t-221 -34q-168 0 -300.5 67.5t-207 195t-70.5 292.5h197q-4 -114 48.5 -204t141 -136.5t195.5 -46.5
q133 0 222 60t89 155q0 33 -16.5 60.5t-48 47.5t-55.5 31t-60 25l-424 157q-144 54 -208 130t-64 204q0 179 148.5 299.5t412.5 120.5q145 0 264.5 -50t197.5 -135.5t117.5 -201t30.5 -246.5h-193q5 90 -19.5 173t-75 148.5t-134 104.5t-188.5 39q-156 0 -258.5 -64.5
t-102.5 -175.5q0 -52 31.5 -87t99.5 -62z" />
    <glyph glyph-name="T" unicode="T" horiz-adv-x="1212" 
d="M1176 1434v-181h-471v-1253h-197v1253h-471v181h1139z" />
    <glyph glyph-name="U" unicode="U" horiz-adv-x="1318" 
d="M1024 1434h197v-940q0 -157 -76 -273.5t-202.5 -174.5t-283.5 -58t-283 58t-202 174.5t-76 273.5v940h197v-940q0 -159 103 -248.5t261 -89.5t261.5 89.5t103.5 248.5v940z" />
    <glyph glyph-name="V" unicode="V" horiz-adv-x="1382" 
d="M1159 1434h217l-551 -1434h-268l-551 1434h219l467 -1276z" />
    <glyph glyph-name="W" unicode="W" horiz-adv-x="1921" 
d="M1694 1434h215l-348 -1434h-295l-305 1249l-308 -1249h-293l-348 1434h215l285 -1264l315 1264h265l315 -1264z" />
    <glyph glyph-name="X" unicode="X" horiz-adv-x="1288" 
d="M18 0l508 745l-467 689h244l342 -516l340 516h244l-467 -689l508 -745h-246l-379 573l-381 -573h-246z" />
    <glyph glyph-name="Y" unicode="Y" horiz-adv-x="1253" 
d="M997 1434h246l-518 -842v-592h-197v592l-518 842h246l371 -646z" />
    <glyph glyph-name="Z" unicode="Z" horiz-adv-x="1337" 
d="M1276 1434v-199l-967 -1055h971v-180h-1223l-4 199l973 1054h-973v181h1223z" />
    <glyph glyph-name="bracketleft" unicode="[" horiz-adv-x="514" 
d="M303 1462v-1507h143v-160h-315v1827h315v-160h-143z" />
    <glyph glyph-name="backslash" unicode="\" horiz-adv-x="743" 
d="M205 1434l510 -1434h-168l-510 1434h168z" />
    <glyph glyph-name="bracketright" unicode="]" horiz-adv-x="514" 
d="M211 1475h-143v167h315v-1867h-315v168h143v1532z" />
    <glyph glyph-name="asciicircum" unicode="^" horiz-adv-x="790" 
d="M229 971h-213l277 475h205l276 -475h-213l-166 342z" />
    <glyph glyph-name="underscore" unicode="_" horiz-adv-x="845" 
d="M850 164v-164h-856v164h856z" />
    <glyph glyph-name="grave" unicode="`" horiz-adv-x="1069" 
d="M338 1675l354 -395l-106 -88l-377 356z" />
    <glyph glyph-name="a" unicode="a" horiz-adv-x="985" 
d="M41 629q-7 193 118.5 306.5t346.5 113.5q125 0 222 -42t149 -120q53 -82 53 -211q-2 -135 -2 -438q0 -182 8 -234h-180q-6 44 -6 119q-58 -59 -142 -97t-176 -38q-162 0 -254 87.5t-92 237.5q0 53 16 96.5t44 74.5t71.5 56t91 41.5t110.5 30.5t122.5 24t134.5 21
q49 7 74 11q0 213 -244 213q-136 0 -207 -65t-66 -187h-192zM270 307q0 -74 51 -114.5t130 -40.5q140 0 225.5 93.5t75.5 260.5q-48 -9 -114 -19t-105.5 -16t-87.5 -16t-75 -21.5t-52.5 -28.5t-36.5 -41.5t-11 -56.5z" />
    <glyph glyph-name="b" unicode="b" horiz-adv-x="1073" 
d="M592 1049q197 0 319.5 -150t122.5 -381t-122.5 -380.5t-319.5 -149.5q-112 0 -194 52t-126 126v-166h-180v1434h180v-562q41 69 126.5 123t193.5 54zM559 164q124 0 201.5 99.5t77.5 256.5q0 155 -77.5 253.5t-201.5 98.5q-131 0 -212 -98.5t-81 -253.5q0 -157 82 -256.5
t211 -99.5z" />
    <glyph glyph-name="c" unicode="c" horiz-adv-x="1015" 
d="M797 426h188q-1 -114 -63 -215t-169.5 -162t-232.5 -61q-132 0 -242.5 69t-174.5 191t-64 270q0 229 137 380t344 151q188 0 325 -133.5t136 -317.5h-188q0 117 -78.5 200t-194.5 83q-130 0 -211.5 -104t-81.5 -259q0 -151 84 -256.5t209 -105.5q115 0 193.5 81t83.5 189
z" />
    <glyph glyph-name="d" unicode="d" horiz-adv-x="1073" 
d="M801 1434h180v-1434h-180v166q-44 -74 -126 -126t-194 -52q-197 0 -319.5 149.5t-122.5 380.5t124 381t322 150q110 0 193.5 -53.5t122.5 -123.5v562zM514 164q129 0 211 99.5t82 256.5q0 155 -81 253.5t-212 98.5q-124 0 -201 -98.5t-77 -253.5q0 -157 77 -256.5
t201 -99.5z" />
    <glyph glyph-name="e" unicode="e" horiz-adv-x="1021" 
d="M979 471h-750q12 -135 94 -225t197 -90q96 0 166.5 58.5t97.5 154.5h197q-31 -164 -161.5 -272.5t-299.5 -108.5q-132 0 -242.5 69t-174.5 191t-64 270q0 229 137 380t344 151q151 0 262 -76t161.5 -207.5t35.5 -294.5zM520 885q-107 0 -180.5 -71.5t-99.5 -186.5h551
q-9 108 -85 183t-186 75z" />
    <glyph glyph-name="f" unicode="f" horiz-adv-x="823" 
d="M494 1446q70 0 124.5 -24t86 -60.5t51 -82t25 -87t1.5 -78.5l-176 2q6 81 -26.5 121.5t-90.5 40.5q-51 0 -84.5 -35.5t-33.5 -103.5v-103h200v-159h-200v-877h-181v877h-159v159h159v111q0 134 87 216.5t217 82.5z" />
    <glyph glyph-name="g" unicode="g" horiz-adv-x="1089" 
d="M55 518q0 231 123 381t320 150q112 0 193.5 -52t125.5 -127v166h180v-1020q0 -109 -37 -193.5t-102 -136t-147.5 -78t-178.5 -26.5q-106 0 -194 30.5t-142 80t-82.5 108.5t-25.5 119h193q-2 -56 63.5 -113t187.5 -57q57 0 106.5 15.5t90 47t64.5 86t24 126.5v139
q-38 -67 -120.5 -115.5t-194.5 -48.5q-199 0 -323 144.5t-124 373.5zM252 516q0 -153 76.5 -246.5t201.5 -93.5q132 0 212.5 93t80.5 247q0 157 -82 256.5t-211 99.5q-124 0 -201 -99.5t-77 -256.5z" />
    <glyph glyph-name="h" unicode="h" 
d="M92 0v1434h180v-547q36 67 102 114.5t158 47.5q170 0 264.5 -93t94.5 -290v-666h-189v645q0 97 -56 153t-150 56q-97 0 -160.5 -58.5t-63.5 -160.5v-635h-180z" />
    <glyph glyph-name="i" unicode="i" horiz-adv-x="368" 
d="M72 1434h225v-230h-225v230zM94 0v1036h180v-1036h-180z" />
    <glyph glyph-name="j" unicode="j" horiz-adv-x="368" 
d="M72 1434h225v-230h-225v230zM94 1036h180v-1116q0 -118 -20.5 -175t-91.5 -107q-98 -68 -305 -23v182q118 -30 177.5 1.5t59.5 119.5v1118z" />
    <glyph glyph-name="k" unicode="k" horiz-adv-x="929" 
d="M932 0h-256l-406 451v-451h-180v1434h180v-787l344 389h254l-440 -487z" />
    <glyph glyph-name="l" unicode="l" horiz-adv-x="368" 
d="M274 0h-180v1434h180v-1434z" />
    <glyph glyph-name="m" unicode="m" horiz-adv-x="1591" 
d="M92 0v1036h180v-149q39 65 113.5 113.5t167.5 48.5q114 0 193 -57.5t116 -162.5q39 95 124 157.5t185 62.5q163 0 250.5 -102.5t87.5 -291.5v-655h-188v655q0 96 -55.5 147.5t-151.5 51.5q-97 0 -160 -58t-63 -161v-635h-186l-3 635q0 111 -54.5 165t-151.5 54
t-160.5 -58.5t-63.5 -160.5v-635h-180z" />
    <glyph glyph-name="n" unicode="n" 
d="M532 1049q170 0 264.5 -93t94.5 -290v-666h-189v645q0 97 -56 153t-150 56q-97 0 -160.5 -58.5t-63.5 -160.5v-635h-180v1036h180v-149q36 67 102 114.5t158 47.5z" />
    <glyph glyph-name="o" unicode="o" horiz-adv-x="1044" 
d="M522 1049q134 0 244.5 -69t174 -191t63.5 -271q0 -225 -139.5 -377.5t-342.5 -152.5t-342 152.5t-139 377.5q0 227 138.5 379t342.5 152zM522 152q130 0 211.5 105.5t81.5 260.5q0 157 -81.5 262t-211.5 105t-211.5 -105t-81.5 -262q0 -155 81.5 -260.5t211.5 -105.5z
" />
    <glyph glyph-name="p" unicode="p" horiz-adv-x="1073" 
d="M592 1049q197 0 319.5 -150t122.5 -381t-122.5 -380.5t-319.5 -149.5q-110 0 -195.5 53.5t-124.5 122.5v-561h-180v1433h180v-166q44 74 126 126.5t194 52.5zM559 164q124 0 201.5 98.5t77.5 253.5q0 157 -77.5 256.5t-201.5 99.5q-129 0 -211 -99.5t-82 -256.5
q0 -155 81 -253.5t212 -98.5z" />
    <glyph glyph-name="q" unicode="q" horiz-adv-x="1089" 
d="M817 1036h180v-1433h-180v561q-39 -70 -122 -123t-193 -53q-198 0 -322.5 149.5t-124.5 380.5t123 381t320 150q112 0 193.5 -52t125.5 -127v166zM530 164q131 0 212 98.5t81 253.5q0 157 -82 256.5t-211 99.5q-124 0 -201 -99.5t-77 -256.5q0 -155 77 -253.5t201 -98.5z
" />
    <glyph glyph-name="r" unicode="r" horiz-adv-x="671" 
d="M551 1049q37 0 90 -11v-223q-63 39 -147 39q-94 0 -159 -64t-65 -155v-635h-180v1036h180v-149q39 65 113.5 113.5t167.5 48.5z" />
    <glyph glyph-name="s" unicode="s" horiz-adv-x="983" 
d="M322 664l296 -115q7 -3 37.5 -14t42.5 -15.5t39 -18t39.5 -24.5t32 -31t28.5 -41.5t16 -51.5t7 -66q0 -128 -109 -213.5t-276 -85.5q-196 0 -316 115t-108 292h191q-12 -101 57.5 -172t179.5 -71q81 0 134 34.5t53 87.5q0 34 -29.5 56t-77.5 39l-293 110
q-110 42 -158.5 100t-48.5 154q0 136 117 226t299 90q216 0 352.5 -128t118.5 -329h-192q12 133 -67 213t-212 80q-96 0 -159.5 -39t-63.5 -98q0 -58 70 -84z" />
    <glyph glyph-name="t" unicode="t" horiz-adv-x="634" 
d="M29 877v159h159v275h181v-275h217v-159h-217v-580q0 -84 48 -117t169 -8v-184q-184 -40 -291 20q-63 35 -85 101t-22 184v584h-159z" />
    <glyph glyph-name="u" unicode="u" 
d="M700 1036h181v-1036h-181v150q-36 -67 -102 -114.5t-158 -47.5q-170 0 -264 93t-94 290v665h188v-645q0 -97 56 -153t151 -56q97 0 160 58t63 161v635z" />
    <glyph glyph-name="v" unicode="v" horiz-adv-x="954" 
d="M735 1036h215l-352 -1036h-244l-350 1036h215l258 -843z" />
    <glyph glyph-name="w" unicode="w" horiz-adv-x="1611" 
d="M4 1036h213l234 -864l254 864h202l254 -864l234 864h213l-326 -1036h-227l-250 852l-250 -852h-227z" />
    <glyph glyph-name="x" unicode="x" horiz-adv-x="964" 
d="M16 0l363 549l-322 487h211l215 -336l213 336h213l-321 -487l360 -549h-213l-252 393l-252 -393h-215z" />
    <glyph glyph-name="y" unicode="y" horiz-adv-x="993" 
d="M4 1036h213l281 -843l278 843h213l-399 -1116q-5 -14 -17.5 -49.5t-18 -49t-17 -41t-21 -42t-23.5 -34.5t-31 -35.5t-38 -30.5q-49 -34 -115 -40t-157 9v180q50 -12 86.5 -12.5t61.5 7t44 28t31 45t26 63.5l2 4z" />
    <glyph glyph-name="z" unicode="z" horiz-adv-x="997" 
d="M952 1036v-174l-641 -682h631v-180h-887l-2 174l641 682h-631v180h889z" />
    <glyph glyph-name="braceleft" unicode="{" horiz-adv-x="561" 
d="M326 858q0 -54 -30.5 -92t-78.5 -57q48 -19 78.5 -57.5t30.5 -92.5v-469q0 -63 33.5 -99t93.5 -36h43v-160h-45q-133 0 -215 77.5t-82 213.5v430q0 37 -21.5 58.5t-56.5 21.5h-25v225h25q35 0 56.5 21.5t21.5 58.5v430q0 136 82 213.5t215 77.5h45v-160h-43
q-60 0 -93.5 -36t-33.5 -99v-469z" />
    <glyph glyph-name="bar" unicode="|" horiz-adv-x="432" 
d="M303 -139h-172v1679h172v-1679z" />
    <glyph glyph-name="braceright" unicode="}" horiz-adv-x="561" 
d="M485 821h25v-225h-25q-35 0 -56 -21.5t-21 -58.5v-430q0 -136 -82 -213.5t-215 -77.5h-45v160h43q60 0 93.5 36t33.5 99v469q0 54 30 92.5t78 57.5q-48 19 -78 57t-30 92v469q0 63 -33.5 99t-93.5 36h-43v160h45q133 0 215 -77.5t82 -213.5v-430q0 -37 21 -58.5t56 -21.5
z" />
    <glyph glyph-name="asciitilde" unicode="~" horiz-adv-x="780" 
d="M76 721q-19 84 -3.5 145.5t60.5 96.5q44 33 98.5 35.5t108.5 -25.5l184 -94q12 -6 29 -5.5t27 7.5q30 23 6 94h147q19 -84 3.5 -145.5t-60.5 -96.5q-44 -33 -98.5 -35.5t-108.5 25.5l-184 94q-13 7 -29.5 7t-26.5 -9q-30 -23 -6 -94h-147z" />
    <glyph glyph-name="exclamdown" unicode="&#xa1;" horiz-adv-x="446" 
d="M111 807v229h225v-229h-225zM121 -397l41 1069h123l41 -1069h-205z" />
    <glyph glyph-name="cent" unicode="&#xa2;" horiz-adv-x="1009" 
d="M985 426q-2 -159 -115 -283t-280 -149v-148h-139v148q-178 26 -295 173t-117 351q0 208 115.5 354t296.5 172v146h139v-148q166 -25 279 -151.5t112 -292.5h-188q0 97 -57 173t-146 101v-708q89 24 145.5 98t61.5 164h188zM227 518q0 -127 63 -225.5t161 -126.5v706
q-102 -28 -163 -125.5t-61 -228.5z" />
    <glyph glyph-name="sterling" unicode="&#xa3;" horiz-adv-x="937" 
d="M55 0v205h29q49 0 78 28t37 72l49 264h-152v160h185l84 406q63 299 299 299h129v-160h-111q-48 0 -82.5 -33.5t-46.5 -95.5l-84 -416h199v-160h-232l-49 -241q-16 -82 -39.5 -117t-77.5 -45v-2h641v-164h-856z" />
    <glyph glyph-name="currency" unicode="&#xa4;" horiz-adv-x="1134" 
d="M1071 526q0 -165 -88 -303l123 -123l-113 -112l-119 118q-132 -110 -305 -110q-175 0 -307 113l-121 -121l-112 112l127 127q-88 134 -88 299t86 301l-125 125l112 113l119 -119q136 111 309 111q170 0 308 -109l116 117l113 -113l-123 -123q88 -134 88 -303zM240 526
q0 -161 91 -263.5t238 -102.5t238.5 102.5t91.5 263.5q0 162 -91.5 264.5t-238.5 102.5t-238 -102.5t-91 -264.5z" />
    <glyph glyph-name="yen" unicode="&#xa5;" horiz-adv-x="1255" 
d="M8 1434h246l371 -646l370 646h246l-436 -705h248v-164h-330v-123h330v-163h-330v-279h-197v279h-329v163h329v123h-329v164h245z" />
    <glyph glyph-name="brokenbar" unicode="&#xa6;" horiz-adv-x="432" 
d="M303 872h-172v668h172v-668zM303 -139h-172v667h172v-667z" />
    <glyph glyph-name="section" unicode="&#xa7;" horiz-adv-x="1198" 
d="M66 221h186q4 -139 91 -220t218 -81q112 0 190 50t78 126q0 29 -11 51.5t-35.5 39t-44.5 26t-56 23.5l-365 139q-132 49 -185.5 117.5t-53.5 185.5q0 112 80 201q-80 80 -80 213q0 102 65.5 183t180.5 126t258 45q168 0 295.5 -66t193.5 -183.5t59 -266.5h-194
q6 163 -89.5 262.5t-264.5 99.5q-133 0 -223.5 -54.5t-90.5 -139.5q0 -47 24.5 -78t78.5 -51l368 -142q9 -3 27 -10q34 -12 51.5 -19t49.5 -22t49.5 -29t40.5 -37.5t35 -49.5t21 -62.5t9 -79.5q0 -51 -24 -107.5t-62 -97.5q86 -71 86 -209q0 -145 -133.5 -241t-331.5 -96
q-225 0 -360.5 126t-130.5 328zM268 684q0 -89 103 -129l407 -158q51 42 51 113q0 45 -33.5 76.5t-113.5 62.5l-371 144q-43 -54 -43 -109z" />
    <glyph glyph-name="dieresis" unicode="&#xa8;" horiz-adv-x="866" 
d="M152 1434h225v-230h-225v230zM489 1434h226v-230h-226v230z" />
    <glyph glyph-name="copyright" unicode="&#xa9;" horiz-adv-x="1622" 
d="M811 1446q151 0 286 -56.5t232 -153.5t154 -232.5t57 -286.5t-57 -286.5t-154 -232.5t-232 -153.5t-286 -56.5t-286 56.5t-232 153.5t-154 232.5t-57 286.5t57 286.5t154 232.5t232 153.5t286 56.5zM811 66q121 0 239 53t207.5 140.5t145 208.5t55.5 249t-55.5 249
t-145 208.5t-207.5 140.5t-239 53q-120 0 -238 -53.5t-208 -141t-145.5 -208.5t-55.5 -248t55.5 -248t145.5 -208.5t208 -141t238 -53.5zM1026 659h117q1 -145 -95.5 -248.5t-230.5 -103.5q-146 0 -243 116.5t-97 293.5t96 293t242 116q138 0 232.5 -102.5t91.5 -251.5h-119
q2 102 -57 171t-148 69q-93 0 -155 -84t-62 -211t62.5 -211t156.5 -84q83 0 144 68.5t65 168.5z" />
    <glyph glyph-name="ordfeminine" unicode="&#xaa;" horiz-adv-x="763" 
d="M61 1149q-6 137 81.5 217t242.5 80q92 0 160 -29.5t100 -83.5q42 -70 37 -147q-2 -35 -2 -232v-69q0 -123 6 -166h-133q-4 36 -4 76q-39 -38 -95.5 -62t-117.5 -24q-112 0 -177 61t-65 166q0 44 13 77.5t47 58t61 40t89 29.5t94.5 19.5t111.5 17.5l39 6q-3 139 -164 139
q-92 0 -139 -44.5t-43 -129.5h-142zM227 932q0 -47 33.5 -75t87.5 -28q97 0 153 64t50 172q-79 -14 -98 -16q-48 -6 -77 -11t-61 -14t-49 -20.5t-28 -29.5t-11 -42z" />
    <glyph glyph-name="guillemotleft" unicode="&#xab;" horiz-adv-x="1056" 
d="M508 344v-242l-397 349v221l397 348v-242l-285 -217zM936 344v-242l-397 349v221l397 348v-242l-285 -217z" />
    <glyph glyph-name="logicalnot" unicode="&#xac;" horiz-adv-x="1077" 
d="M965 121h-189v354h-704v172h893v-526z" />
    <glyph glyph-name="registered" unicode="&#xae;" horiz-adv-x="1564" 
d="M53 717q0 151 57 286.5t154 232.5t232 153.5t286 56.5t286 -56.5t232 -153.5t154 -232.5t57 -286.5t-57 -286.5t-154 -232.5t-232 -153.5t-286 -56.5t-286 56.5t-232 153.5t-154 232.5t-57 286.5zM135 717q0 -127 55.5 -248t145.5 -208.5t208 -141t238 -53.5
q121 0 239.5 53t208 140.5t145 208.5t55.5 249t-55.5 249t-145 208.5t-208 140.5t-239.5 53q-120 0 -238 -53.5t-208 -141t-145.5 -208.5t-55.5 -248zM520 307v819h348q104 0 159.5 -58t55.5 -167q0 -130 -108 -186q37 -19 55 -62t21 -127q3 -100 9 -145t21 -74h-131
q-7 13 -10 39t-6 109q0 8 -1 25.5t-1 25.5q-3 82 -32.5 116.5t-94.5 34.5h-166v-350h-119zM639 772h225q47 0 74 31.5t27 87.5q0 119 -111 119h-215v-238z" />
    <glyph glyph-name="macron" unicode="&#xaf;" horiz-adv-x="1142" 
d="M932 1358v-160h-701v160h701z" />
    <glyph glyph-name="degree" unicode="&#xb0;" horiz-adv-x="708" 
d="M354 1446q130 0 216.5 -87t86.5 -216q0 -128 -87 -215.5t-216 -87.5t-216 87.5t-87 215.5q0 129 86.5 216t216.5 87zM354 983q64 0 109 47t45 113t-45 113t-109 47t-108.5 -47t-44.5 -113t44.5 -113t108.5 -47z" />
    <glyph glyph-name="plusminus" unicode="&#xb1;" horiz-adv-x="999" 
d="M72 592v164h338v182h180v-182h338v-164h-338v-182h-180v182h-338zM72 346h856v-164h-856v164z" />
    <glyph glyph-name="uni00B2" unicode="&#xb2;" horiz-adv-x="694" 
d="M231 801h404v-109h-518v109q0 100 38 150.5t136 84.5l139 47q82 30 82 111q0 57 -43.5 94t-112.5 37q-92 0 -146 -70.5t-40 -171.5h-115q-17 146 70 246.5t229 100.5q130 0 201.5 -71.5t71.5 -162.5q0 -90 -41.5 -142t-141.5 -87l-127 -41q-49 -17 -67.5 -44t-18.5 -81z
" />
    <glyph glyph-name="uni00B3" unicode="&#xb3;" horiz-adv-x="604" 
d="M463 1077q45 -23 70.5 -64.5t25.5 -92.5q0 -100 -70.5 -162t-183.5 -62q-130 0 -204 84.5t-60 218.5h117q-17 -87 26 -146.5t121 -59.5q61 0 100 35.5t39 91.5q0 44 -30 74t-76 30h-68v98h68q42 0 71 31t29 76q0 50 -34 80t-89 30q-78 0 -116 -46.5t-29 -133.5h-117
q-12 123 60.5 199t201.5 76q106 0 172 -56.5t66 -148.5q0 -48 -24 -88.5t-66 -63.5z" />
    <glyph glyph-name="acute" unicode="&#xb4;" horiz-adv-x="1069" 
d="M729 1675l129 -127l-377 -356l-106 88z" />
    <glyph glyph-name="uni00B5" unicode="&#xb5;" 
d="M82 -246v1282h188v-635q0 -98 56.5 -158.5t150.5 -60.5q93 0 158 64t65 155v635h181v-1036h-181v150q-39 -65 -113 -113.5t-167 -48.5q-42 0 -87 15t-67 36v-285h-184z" />
    <glyph glyph-name="paragraph" unicode="&#xb6;" horiz-adv-x="1118" 
d="M55 1139q0 92 31 169t84 127t121 77.5t143 27.5h572v-1540h-164v1397h-123v-1397h-164v721h-121q-75 0 -143.5 30t-121 83.5t-83.5 132.5t-31 172z" />
    <glyph glyph-name="periodcentered" unicode="&#xb7;" horiz-adv-x="372" 
d="M74 633h225v-230h-225v230z" />
    <glyph glyph-name="cedilla" unicode="&#xb8;" horiz-adv-x="903" 
d="M246 -219q43 -80 129 -80q36 0 65 21t29 59q0 54 -47 72q-20 8 -48.5 6.5t-49.5 -13.5l-31 29l43 125h88l-25 -66q78 9 131.5 -35t53.5 -128q0 -80 -58 -132.5t-141 -52.5q-43 0 -84 19t-61 49v125z" />
    <glyph glyph-name="uni00B9" unicode="&#xb9;" horiz-adv-x="436" 
d="M334 1434v-738h-115v576q-74 -60 -174 -111v127q90 48 184 146h105z" />
    <glyph glyph-name="ordmasculine" unicode="&#xba;" horiz-adv-x="776" 
d="M389 1446q146 0 242 -105t96 -264q0 -158 -96 -263t-242 -105q-148 0 -244 104t-96 264t96 264.5t244 104.5zM389 825q87 0 145 72t58 180t-58 180t-145 72q-88 0 -146.5 -71.5t-58.5 -180.5t58.5 -180.5t146.5 -71.5z" />
    <glyph glyph-name="guillemotright" unicode="&#xbb;" horiz-adv-x="1056" 
d="M121 344l285 217l-285 217v242l397 -348v-221l-397 -349v242zM549 344l285 217l-285 217v242l397 -348v-221l-397 -349v242z" />
    <glyph glyph-name="questiondown" unicode="&#xbf;" horiz-adv-x="1044" 
d="M791 807h-226v229h226v-229zM514 -410q-221 0 -351 115t-130 309q0 132 64.5 218t201.5 145l211 92q61 26 76.5 56.5t15.5 99.5v49h152v-90q0 -83 -16 -128.5t-51.5 -74.5t-113.5 -64l-204 -92q-89 -39 -128.5 -89.5t-39.5 -121.5q0 -35 11 -70t35.5 -69t60 -59.5
t89 -41.5t117.5 -16q171 0 263.5 99.5t64.5 287.5h168q19 -130 -10.5 -235.5t-97 -175t-167 -107t-221.5 -37.5z" />
    <glyph glyph-name="Agrave" unicode="&#xc0;" horiz-adv-x="1388" 
d="M428 2073l354 -396l-106 -88l-377 357zM1178 0l-177 451h-620l-176 -451h-197l553 1434h262l551 -1434h-196zM449 618h487l-244 660z" />
    <glyph glyph-name="Aacute" unicode="&#xc1;" horiz-adv-x="1388" 
d="M981 2073l129 -127l-377 -357l-106 88zM1178 0l-177 451h-620l-176 -451h-197l553 1434h262l551 -1434h-196zM449 618h487l-244 660z" />
    <glyph glyph-name="Acircumflex" unicode="&#xc2;" horiz-adv-x="1388" 
d="M512 1540h-215l276 352h205l277 -352h-215l-164 240zM1178 0l-177 451h-620l-176 -451h-197l553 1434h262l551 -1434h-196zM449 618h487l-244 660z" />
    <glyph glyph-name="Atilde" unicode="&#xc3;" horiz-adv-x="1388" 
d="M352 1577q-19 84 -3 145.5t61 96.5q91 69 206 10l185 -94q31 -15 55 2q30 23 6 94h148q19 -84 3 -145.5t-61 -96.5q-44 -33 -98.5 -35.5t-108.5 25.5l-184 94q-13 7 -29 7t-26 -9q-30 -23 -6 -94h-148zM1178 0l-177 451h-620l-176 -451h-197l553 1434h262l551 -1434h-196
zM449 618h487l-244 660z" />
    <glyph glyph-name="Adieresis" unicode="&#xc4;" horiz-adv-x="1388" 
d="M403 1831h226v-229h-226v229zM741 1831h226v-229h-226v229zM1178 0l-177 451h-620l-176 -451h-197l553 1434h262l551 -1434h-196zM449 618h487l-244 660z" />
    <glyph glyph-name="Aring" unicode="&#xc5;" horiz-adv-x="1388" 
d="M686 2028q101 0 169.5 -71.5t68.5 -178.5q0 -106 -69 -178t-169 -72t-168.5 72t-68.5 178q0 107 68 178.5t169 71.5zM686 1649q44 0 75.5 37.5t31.5 91.5q0 53 -31.5 91t-75.5 38q-45 0 -76.5 -38t-31.5 -91q0 -54 31 -91.5t77 -37.5zM1178 0l-177 451h-620l-176 -451
h-197l553 1434h262l551 -1434h-196zM449 618h487l-244 660z" />
    <glyph glyph-name="AE" unicode="&#xc6;" horiz-adv-x="2004" 
d="M8 0l553 1434h1368v-189h-1026l170 -442h713v-172h-647l170 -443h620v-188h-751l-177 451h-620l-176 -451h-197zM449 618h487l-244 660z" />
    <glyph glyph-name="Ccedilla" unicode="&#xc7;" horiz-adv-x="1409" 
d="M51 717q0 157 51.5 293t140 231.5t212.5 150t264 54.5q174 0 318.5 -78.5t229.5 -218.5t87 -313h-197q-5 191 -129.5 316.5t-308.5 125.5q-97 0 -183.5 -43.5t-147.5 -118t-96.5 -178.5t-35.5 -221q0 -157 60.5 -285.5t167.5 -202t239 -73.5q176 0 303 126.5t141 309.5
h197q-5 -164 -91.5 -302.5t-229.5 -219t-310 -82.5l-20 -54q78 9 131 -35t53 -128q0 -80 -58 -132.5t-141 -52.5q-43 0 -84 19t-61 49v125l6 2q43 -80 129 -80q36 0 65 21t29 59q0 54 -47 72q-20 8 -48.5 6.5t-49.5 -13.5l-29 29l41 117q-171 18 -307 114.5t-213.5 256
t-77.5 354.5z" />
    <glyph glyph-name="Egrave" unicode="&#xc8;" horiz-adv-x="1251" 
d="M428 2073l354 -396l-106 -88l-377 357zM1176 1245h-865v-442h721v-172h-721v-443h865v-188h-1061v1434h1061v-189z" />
    <glyph glyph-name="Eacute" unicode="&#xc9;" horiz-adv-x="1251" 
d="M961 2073l129 -127l-377 -357l-107 88zM1176 1245h-865v-442h721v-172h-721v-443h865v-188h-1061v1434h1061v-189z" />
    <glyph glyph-name="Ecircumflex" unicode="&#xca;" horiz-adv-x="1251" 
d="M492 1540h-216l277 352h205l276 -352h-215l-164 240zM1176 1245h-865v-442h721v-172h-721v-443h865v-188h-1061v1434h1061v-189z" />
    <glyph glyph-name="Edieresis" unicode="&#xcb;" horiz-adv-x="1251" 
d="M383 1831h225v-229h-225v229zM721 1831h225v-229h-225v229zM1176 1245h-865v-442h721v-172h-721v-443h865v-188h-1061v1434h1061v-189z" />
    <glyph glyph-name="Igrave" unicode="&#xcc;" horiz-adv-x="421" 
d="M-84 2073l354 -396l-106 -88l-377 357zM305 0h-188v1434h188v-1434z" />
    <glyph glyph-name="Iacute" unicode="&#xcd;" horiz-adv-x="421" 
d="M530 2073l129 -127l-376 -357l-107 88zM305 0h-188v1434h188v-1434z" />
    <glyph glyph-name="Icircumflex" unicode="&#xce;" horiz-adv-x="421" 
d="M55 1540h-215l277 352h205l276 -352h-215l-164 240zM305 0h-188v1434h188v-1434z" />
    <glyph glyph-name="Idieresis" unicode="&#xcf;" horiz-adv-x="421" 
d="M-72 1831h226v-229h-226v229zM266 1831h226v-229h-226v229zM305 0h-188v1434h188v-1434z" />
    <glyph glyph-name="Eth" unicode="&#xd0;" horiz-adv-x="1368" 
d="M6 631v172h172v631h477q312 0 486 -183.5t174 -525.5q0 -354 -171.5 -539.5t-488.5 -185.5h-477v631h-172zM371 172h284q230 0 350.5 141t120.5 412q0 261 -121 399t-350 138h-284v-459h491v-172h-491v-459z" />
    <glyph glyph-name="Ntilde" unicode="&#xd1;" horiz-adv-x="1339" 
d="M352 1577q-19 84 -3 145.5t61 96.5q91 69 206 10l185 -94q31 -15 55 2q30 23 6 94h148q19 -84 3 -145.5t-61 -96.5q-44 -33 -98.5 -35.5t-108.5 25.5l-184 94q-13 7 -29 7t-26 -9q-30 -23 -6 -94h-148zM1034 1434h193v-1434h-295l-627 1262v-1262h-192v1434h299
l622 -1244v1244z" />
    <glyph glyph-name="Ograve" unicode="&#xd2;" horiz-adv-x="1435" 
d="M469 2073l354 -396l-106 -88l-377 357zM719 1446q140 0 263.5 -54.5t211.5 -150t139 -231.5t51 -293t-51 -293t-139 -231.5t-211.5 -150t-263.5 -54.5q-141 0 -264.5 54.5t-212.5 150t-140 231.5t-51 293t51 293t140 231.5t212.5 150t264.5 54.5zM719 156q98 0 184 43.5
t146.5 118.5t95.5 178.5t35 220.5t-35 220.5t-95.5 178.5t-146.5 118.5t-184 43.5q-131 0 -237 -74t-166 -202.5t-60 -284.5t60 -284.5t166 -202.5t237 -74z" />
    <glyph glyph-name="Oacute" unicode="&#xd3;" horiz-adv-x="1435" 
d="M1001 2073l129 -127l-376 -357l-107 88zM719 1446q140 0 263.5 -54.5t211.5 -150t139 -231.5t51 -293t-51 -293t-139 -231.5t-211.5 -150t-263.5 -54.5q-141 0 -264.5 54.5t-212.5 150t-140 231.5t-51 293t51 293t140 231.5t212.5 150t264.5 54.5zM719 156q98 0 184 43.5
t146.5 118.5t95.5 178.5t35 220.5t-35 220.5t-95.5 178.5t-146.5 118.5t-184 43.5q-131 0 -237 -74t-166 -202.5t-60 -284.5t60 -284.5t166 -202.5t237 -74z" />
    <glyph glyph-name="Ocircumflex" unicode="&#xd4;" horiz-adv-x="1435" 
d="M573 1540h-215l277 352h205l276 -352h-215l-164 240zM719 1446q140 0 263.5 -54.5t211.5 -150t139 -231.5t51 -293t-51 -293t-139 -231.5t-211.5 -150t-263.5 -54.5q-141 0 -264.5 54.5t-212.5 150t-140 231.5t-51 293t51 293t140 231.5t212.5 150t264.5 54.5zM719 156
q98 0 184 43.5t146.5 118.5t95.5 178.5t35 220.5t-35 220.5t-95.5 178.5t-146.5 118.5t-184 43.5q-131 0 -237 -74t-166 -202.5t-60 -284.5t60 -284.5t166 -202.5t237 -74z" />
    <glyph glyph-name="Otilde" unicode="&#xd5;" horiz-adv-x="1435" 
d="M403 1577q-19 84 -3 145.5t61 96.5q44 33 98.5 35.5t108.5 -25.5l184 -94q31 -15 55 2q30 23 6 94h148q19 -84 3.5 -145.5t-60.5 -96.5q-44 -33 -98.5 -35.5t-108.5 25.5l-185 94q-13 7 -29 7t-26 -9q-30 -23 -6 -94h-148zM719 1446q140 0 263.5 -54.5t211.5 -150
t139 -231.5t51 -293t-51 -293t-139 -231.5t-211.5 -150t-263.5 -54.5q-141 0 -264.5 54.5t-212.5 150t-140 231.5t-51 293t51 293t140 231.5t212.5 150t264.5 54.5zM719 156q98 0 184 43.5t146.5 118.5t95.5 178.5t35 220.5t-35 220.5t-95.5 178.5t-146.5 118.5t-184 43.5
q-131 0 -237 -74t-166 -202.5t-60 -284.5t60 -284.5t166 -202.5t237 -74z" />
    <glyph glyph-name="Odieresis" unicode="&#xd6;" horiz-adv-x="1435" 
d="M440 1831h226v-229h-226v229zM778 1831h226v-229h-226v229zM719 1446q140 0 263.5 -54.5t211.5 -150t139 -231.5t51 -293t-51 -293t-139 -231.5t-211.5 -150t-263.5 -54.5q-141 0 -264.5 54.5t-212.5 150t-140 231.5t-51 293t51 293t140 231.5t212.5 150t264.5 54.5z
M719 156q98 0 184 43.5t146.5 118.5t95.5 178.5t35 220.5t-35 220.5t-95.5 178.5t-146.5 118.5t-184 43.5q-131 0 -237 -74t-166 -202.5t-60 -284.5t60 -284.5t166 -202.5t237 -74z" />
    <glyph glyph-name="multiply" unicode="&#xd7;" horiz-adv-x="929" 
d="M104 807l115 115l246 -244l246 244l114 -115l-243 -246l243 -246l-114 -114l-246 243l-246 -243l-115 114l244 246z" />
    <glyph glyph-name="Oslash" unicode="&#xd8;" horiz-adv-x="1435" 
d="M31 143l141 142q-121 181 -121 432q0 157 51 293t140 231.5t212.5 150t264.5 54.5q257 0 442 -172l133 133l117 -117l-143 -143q116 -187 116 -430q0 -157 -51 -293t-139 -231.5t-211.5 -150t-263.5 -54.5q-261 0 -440 170l-132 -131zM256 717q0 -156 61 -287l711 711
q-127 137 -309 137q-131 0 -237 -74t-166 -202.5t-60 -284.5zM412 291q129 -135 307 -135q98 0 184 43.5t146.5 118.5t95.5 178.5t35 220.5q0 156 -60 282z" />
    <glyph glyph-name="Ugrave" unicode="&#xd9;" horiz-adv-x="1318" 
d="M428 2073l354 -396l-106 -88l-377 357zM1024 1434h197v-940q0 -157 -76 -273.5t-202.5 -174.5t-283.5 -58t-283 58t-202 174.5t-76 273.5v940h197v-940q0 -159 103 -248.5t261 -89.5t261.5 89.5t103.5 248.5v940z" />
    <glyph glyph-name="Uacute" unicode="&#xda;" horiz-adv-x="1318" 
d="M961 2073l129 -127l-377 -357l-107 88zM1024 1434h197v-940q0 -157 -76 -273.5t-202.5 -174.5t-283.5 -58t-283 58t-202 174.5t-76 273.5v940h197v-940q0 -159 103 -248.5t261 -89.5t261.5 89.5t103.5 248.5v940z" />
    <glyph glyph-name="Ucircumflex" unicode="&#xdb;" horiz-adv-x="1318" 
d="M506 1540h-215l276 352h205l277 -352h-215l-164 240zM1024 1434h197v-940q0 -157 -76 -273.5t-202.5 -174.5t-283.5 -58t-283 58t-202 174.5t-76 273.5v940h197v-940q0 -159 103 -248.5t261 -89.5t261.5 89.5t103.5 248.5v940z" />
    <glyph glyph-name="Udieresis" unicode="&#xdc;" horiz-adv-x="1318" 
d="M383 1831h225v-229h-225v229zM721 1831h225v-229h-225v229zM1024 1434h197v-940q0 -157 -76 -273.5t-202.5 -174.5t-283.5 -58t-283 58t-202 174.5t-76 273.5v940h197v-940q0 -159 103 -248.5t261 -89.5t261.5 89.5t103.5 248.5v940z" />
    <glyph glyph-name="Yacute" unicode="&#xdd;" horiz-adv-x="1253" 
d="M920 2073l129 -127l-377 -357l-107 88zM997 1434h246l-518 -842v-592h-197v592l-518 842h246l371 -646z" />
    <glyph glyph-name="Thorn" unicode="&#xde;" horiz-adv-x="1259" 
d="M115 0v1434h188v-308h549q75 0 143 -27.5t121 -77.5t84 -127t31 -169q0 -93 -31 -172t-83.5 -132.5t-121 -83.5t-143.5 -30h-549v-307h-188zM303 473h531q77 0 138.5 72.5t61.5 175.5q0 102 -60.5 167.5t-139.5 65.5h-531v-481z" />
    <glyph glyph-name="germandbls" unicode="&#xdf;" horiz-adv-x="1105" 
d="M90 0v928q0 239 126.5 378.5t373.5 139.5q130 0 233.5 -44t167.5 -135.5t64 -217.5q0 -111 -62.5 -190.5t-152.5 -117.5q42 -17 78 -40.5t71.5 -61t56.5 -94t21 -125.5q0 -197 -138 -308.5t-360 -111.5h-190v156h190q127 0 216 69.5t89 194.5q0 98 -66 165.5t-173 67.5
h-115v160h115q105 0 166 69.5t61 166.5q0 109 -75 177t-197 68q-307 0 -307 -366v-928h-193z" />
    <glyph glyph-name="agrave" unicode="&#xe0;" horiz-adv-x="985" 
d="M227 1675l355 -395l-107 -88l-377 356zM41 629q-7 193 118.5 306.5t346.5 113.5q125 0 222 -42t149 -120q53 -82 53 -211q-2 -135 -2 -438q0 -182 8 -234h-180q-6 44 -6 119q-58 -59 -142 -97t-176 -38q-162 0 -254 87.5t-92 237.5q0 53 16 96.5t44 74.5t71.5 56t91 41.5
t110.5 30.5t122.5 24t134.5 21q49 7 74 11q0 213 -244 213q-136 0 -207 -65t-66 -187h-192zM270 307q0 -74 51 -114.5t130 -40.5q140 0 225.5 93.5t75.5 260.5q-48 -9 -114 -19t-105.5 -16t-87.5 -16t-75 -21.5t-52.5 -28.5t-36.5 -41.5t-11 -56.5z" />
    <glyph glyph-name="aacute" unicode="&#xe1;" horiz-adv-x="985" 
d="M801 1675l129 -127l-377 -356l-107 88zM41 629q-7 193 118.5 306.5t346.5 113.5q125 0 222 -42t149 -120q53 -82 53 -211q-2 -135 -2 -438q0 -182 8 -234h-180q-6 44 -6 119q-58 -59 -142 -97t-176 -38q-162 0 -254 87.5t-92 237.5q0 53 16 96.5t44 74.5t71.5 56t91 41.5
t110.5 30.5t122.5 24t134.5 21q49 7 74 11q0 213 -244 213q-136 0 -207 -65t-66 -187h-192zM270 307q0 -74 51 -114.5t130 -40.5q140 0 225.5 93.5t75.5 260.5q-48 -9 -114 -19t-105.5 -16t-87.5 -16t-75 -21.5t-52.5 -28.5t-36.5 -41.5t-11 -56.5z" />
    <glyph glyph-name="acircumflex" unicode="&#xe2;" horiz-adv-x="985" 
d="M348 1143h-215l277 352h204l277 -352h-215l-164 239zM41 629q-7 193 118.5 306.5t346.5 113.5q125 0 222 -42t149 -120q53 -82 53 -211q-2 -135 -2 -438q0 -182 8 -234h-180q-6 44 -6 119q-58 -59 -142 -97t-176 -38q-162 0 -254 87.5t-92 237.5q0 53 16 96.5t44 74.5
t71.5 56t91 41.5t110.5 30.5t122.5 24t134.5 21q49 7 74 11q0 213 -244 213q-136 0 -207 -65t-66 -187h-192zM270 307q0 -74 51 -114.5t130 -40.5q140 0 225.5 93.5t75.5 260.5q-48 -9 -114 -19t-105.5 -16t-87.5 -16t-75 -21.5t-52.5 -28.5t-36.5 -41.5t-11 -56.5z" />
    <glyph glyph-name="atilde" unicode="&#xe3;" horiz-adv-x="985" 
d="M186 1180q-19 84 -3.5 145t61.5 96q44 34 98.5 36.5t108.5 -25.5l184 -95q31 -15 55 2q30 24 6 95h148q19 -84 3 -145.5t-61 -96.5q-91 -69 -206 -10l-185 94q-13 6 -29 6t-26 -8q-30 -23 -6 -94h-148zM41 629q-7 193 118.5 306.5t346.5 113.5q125 0 222 -42t149 -120
q53 -82 53 -211q-2 -135 -2 -438q0 -182 8 -234h-180q-6 44 -6 119q-58 -59 -142 -97t-176 -38q-162 0 -254 87.5t-92 237.5q0 53 16 96.5t44 74.5t71.5 56t91 41.5t110.5 30.5t122.5 24t134.5 21q49 7 74 11q0 213 -244 213q-136 0 -207 -65t-66 -187h-192zM270 307
q0 -74 51 -114.5t130 -40.5q140 0 225.5 93.5t75.5 260.5q-48 -9 -114 -19t-105.5 -16t-87.5 -16t-75 -21.5t-52.5 -28.5t-36.5 -41.5t-11 -56.5z" />
    <glyph glyph-name="adieresis" unicode="&#xe4;" horiz-adv-x="985" 
d="M223 1434h226v-230h-226v230zM561 1434h225v-230h-225v230zM41 629q-7 193 118.5 306.5t346.5 113.5q125 0 222 -42t149 -120q53 -82 53 -211q-2 -135 -2 -438q0 -182 8 -234h-180q-6 44 -6 119q-58 -59 -142 -97t-176 -38q-162 0 -254 87.5t-92 237.5q0 53 16 96.5
t44 74.5t71.5 56t91 41.5t110.5 30.5t122.5 24t134.5 21q49 7 74 11q0 213 -244 213q-136 0 -207 -65t-66 -187h-192zM270 307q0 -74 51 -114.5t130 -40.5q140 0 225.5 93.5t75.5 260.5q-48 -9 -114 -19t-105.5 -16t-87.5 -16t-75 -21.5t-52.5 -28.5t-36.5 -41.5t-11 -56.5z
" />
    <glyph glyph-name="aring" unicode="&#xe5;" horiz-adv-x="985" 
d="M510 1630q101 0 169.5 -71.5t68.5 -178.5q0 -106 -69 -178t-169 -72t-169 72t-69 178q0 107 68.5 178.5t169.5 71.5zM510 1251q44 0 75 37.5t31 91.5q0 53 -31 91t-75 38q-45 0 -77 -38t-32 -91q0 -54 31.5 -91.5t77.5 -37.5zM41 629q-7 193 118.5 306.5t346.5 113.5
q125 0 222 -42t149 -120q53 -82 53 -211q-2 -135 -2 -438q0 -182 8 -234h-180q-6 44 -6 119q-58 -59 -142 -97t-176 -38q-162 0 -254 87.5t-92 237.5q0 53 16 96.5t44 74.5t71.5 56t91 41.5t110.5 30.5t122.5 24t134.5 21q49 7 74 11q0 213 -244 213q-136 0 -207 -65
t-66 -187h-192zM270 307q0 -74 51 -114.5t130 -40.5q140 0 225.5 93.5t75.5 260.5q-48 -9 -114 -19t-105.5 -16t-87.5 -16t-75 -21.5t-52.5 -28.5t-36.5 -41.5t-11 -56.5z" />
    <glyph glyph-name="ae" unicode="&#xe6;" horiz-adv-x="1734" 
d="M41 629q-7 193 118.5 306.5t346.5 113.5q125 0 222 -42.5t149 -121.5q67 78 158.5 121t197.5 43q151 0 262 -76t161.5 -207.5t35.5 -294.5h-750q12 -135 94 -225t197 -90q96 0 166.5 58.5t97.5 154.5h197q-31 -164 -161.5 -272.5t-299.5 -108.5q-118 0 -227.5 66.5
t-161.5 166.5q-143 -233 -412 -233q-162 0 -254 87.5t-92 237.5q0 53 16 96.5t44 74.5t71.5 56t91 41.5t110.5 30.5t122.5 24t134.5 21q49 7 74 11q0 213 -244 213q-136 0 -207 -65t-66 -187h-192zM952 627h551q-9 108 -84.5 183t-185.5 75q-107 0 -181 -71.5t-100 -186.5z
M270 307q0 -74 51 -114.5t130 -40.5q140 0 225.5 93.5t75.5 260.5q-48 -9 -114 -19t-105.5 -16t-87.5 -16t-75 -21.5t-52.5 -28.5t-36.5 -41.5t-11 -56.5z" />
    <glyph glyph-name="ccedilla" unicode="&#xe7;" horiz-adv-x="1015" 
d="M39 518q0 229 137 380t344 151q188 0 325 -133.5t136 -317.5h-188q0 117 -78.5 200t-194.5 83q-130 0 -211.5 -104t-81.5 -259q0 -151 84 -256.5t209 -105.5q115 0 193.5 81t83.5 189h188q-2 -167 -127.5 -295.5t-304.5 -140.5l-21 -56q78 9 131.5 -35t53.5 -128
q0 -80 -58 -132.5t-141 -52.5q-43 0 -84 19t-61 49v125l6 2q43 -80 129 -80q36 0 65 21t29 59q0 54 -47 72q-20 8 -48.5 6.5t-49.5 -13.5l-31 29l39 117q-183 22 -304.5 169.5t-121.5 356.5z" />
    <glyph glyph-name="egrave" unicode="&#xe8;" horiz-adv-x="1021" 
d="M268 1675l355 -395l-107 -88l-377 356zM979 471h-750q12 -135 94 -225t197 -90q96 0 166.5 58.5t97.5 154.5h197q-31 -164 -161.5 -272.5t-299.5 -108.5q-132 0 -242.5 69t-174.5 191t-64 270q0 229 137 380t344 151q151 0 262 -76t161.5 -207.5t35.5 -294.5zM520 885
q-107 0 -180.5 -71.5t-99.5 -186.5h551q-9 108 -85 183t-186 75z" />
    <glyph glyph-name="eacute" unicode="&#xe9;" horiz-adv-x="1021" 
d="M842 1675l129 -127l-377 -356l-107 88zM979 471h-750q12 -135 94 -225t197 -90q96 0 166.5 58.5t97.5 154.5h197q-31 -164 -161.5 -272.5t-299.5 -108.5q-132 0 -242.5 69t-174.5 191t-64 270q0 229 137 380t344 151q151 0 262 -76t161.5 -207.5t35.5 -294.5zM520 885
q-107 0 -180.5 -71.5t-99.5 -186.5h551q-9 108 -85 183t-186 75z" />
    <glyph glyph-name="ecircumflex" unicode="&#xea;" horiz-adv-x="1021" 
d="M362 1143h-215l277 352h205l276 -352h-215l-164 239zM979 471h-750q12 -135 94 -225t197 -90q96 0 166.5 58.5t97.5 154.5h197q-31 -164 -161.5 -272.5t-299.5 -108.5q-132 0 -242.5 69t-174.5 191t-64 270q0 229 137 380t344 151q151 0 262 -76t161.5 -207.5
t35.5 -294.5zM520 885q-107 0 -180.5 -71.5t-99.5 -186.5h551q-9 108 -85 183t-186 75z" />
    <glyph glyph-name="edieresis" unicode="&#xeb;" horiz-adv-x="1021" 
d="M250 1434h225v-230h-225v230zM588 1434h225v-230h-225v230zM979 471h-750q12 -135 94 -225t197 -90q96 0 166.5 58.5t97.5 154.5h197q-31 -164 -161.5 -272.5t-299.5 -108.5q-132 0 -242.5 69t-174.5 191t-64 270q0 229 137 380t344 151q151 0 262 -76t161.5 -207.5
t35.5 -294.5zM520 885q-107 0 -180.5 -71.5t-99.5 -186.5h551q-9 108 -85 183t-186 75z" />
    <glyph glyph-name="igrave" unicode="&#xec;" horiz-adv-x="368" 
d="M-104 1675l354 -395l-107 -88l-376 356zM94 0v1036h180v-1036h-180z" />
    <glyph glyph-name="iacute" unicode="&#xed;" horiz-adv-x="368" 
d="M469 1675l129 -127l-377 -356l-106 88zM94 0v1036h180v-1036h-180z" />
    <glyph glyph-name="icircumflex" unicode="&#xee;" horiz-adv-x="368" 
d="M20 1143h-215l277 352h205l276 -352h-215l-164 239zM94 0v1036h180v-1036h-180z" />
    <glyph glyph-name="idieresis" unicode="&#xef;" horiz-adv-x="368" 
d="M-98 1434h225v-230h-225v230zM240 1434h225v-230h-225v230zM94 0v1036h180v-1036h-180z" />
    <glyph glyph-name="eth" unicode="&#xf0;" horiz-adv-x="1114" 
d="M39 471q0 201 127 334.5t334 136.5q124 1 233.5 -56t157.5 -145q-6 188 -133 404l-174 -101l-70 121l162 95q-82 102 -174 170v4h198q56 -41 107 -101l174 101l70 -121l-158 -90q178 -261 178 -568q0 -192 -62 -342t-184 -237.5t-286 -87.5q-106 0 -199.5 38t-159 103
t-103.5 154t-38 188zM229 467q0 -135 89 -233.5t221 -98.5q130 0 219.5 99t89.5 233q0 140 -88 232t-225 92q-134 0 -220 -92t-86 -232z" />
    <glyph glyph-name="ntilde" unicode="&#xf1;" 
d="M303 1180h-147q-19 84 -3.5 145t60.5 96q44 34 98.5 36.5t108.5 -25.5l184 -95q31 -15 55 2q31 24 7 95h147q19 -84 3.5 -145.5t-60.5 -96.5q-44 -33 -98.5 -35.5t-108.5 25.5l-184 94q-13 6 -29.5 6t-26.5 -8q-30 -23 -6 -94zM532 1049q170 0 264.5 -93t94.5 -290v-666
h-189v645q0 97 -56 153t-150 56q-97 0 -160.5 -58.5t-63.5 -160.5v-635h-180v1036h180v-149q36 67 102 114.5t158 47.5z" />
    <glyph glyph-name="ograve" unicode="&#xf2;" horiz-adv-x="1044" 
d="M268 1675l355 -395l-107 -88l-377 356zM522 1049q134 0 244.5 -69t174 -191t63.5 -271q0 -225 -139.5 -377.5t-342.5 -152.5t-342 152.5t-139 377.5q0 227 138.5 379t342.5 152zM522 152q130 0 211.5 105.5t81.5 260.5q0 157 -81.5 262t-211.5 105t-211.5 -105
t-81.5 -262q0 -155 81.5 -260.5t211.5 -105.5z" />
    <glyph glyph-name="oacute" unicode="&#xf3;" horiz-adv-x="1044" 
d="M862 1675l129 -127l-377 -356l-106 88zM522 1049q134 0 244.5 -69t174 -191t63.5 -271q0 -225 -139.5 -377.5t-342.5 -152.5t-342 152.5t-139 377.5q0 227 138.5 379t342.5 152zM522 152q130 0 211.5 105.5t81.5 260.5q0 157 -81.5 262t-211.5 105t-211.5 -105
t-81.5 -262q0 -155 81.5 -260.5t211.5 -105.5z" />
    <glyph glyph-name="ocircumflex" unicode="&#xf4;" horiz-adv-x="1044" 
d="M362 1143h-215l277 352h205l276 -352h-215l-164 239zM522 1049q134 0 244.5 -69t174 -191t63.5 -271q0 -225 -139.5 -377.5t-342.5 -152.5t-342 152.5t-139 377.5q0 227 138.5 379t342.5 152zM522 152q130 0 211.5 105.5t81.5 260.5q0 157 -81.5 262t-211.5 105
t-211.5 -105t-81.5 -262q0 -155 81.5 -260.5t211.5 -105.5z" />
    <glyph glyph-name="otilde" unicode="&#xf5;" horiz-adv-x="1044" 
d="M209 1180q-19 84 -3.5 145t60.5 96q44 34 98.5 36.5t108.5 -25.5l184 -95q12 -6 29 -5.5t27 7.5q30 24 6 95h147q19 -84 3.5 -145.5t-60.5 -96.5q-44 -33 -98.5 -35.5t-108.5 25.5l-184 94q-13 6 -29.5 6t-26.5 -8q-30 -23 -6 -94h-147zM522 1049q134 0 244.5 -69
t174 -191t63.5 -271q0 -225 -139.5 -377.5t-342.5 -152.5t-342 152.5t-139 377.5q0 227 138.5 379t342.5 152zM522 152q130 0 211.5 105.5t81.5 260.5q0 157 -81.5 262t-211.5 105t-211.5 -105t-81.5 -262q0 -155 81.5 -260.5t211.5 -105.5z" />
    <glyph glyph-name="odieresis" unicode="&#xf6;" horiz-adv-x="1044" 
d="M252 1434h225v-230h-225v230zM590 1434h225v-230h-225v230zM522 1049q134 0 244.5 -69t174 -191t63.5 -271q0 -225 -139.5 -377.5t-342.5 -152.5t-342 152.5t-139 377.5q0 227 138.5 379t342.5 152zM522 152q130 0 211.5 105.5t81.5 260.5q0 157 -81.5 262t-211.5 105
t-211.5 -105t-81.5 -262q0 -155 81.5 -260.5t211.5 -105.5z" />
    <glyph glyph-name="divide" unicode="&#xf7;" horiz-adv-x="999" 
d="M387 1006h225v-230h-225v230zM72 643h856v-164h-856v164zM387 344h225v-229h-225v229z" />
    <glyph glyph-name="oslash" unicode="&#xf8;" horiz-adv-x="1044" 
d="M2 94l121 121q-82 138 -82 303q0 227 138.5 379t342.5 152q180 0 314 -121l112 112l99 -98l-123 -123q80 -132 80 -301q0 -225 -139.5 -377.5t-342.5 -152.5q-178 0 -309 121l-113 -113zM229 518q0 -86 29 -168l453 453q-82 82 -189 82q-130 0 -211.5 -105t-81.5 -262z
M336 231q82 -79 186 -79q130 0 211.5 105.5t81.5 260.5q0 85 -29 164z" />
    <glyph glyph-name="ugrave" unicode="&#xf9;" 
d="M602 1280l-106 -88l-377 356l129 127zM700 1036h181v-1036h-181v150q-36 -67 -102 -114.5t-158 -47.5q-170 0 -264 93t-94 290v665h188v-645q0 -97 56 -153t151 -56q97 0 160 58t63 161v635z" />
    <glyph glyph-name="uacute" unicode="&#xfa;" 
d="M868 1548l-376 -356l-107 88l354 395zM700 1036h181v-1036h-181v150q-36 -67 -102 -114.5t-158 -47.5q-170 0 -264 93t-94 290v665h188v-645q0 -97 56 -153t151 -56q97 0 160 58t63 161v635z" />
    <glyph glyph-name="ucircumflex" unicode="&#xfb;" 
d="M496 1382l-164 -239h-215l276 352h205l276 -352h-215zM700 1036h181v-1036h-181v150q-36 -67 -102 -114.5t-158 -47.5q-170 0 -264 93t-94 290v665h188v-645q0 -97 56 -153t151 -56q97 0 160 58t63 161v635z" />
    <glyph glyph-name="udieresis" unicode="&#xfc;" 
d="M418 1434v-230h-225v230h225zM756 1434v-230h-226v230h226zM700 1036h181v-1036h-181v150q-36 -67 -102 -114.5t-158 -47.5q-170 0 -264 93t-94 290v665h188v-645q0 -97 56 -153t151 -56q97 0 160 58t63 161v635z" />
    <glyph glyph-name="yacute" unicode="&#xfd;" horiz-adv-x="993" 
d="M760 1675l129 -127l-377 -356l-106 88zM4 1036h213l281 -843l278 843h213l-399 -1116q-5 -14 -17.5 -49.5t-18 -49t-17 -41t-21 -42t-23.5 -34.5t-31 -35.5t-38 -30.5q-49 -34 -115 -40t-157 9v180q50 -12 86.5 -12.5t61.5 7t44 28t31 45t26 63.5l2 4z" />
    <glyph glyph-name="thorn" unicode="&#xfe;" horiz-adv-x="1073" 
d="M92 -397v1831h180v-564q46 75 127.5 127t192.5 52q197 0 319.5 -150t122.5 -381t-124 -380.5t-322 -149.5q-111 0 -192.5 52.5t-123.5 123.5v-561h-180zM266 516q0 -155 81 -253.5t212 -98.5q124 0 201.5 98.5t77.5 253.5q0 157 -77.5 256.5t-201.5 99.5
q-129 0 -211 -99.5t-82 -256.5z" />
    <glyph glyph-name="ydieresis" unicode="&#xff;" horiz-adv-x="993" 
d="M203 1434h225v-230h-225v230zM541 1434h225v-230h-225v230zM4 1036h213l281 -843l278 843h213l-399 -1116q-5 -14 -17.5 -49.5t-18 -49t-17 -41t-21 -42t-23.5 -34.5t-31 -35.5t-38 -30.5q-49 -34 -115 -40t-157 9v180q50 -12 86.5 -12.5t61.5 7t44 28t31 45t26 63.5l2 4
z" />
    <glyph glyph-name="Amacron" unicode="&#x100;" horiz-adv-x="1388" 
d="M1036 1755v-160h-700v160h700zM1178 0l-177 451h-620l-176 -451h-197l553 1434h262l551 -1434h-196zM449 618h487l-244 660z" />
    <glyph glyph-name="amacron" unicode="&#x101;" horiz-adv-x="985" 
d="M856 1358v-160h-700v160h700zM41 629q-7 193 118.5 306.5t346.5 113.5q125 0 222 -42t149 -120q53 -82 53 -211q-2 -135 -2 -438q0 -182 8 -234h-180q-6 44 -6 119q-58 -59 -142 -97t-176 -38q-162 0 -254 87.5t-92 237.5q0 53 16 96.5t44 74.5t71.5 56t91 41.5
t110.5 30.5t122.5 24t134.5 21q49 7 74 11q0 213 -244 213q-136 0 -207 -65t-66 -187h-192zM270 307q0 -74 51 -114.5t130 -40.5q140 0 225.5 93.5t75.5 260.5q-48 -9 -114 -19t-105.5 -16t-87.5 -16t-75 -21.5t-52.5 -28.5t-36.5 -41.5t-11 -56.5z" />
    <glyph glyph-name="Abreve" unicode="&#x102;" horiz-adv-x="1388" 
d="M692 1679q57 0 91 42t28 110h168q6 -134 -76.5 -218.5t-210.5 -84.5t-210 84.5t-76 218.5h167q-6 -68 28 -110t91 -42zM1178 0l-177 451h-620l-176 -451h-197l553 1434h262l551 -1434h-196zM449 618h487l-244 660z" />
    <glyph glyph-name="abreve" unicode="&#x103;" horiz-adv-x="985" 
d="M506 1282q57 0 91 42t28 110h168q6 -134 -76.5 -219t-210.5 -85t-210.5 85t-76.5 219h168q-6 -68 28 -110t91 -42zM41 629q-7 193 118.5 306.5t346.5 113.5q125 0 222 -42t149 -120q53 -82 53 -211q-2 -135 -2 -438q0 -182 8 -234h-180q-6 44 -6 119q-58 -59 -142 -97
t-176 -38q-162 0 -254 87.5t-92 237.5q0 53 16 96.5t44 74.5t71.5 56t91 41.5t110.5 30.5t122.5 24t134.5 21q49 7 74 11q0 213 -244 213q-136 0 -207 -65t-66 -187h-192zM270 307q0 -74 51 -114.5t130 -40.5q140 0 225.5 93.5t75.5 260.5q-48 -9 -114 -19t-105.5 -16
t-87.5 -16t-75 -21.5t-52.5 -28.5t-36.5 -41.5t-11 -56.5z" />
    <glyph glyph-name="Aogonek" unicode="&#x104;" horiz-adv-x="1388" 
d="M8 0l553 1434h262l551 -1434q-137 -53 -137 -147q0 -45 32.5 -71.5t78.5 -25.5t94 23v-170q-69 -30 -135.5 -30.5t-117 25.5t-81.5 79t-31 124q0 59 34 112.5t87 80.5h-20l-177 451h-620l-176 -451h-197zM449 618h487l-244 660z" />
    <glyph glyph-name="aogonek" unicode="&#x105;" horiz-adv-x="985" 
d="M41 629q-7 193 118.5 306.5t346.5 113.5q125 0 222 -42t149 -120q53 -82 53 -211q-2 -135 -2 -438q0 -186 8 -238q-137 -53 -137 -147q0 -45 32.5 -71.5t78.5 -25.5t94 23v-170q-69 -30 -135.5 -30.5t-117 25.5t-81.5 79t-31 124q0 62 32 114t85 79q-6 44 -6 123
q-58 -59 -142 -97t-176 -38q-162 0 -254 87.5t-92 237.5q0 53 16 96.5t44 74.5t71.5 56t91 41.5t110.5 30.5t122.5 24t134.5 21q49 7 74 11q0 213 -244 213q-136 0 -207 -65t-66 -187h-192zM270 307q0 -74 51 -114.5t130 -40.5q140 0 225.5 93.5t75.5 260.5q-48 -9 -114 -19
t-105.5 -16t-87.5 -16t-75 -21.5t-52.5 -28.5t-36.5 -41.5t-11 -56.5z" />
    <glyph glyph-name="Cacute" unicode="&#x106;" horiz-adv-x="1409" 
d="M981 2073l129 -127l-377 -357l-106 88zM1167 592h197q-5 -166 -93 -305t-233.5 -219t-314.5 -80q-141 0 -265.5 54.5t-214 150t-141 231.5t-51.5 293t51.5 293t140 231.5t212.5 150t264 54.5q174 0 318.5 -78.5t229.5 -218.5t87 -313h-197q-5 191 -129.5 316.5
t-308.5 125.5q-97 0 -183.5 -43.5t-147.5 -118t-96.5 -178.5t-35.5 -221q0 -157 60.5 -285.5t167.5 -202t239 -73.5q176 0 303 126.5t141 309.5z" />
    <glyph glyph-name="cacute" unicode="&#x107;" horiz-adv-x="1015" 
d="M842 1675l129 -127l-377 -356l-107 88zM797 426h188q-1 -114 -63 -215t-169.5 -162t-232.5 -61q-132 0 -242.5 69t-174.5 191t-64 270q0 229 137 380t344 151q188 0 325 -133.5t136 -317.5h-188q0 117 -78.5 200t-194.5 83q-130 0 -211.5 -104t-81.5 -259
q0 -151 84 -256.5t209 -105.5q115 0 193.5 81t83.5 189z" />
    <glyph glyph-name="Ccircumflex" unicode="&#x108;" horiz-adv-x="1409" 
d="M573 1540h-215l277 352h205l276 -352h-215l-164 240zM1167 592h197q-5 -166 -93 -305t-233.5 -219t-314.5 -80q-141 0 -265.5 54.5t-214 150t-141 231.5t-51.5 293t51.5 293t140 231.5t212.5 150t264 54.5q174 0 318.5 -78.5t229.5 -218.5t87 -313h-197
q-5 191 -129.5 316.5t-308.5 125.5q-97 0 -183.5 -43.5t-147.5 -118t-96.5 -178.5t-35.5 -221q0 -157 60.5 -285.5t167.5 -202t239 -73.5q176 0 303 126.5t141 309.5z" />
    <glyph glyph-name="ccircumflex" unicode="&#x109;" horiz-adv-x="1015" 
d="M362 1143h-215l277 352h205l276 -352h-215l-164 239zM797 426h188q-1 -114 -63 -215t-169.5 -162t-232.5 -61q-132 0 -242.5 69t-174.5 191t-64 270q0 229 137 380t344 151q188 0 325 -133.5t136 -317.5h-188q0 117 -78.5 200t-194.5 83q-130 0 -211.5 -104t-81.5 -259
q0 -151 84 -256.5t209 -105.5q115 0 193.5 81t83.5 189z" />
    <glyph glyph-name="Cdotaccent" unicode="&#x10a;" horiz-adv-x="1409" 
d="M604 1831h225v-229h-225v229zM1167 592h197q-5 -166 -93 -305t-233.5 -219t-314.5 -80q-141 0 -265.5 54.5t-214 150t-141 231.5t-51.5 293t51.5 293t140 231.5t212.5 150t264 54.5q174 0 318.5 -78.5t229.5 -218.5t87 -313h-197q-5 191 -129.5 316.5t-308.5 125.5
q-97 0 -183.5 -43.5t-147.5 -118t-96.5 -178.5t-35.5 -221q0 -157 60.5 -285.5t167.5 -202t239 -73.5q176 0 303 126.5t141 309.5z" />
    <glyph glyph-name="cdotaccent" unicode="&#x10b;" horiz-adv-x="1015" 
d="M408 1434h225v-230h-225v230zM797 426h188q-1 -114 -63 -215t-169.5 -162t-232.5 -61q-132 0 -242.5 69t-174.5 191t-64 270q0 229 137 380t344 151q188 0 325 -133.5t136 -317.5h-188q0 117 -78.5 200t-194.5 83q-130 0 -211.5 -104t-81.5 -259q0 -151 84 -256.5
t209 -105.5q115 0 193.5 81t83.5 189z" />
    <glyph glyph-name="Ccaron" unicode="&#x10c;" horiz-adv-x="1409" 
d="M567 1892l164 -239l164 239h215l-276 -352h-205l-277 352h215zM1167 592h197q-5 -166 -93 -305t-233.5 -219t-314.5 -80q-141 0 -265.5 54.5t-214 150t-141 231.5t-51.5 293t51.5 293t140 231.5t212.5 150t264 54.5q174 0 318.5 -78.5t229.5 -218.5t87 -313h-197
q-5 191 -129.5 316.5t-308.5 125.5q-97 0 -183.5 -43.5t-147.5 -118t-96.5 -178.5t-35.5 -221q0 -157 60.5 -285.5t167.5 -202t239 -73.5q176 0 303 126.5t141 309.5z" />
    <glyph glyph-name="ccaron" unicode="&#x10d;" horiz-adv-x="1015" 
d="M362 1495l164 -240l164 240h215l-276 -352h-205l-277 352h215zM797 426h188q-1 -114 -63 -215t-169.5 -162t-232.5 -61q-132 0 -242.5 69t-174.5 191t-64 270q0 229 137 380t344 151q188 0 325 -133.5t136 -317.5h-188q0 117 -78.5 200t-194.5 83q-130 0 -211.5 -104
t-81.5 -259q0 -151 84 -256.5t209 -105.5q115 0 193.5 81t83.5 189z" />
    <glyph glyph-name="Dcaron" unicode="&#x10e;" horiz-adv-x="1304" 
d="M444 1892l164 -239l164 239h215l-276 -352h-205l-277 352h215zM1251 725q0 -355 -171.5 -540t-487.5 -185h-477v1434h477q312 0 485.5 -183t173.5 -526zM592 172q230 0 350.5 141t120.5 412q0 261 -121 399t-350 138h-285v-1090h285z" />
    <glyph glyph-name="dcaron" unicode="&#x10f;" horiz-adv-x="1073" 
d="M801 872v562h180v-1434h-180v166q-44 -74 -126 -126t-194 -52q-197 0 -319.5 149.5t-122.5 380.5t124 381t322 150q110 0 193.5 -53.5t122.5 -123.5zM1296 1153v-6q1 -71 -34 -96q-44 -33 -136 -19v90q72 -15 72 37v45h-127v230h225v-281zM514 164q129 0 211 99.5
t82 256.5q0 155 -81 253.5t-212 98.5q-124 0 -201 -98.5t-77 -253.5q0 -157 77 -256.5t201 -99.5z" />
    <glyph glyph-name="Dcroat" unicode="&#x110;" horiz-adv-x="1368" 
d="M6 631v172h172v631h477q312 0 486 -183.5t174 -525.5q0 -354 -171.5 -539.5t-488.5 -185.5h-477v631h-172zM371 172h284q230 0 350.5 141t120.5 412q0 261 -121 399t-350 138h-284v-459h491v-172h-491v-459z" />
    <glyph glyph-name="dcroat" unicode="&#x111;" horiz-adv-x="1114" 
d="M39 518q0 231 124 381t322 150q111 0 192.5 -53t123.5 -124v287h-287v160h287v115h180v-115h152v-160h-152v-1159h-180v166q-46 -75 -127 -126.5t-193 -51.5q-197 0 -319.5 149.5t-122.5 380.5zM236 520q0 -157 77 -256.5t201 -99.5q129 0 211 99.5t82 256.5
q0 155 -81 253.5t-212 98.5q-124 0 -201 -98.5t-77 -253.5z" />
    <glyph glyph-name="Emacron" unicode="&#x112;" horiz-adv-x="1251" 
d="M1016 1755v-160h-701v160h701zM1176 1245h-865v-442h721v-172h-721v-443h865v-188h-1061v1434h1061v-189z" />
    <glyph glyph-name="emacron" unicode="&#x113;" horiz-adv-x="1021" 
d="M877 1358v-160h-701v160h701zM979 471h-750q12 -135 94 -225t197 -90q96 0 166.5 58.5t97.5 154.5h197q-31 -164 -161.5 -272.5t-299.5 -108.5q-132 0 -242.5 69t-174.5 191t-64 270q0 229 137 380t344 151q151 0 262 -76t161.5 -207.5t35.5 -294.5zM520 885
q-107 0 -180.5 -71.5t-99.5 -186.5h551q-9 108 -85 183t-186 75z" />
    <glyph glyph-name="Ebreve" unicode="&#x114;" horiz-adv-x="1251" 
d="M692 1679q57 0 91 42t28 110h168q6 -134 -76.5 -218.5t-210.5 -84.5t-210 84.5t-76 218.5h167q-6 -68 28 -110t91 -42zM1176 1245h-865v-442h721v-172h-721v-443h865v-188h-1061v1434h1061v-189z" />
    <glyph glyph-name="ebreve" unicode="&#x115;" horiz-adv-x="1021" 
d="M518 1282q57 0 91 42t28 110h168q6 -134 -76.5 -219t-210.5 -85t-210.5 85t-76.5 219h168q-6 -68 28 -110t91 -42zM979 471h-750q12 -135 94 -225t197 -90q96 0 166.5 58.5t97.5 154.5h197q-31 -164 -161.5 -272.5t-299.5 -108.5q-132 0 -242.5 69t-174.5 191t-64 270
q0 229 137 380t344 151q151 0 262 -76t161.5 -207.5t35.5 -294.5zM520 885q-107 0 -180.5 -71.5t-99.5 -186.5h551q-9 108 -85 183t-186 75z" />
    <glyph glyph-name="Edotaccent" unicode="&#x116;" horiz-adv-x="1251" 
d="M563 1831h225v-229h-225v229zM1176 1245h-865v-442h721v-172h-721v-443h865v-188h-1061v1434h1061v-189z" />
    <glyph glyph-name="edotaccent" unicode="&#x117;" horiz-adv-x="1021" 
d="M406 1434h225v-230h-225v230zM979 471h-750q12 -135 94 -225t197 -90q96 0 166.5 58.5t97.5 154.5h197q-31 -164 -161.5 -272.5t-299.5 -108.5q-132 0 -242.5 69t-174.5 191t-64 270q0 229 137 380t344 151q151 0 262 -76t161.5 -207.5t35.5 -294.5zM520 885
q-107 0 -180.5 -71.5t-99.5 -186.5h551q-9 108 -85 183t-186 75z" />
    <glyph glyph-name="Eogonek" unicode="&#x118;" horiz-adv-x="1251" 
d="M115 0v1434h1061v-189h-869v-442h725v-172h-725v-443h869v-188q-138 -53 -138 -147q0 -45 32.5 -71.5t78.5 -25.5t94 23v-170q-69 -30 -135.5 -30.5t-116.5 25.5t-81 79t-31 124q0 60 33.5 113.5t86.5 79.5h-884z" />
    <glyph glyph-name="eogonek" unicode="&#x119;" horiz-adv-x="1021" 
d="M39 518q0 229 137 380t344 151q151 0 262 -76t161.5 -207.5t35.5 -294.5h-750q12 -135 94 -225t197 -90q96 0 166.5 58.5t97.5 154.5h197q-28 -145 -134.5 -248.5t-252.5 -126.5q-121 -53 -121 -141q0 -45 32.5 -71.5t78.5 -25.5t94 23v-170q-69 -30 -135.5 -30.5
t-117 25.5t-81.5 79t-31 124q0 58 32.5 110.5t82.5 80.5q-169 34 -279 178.5t-110 341.5zM240 627h551q-9 108 -85 183t-186 75q-107 0 -180.5 -71.5t-99.5 -186.5z" />
    <glyph glyph-name="Ecaron" unicode="&#x11a;" horiz-adv-x="1251" 
d="M526 1892l164 -239l164 239h215l-276 -352h-205l-277 352h215zM1176 1245h-865v-442h721v-172h-721v-443h865v-188h-1061v1434h1061v-189z" />
    <glyph glyph-name="ecaron" unicode="&#x11b;" horiz-adv-x="1021" 
d="M362 1495l164 -240l164 240h215l-276 -352h-205l-277 352h215zM979 471h-750q12 -135 94 -225t197 -90q96 0 166.5 58.5t97.5 154.5h197q-31 -164 -161.5 -272.5t-299.5 -108.5q-132 0 -242.5 69t-174.5 191t-64 270q0 229 137 380t344 151q151 0 262 -76t161.5 -207.5
t35.5 -294.5zM520 885q-107 0 -180.5 -71.5t-99.5 -186.5h551q-9 108 -85 183t-186 75z" />
    <glyph glyph-name="Gcircumflex" unicode="&#x11c;" horiz-adv-x="1478" 
d="M737 1780l-164 -240h-215l277 352h205l276 -352h-215zM651 770h733v-770h-135l-22 266q-55 -103 -195.5 -190.5t-312.5 -87.5q-140 0 -264 54.5t-212.5 150t-140 231.5t-51.5 293q0 156 52.5 292t142.5 231.5t214.5 150.5t264.5 55q125 0 238 -43t196 -116.5t136 -174.5
t63 -213h-199q-18 161 -138.5 270t-295.5 109q-131 0 -238.5 -74t-169 -203t-61.5 -284q0 -156 60 -284.5t166 -202.5t237 -74q196 0 334.5 125.5t158.5 316.5h-561v172z" />
    <glyph glyph-name="gcircumflex" unicode="&#x11d;" horiz-adv-x="1089" 
d="M362 1143h-215l277 352h205l276 -352h-215l-164 239zM55 518q0 231 123 381t320 150q112 0 193.5 -52t125.5 -127v166h180v-1020q0 -109 -37 -193.5t-102 -136t-147.5 -78t-178.5 -26.5q-106 0 -194 30.5t-142 80t-82.5 108.5t-25.5 119h193q-2 -56 63.5 -113t187.5 -57
q57 0 106.5 15.5t90 47t64.5 86t24 126.5v139q-38 -67 -120.5 -115.5t-194.5 -48.5q-199 0 -323 144.5t-124 373.5zM252 516q0 -153 76.5 -246.5t201.5 -93.5q132 0 212.5 93t80.5 247q0 157 -82 256.5t-211 99.5q-124 0 -201 -99.5t-77 -256.5z" />
    <glyph glyph-name="Gbreve" unicode="&#x11e;" horiz-adv-x="1478" 
d="M733 1528q-128 0 -210.5 84.5t-76.5 218.5h168q-6 -68 28 -110t91 -42t91 42t28 110h168q6 -134 -76.5 -218.5t-210.5 -84.5zM651 770h733v-770h-135l-22 266q-55 -103 -195.5 -190.5t-312.5 -87.5q-140 0 -264 54.5t-212.5 150t-140 231.5t-51.5 293q0 156 52.5 292
t142.5 231.5t214.5 150.5t264.5 55q125 0 238 -43t196 -116.5t136 -174.5t63 -213h-199q-18 161 -138.5 270t-295.5 109q-131 0 -238.5 -74t-169 -203t-61.5 -284q0 -156 60 -284.5t166 -202.5t237 -74q196 0 334.5 125.5t158.5 316.5h-561v172z" />
    <glyph glyph-name="gbreve" unicode="&#x11f;" horiz-adv-x="1089" 
d="M516 1282q57 0 91 42t28 110h168q6 -134 -76.5 -219t-210.5 -85t-210.5 85t-76.5 219h168q-6 -68 28 -110t91 -42zM55 518q0 231 123 381t320 150q112 0 193.5 -52t125.5 -127v166h180v-1020q0 -109 -37 -193.5t-102 -136t-147.5 -78t-178.5 -26.5q-106 0 -194 30.5
t-142 80t-82.5 108.5t-25.5 119h193q-2 -56 63.5 -113t187.5 -57q57 0 106.5 15.5t90 47t64.5 86t24 126.5v139q-38 -67 -120.5 -115.5t-194.5 -48.5q-199 0 -323 144.5t-124 373.5zM252 516q0 -153 76.5 -246.5t201.5 -93.5q132 0 212.5 93t80.5 247q0 157 -82 256.5
t-211 99.5q-124 0 -201 -99.5t-77 -256.5z" />
    <glyph glyph-name="Gdotaccent" unicode="&#x120;" horiz-adv-x="1478" 
d="M850 1831v-229h-225v229h225zM651 770h733v-770h-135l-22 266q-55 -103 -195.5 -190.5t-312.5 -87.5q-140 0 -264 54.5t-212.5 150t-140 231.5t-51.5 293q0 156 52.5 292t142.5 231.5t214.5 150.5t264.5 55q125 0 238 -43t196 -116.5t136 -174.5t63 -213h-199
q-18 161 -138.5 270t-295.5 109q-131 0 -238.5 -74t-169 -203t-61.5 -284q0 -156 60 -284.5t166 -202.5t237 -74q196 0 334.5 125.5t158.5 316.5h-561v172z" />
    <glyph glyph-name="gdotaccent" unicode="&#x121;" horiz-adv-x="1089" 
d="M397 1434h226v-230h-226v230zM55 518q0 231 123 381t320 150q112 0 193.5 -52t125.5 -127v166h180v-1020q0 -109 -37 -193.5t-102 -136t-147.5 -78t-178.5 -26.5q-106 0 -194 30.5t-142 80t-82.5 108.5t-25.5 119h193q-2 -56 63.5 -113t187.5 -57q57 0 106.5 15.5t90 47
t64.5 86t24 126.5v139q-38 -67 -120.5 -115.5t-194.5 -48.5q-199 0 -323 144.5t-124 373.5zM252 516q0 -153 76.5 -246.5t201.5 -93.5q132 0 212.5 93t80.5 247q0 157 -82 256.5t-211 99.5q-124 0 -201 -99.5t-77 -256.5z" />
    <glyph glyph-name="uni0122" unicode="&#x122;" horiz-adv-x="1478" 
d="M651 770h733v-770h-135l-22 266q-55 -103 -195.5 -190.5t-312.5 -87.5q-140 0 -264 54.5t-212.5 150t-140 231.5t-51.5 293q0 156 52.5 292t142.5 231.5t214.5 150.5t264.5 55q125 0 238 -43t196 -116.5t136 -174.5t63 -213h-199q-18 161 -138.5 270t-295.5 109
q-131 0 -238.5 -74t-169 -203t-61.5 -284q0 -156 60 -284.5t166 -202.5t237 -74q196 0 334.5 125.5t158.5 316.5h-561v172zM842 -365q0 -24 -0.5 -35.5t-9 -33t-25.5 -33.5q-43 -32 -135 -18v90q71 -14 71 37v45h-127v229h226v-281z" />
    <glyph glyph-name="uni0123" unicode="&#x123;" horiz-adv-x="1089" 
d="M623 1163h-226v281v10v12t0.5 11t1.5 12.5t2.5 12t4 12.5t6 11.5t9 11.5t11.5 9q46 33 135 19v-90q-71 14 -71 -37v-45h127v-230zM55 518q0 231 123 381t320 150q112 0 193.5 -52t125.5 -127v166h180v-1020q0 -109 -37 -193.5t-102 -136t-147.5 -78t-178.5 -26.5
q-106 0 -194 30.5t-142 80t-82.5 108.5t-25.5 119h193q-2 -56 63.5 -113t187.5 -57q57 0 106.5 15.5t90 47t64.5 86t24 126.5v139q-38 -67 -120.5 -115.5t-194.5 -48.5q-199 0 -323 144.5t-124 373.5zM252 516q0 -153 76.5 -246.5t201.5 -93.5q132 0 212.5 93t80.5 247
q0 157 -82 256.5t-211 99.5q-124 0 -201 -99.5t-77 -256.5z" />
    <glyph glyph-name="Hcircumflex" unicode="&#x124;" horiz-adv-x="1353" 
d="M516 1540h-215l277 352h204l277 -352h-215l-164 240zM1042 1434h193v-1434h-193v631h-733v-631h-192v1434h192v-631h733v631z" />
    <glyph glyph-name="hcircumflex" unicode="&#x125;" 
d="M25 1540h-215l276 352h205l276 -352h-215l-164 240zM92 0v1434h180v-547q36 67 102 114.5t158 47.5q170 0 264.5 -93t94.5 -290v-666h-189v645q0 97 -56 153t-150 56q-97 0 -160.5 -58.5t-63.5 -160.5v-635h-180z" />
    <glyph glyph-name="Hbar" unicode="&#x126;" horiz-adv-x="1452" 
d="M-2 1051v163h170v220h192v-220h734v220h192v-220h168v-163h-168v-1051h-192v631h-734v-631h-192v1051h-170zM360 803h734v248h-734v-248z" />
    <glyph glyph-name="hbar" unicode="&#x127;" horiz-adv-x="1013" 
d="M-18 1155v160h151v119h180v-119h287v-160h-287v-268q36 67 102 114.5t158 47.5q170 0 264.5 -93t94.5 -290v-666h-189v645q0 97 -55.5 153t-150.5 56q-97 0 -160.5 -58.5t-63.5 -160.5v-635h-180v1155h-151z" />
    <glyph glyph-name="Itilde" unicode="&#x128;" horiz-adv-x="421" 
d="M-109 1577q-19 84 -3 145.5t61 96.5q44 33 98.5 35.5t108.5 -25.5l184 -94q31 -15 55 2q30 23 6 94h148q19 -84 3.5 -145.5t-60.5 -96.5q-44 -33 -98.5 -35.5t-108.5 25.5l-185 94q-13 7 -29 7t-26 -9q-30 -23 -6 -94h-148zM305 0h-188v1434h188v-1434z" />
    <glyph glyph-name="itilde" unicode="&#x129;" horiz-adv-x="368" 
d="M-145 1180q-19 84 -3.5 145t60.5 96q44 34 98.5 36.5t108.5 -25.5l184 -95q31 -15 55 2q31 24 7 95h147q19 -84 3.5 -145.5t-60.5 -96.5q-44 -33 -98.5 -35.5t-108.5 25.5l-185 94q-13 6 -29 6t-26 -8q-30 -23 -6 -94h-147zM94 0v1036h180v-1036h-180z" />
    <glyph glyph-name="Imacron" unicode="&#x12a;" horiz-adv-x="421" 
d="M561 1755v-160h-700v160h700zM305 0h-188v1434h188v-1434z" />
    <glyph glyph-name="imacron" unicode="&#x12b;" horiz-adv-x="368" 
d="M535 1358v-160h-701v160h701zM94 0v1036h180v-1036h-180z" />
    <glyph glyph-name="Ibreve" unicode="&#x12c;" horiz-adv-x="421" 
d="M217 1679q57 0 91 42t28 110h168q6 -134 -76.5 -218.5t-210.5 -84.5t-210.5 84.5t-76.5 218.5h168q-6 -68 28 -110t91 -42zM305 0h-188v1434h188v-1434z" />
    <glyph glyph-name="ibreve" unicode="&#x12d;" horiz-adv-x="368" 
d="M184 1282q57 0 91 42t28 110h168q6 -134 -76.5 -219t-210.5 -85t-210 84.5t-76 219.5h168q-6 -68 28 -110t90 -42zM94 0v1036h180v-1036h-180z" />
    <glyph glyph-name="Iogonek" unicode="&#x12e;" horiz-adv-x="421" 
d="M8 -193q0 59 34 112.5t87 80.5h-12v1434h188v-1434q-137 -53 -137 -147q0 -45 32.5 -71.5t78.5 -25.5t94 23v-170q-69 -30 -135.5 -30.5t-117 25.5t-81.5 79t-31 124z" />
    <glyph glyph-name="iogonek" unicode="&#x12f;" horiz-adv-x="368" 
d="M72 1204v230h225v-230h-225zM-23 -193q0 59 34 112.5t87 80.5h-4v1036h180v-1036q-137 -53 -137 -147q0 -45 32.5 -71.5t78.5 -25.5t94 23v-170q-69 -30 -135.5 -30.5t-117 25.5t-81.5 79t-31 124z" />
    <glyph glyph-name="Idotaccent" unicode="&#x130;" horiz-adv-x="421" 
d="M98 1831h226v-229h-226v229zM305 0h-188v1434h188v-1434z" />
    <glyph glyph-name="Jcircumflex" unicode="&#x134;" horiz-adv-x="548" 
d="M205 1540h-215l276 352h205l277 -352h-216l-163 240zM264 1434h189v-1133q0 -121 -20 -179t-93 -104q-104 -66 -305 -22v186q229 -59 229 117v1135z" />
    <glyph glyph-name="jcircumflex" unicode="&#x135;" horiz-adv-x="368" 
d="M18 1143h-215l277 352h205l276 -352h-215l-164 239zM94 1036h180v-1116q0 -118 -20.5 -175t-91.5 -107q-98 -68 -305 -23v182q118 -30 177.5 1.5t59.5 119.5v1118z" />
    <glyph glyph-name="uni0136" unicode="&#x136;" horiz-adv-x="1280" 
d="M1276 1434l-801 -711l801 -723h-320l-653 586v-586h-192v1434h192v-613l690 613h283zM494 -84h225v-281q0 -24 -0.5 -35.5t-9 -33t-25.5 -33.5q-43 -32 -135 -18v90q72 -15 72 37v45h-127v229z" />
    <glyph glyph-name="uni0137" unicode="&#x137;" horiz-adv-x="929" 
d="M932 0h-256l-406 451v-451h-180v1434h180v-787l344 389h254l-440 -487zM362 -84h226v-281q0 -24 -0.5 -35.5t-9 -33t-25.5 -33.5q-43 -32 -135 -18v90q71 -14 71 37v45h-127v229z" />
    <glyph glyph-name="Lacute" unicode="&#x139;" horiz-adv-x="1058" 
d="M530 2073l129 -127l-376 -357l-107 88zM311 188h697v-188h-893v1434h196v-1246z" />
    <glyph glyph-name="lacute" unicode="&#x13a;" horiz-adv-x="368" 
d="M473 2073l129 -127l-377 -357l-106 88zM274 0h-180v1434h180v-1434z" />
    <glyph glyph-name="uni013B" unicode="&#x13b;" horiz-adv-x="1058" 
d="M311 188h697v-188h-893v1434h196v-1246zM442 -84h226v-281q0 -24 -0.5 -35.5t-9 -33t-25.5 -33.5q-43 -32 -135 -18v90q71 -14 71 37v45h-127v229z" />
    <glyph glyph-name="uni013C" unicode="&#x13c;" horiz-adv-x="368" 
d="M274 0h-180v1434h180v-1434zM84 -102h199v-254q0 -34 -8.5 -57.5t-20.5 -35t-32.5 -16t-38.5 -3.5t-44 5v74q16 -2 23.5 -2.5t21 1t19.5 10t6 24.5v47h-125v207z" />
    <glyph glyph-name="Lcaron" unicode="&#x13d;" horiz-adv-x="1058" 
d="M311 188h697v-188h-893v1434h196v-1246zM537 1434h225v-281q0 -24 -0.5 -35.5t-9 -33t-25.5 -33.5q-44 -33 -135 -19v90q72 -15 72 37v45h-127v230z" />
    <glyph glyph-name="lcaron" unicode="&#x13e;" horiz-adv-x="368" 
d="M274 0h-180v1434h180v-1434zM367 1434h225v-281q0 -24 -0.5 -35.5t-9 -33t-25.5 -33.5q-44 -33 -135 -19v90q72 -15 72 37v45h-127v230z" />
    <glyph glyph-name="Ldot" unicode="&#x13f;" horiz-adv-x="1058" 
d="M311 188h697v-188h-893v1434h196v-1246zM537 739h225v-229h-225v229z" />
    <glyph glyph-name="ldot" unicode="&#x140;" horiz-adv-x="618" 
d="M274 0h-180v1434h180v-1434zM387 739h225v-229h-225v229z" />
    <glyph glyph-name="Lslash" unicode="&#x141;" horiz-adv-x="1126" 
d="M6 385v184l176 64v801h197v-729l491 180v-185l-491 -180v-332h696v-188h-893v449z" />
    <glyph glyph-name="lslash" unicode="&#x142;" horiz-adv-x="684" 
d="M6 385v184l176 64v801h180v-734l328 119v-184l-328 -119v-516h-180v449z" />
    <glyph glyph-name="Nacute" unicode="&#x143;" horiz-adv-x="1339" 
d="M981 2073l129 -127l-377 -357l-106 88zM1034 1434h193v-1434h-295l-627 1262v-1262h-192v1434h299l622 -1244v1244z" />
    <glyph glyph-name="nacute" unicode="&#x144;" 
d="M950 1548l-377 -356l-106 88l354 395zM532 1049q170 0 264.5 -93t94.5 -290v-666h-189v645q0 97 -56 153t-150 56q-97 0 -160.5 -58.5t-63.5 -160.5v-635h-180v1036h180v-149q36 67 102 114.5t158 47.5z" />
    <glyph glyph-name="uni0145" unicode="&#x145;" horiz-adv-x="1339" 
d="M1034 1434h193v-1434h-295l-627 1262v-1262h-192v1434h299l622 -1244v1244zM535 -84h225v-281q0 -24 -0.5 -35.5t-9 -33t-25.5 -33.5q-43 -32 -135 -18v90q72 -15 72 37v45h-127v229z" />
    <glyph glyph-name="uni0146" unicode="&#x146;" 
d="M532 1049q170 0 264.5 -93t94.5 -290v-666h-189v645q0 97 -56 153t-150 56q-97 0 -160.5 -58.5t-63.5 -160.5v-635h-180v1036h180v-149q36 67 102 114.5t158 47.5zM606 -365q0 -24 -0.5 -35.5t-9 -33t-25.5 -33.5q-43 -32 -135 -18v90q72 -15 72 37v45h-127v229h225v-281
z" />
    <glyph glyph-name="Ncaron" unicode="&#x147;" horiz-adv-x="1339" 
d="M547 1892l164 -239l163 239h216l-277 -352h-205l-276 352h215zM1034 1434h193v-1434h-295l-627 1262v-1262h-192v1434h299l622 -1244v1244z" />
    <glyph glyph-name="ncaron" unicode="&#x148;" 
d="M629 1143h-205l-277 352h215l164 -240l164 240h215zM532 1049q170 0 264.5 -93t94.5 -290v-666h-189v645q0 97 -56 153t-150 56q-97 0 -160.5 -58.5t-63.5 -160.5v-635h-180v1036h180v-149q36 67 102 114.5t158 47.5z" />
    <glyph glyph-name="Eng" unicode="&#x14a;" horiz-adv-x="1339" 
d="M113 0v1434h299l622 -1244v1244h193v-1534q0 -118 -21 -175.5t-92 -107.5q-98 -68 -305 -23v187q229 -59 229 117v102h-106l-627 1262v-1262h-192z" />
    <glyph glyph-name="eng" unicode="&#x14b;" 
d="M92 0v1036h180v-149q36 67 102 114.5t158 47.5q170 0 264.5 -93t94.5 -290v-746q0 -115 -22.5 -173t-94.5 -109q-98 -68 -305 -23v182q118 -30 178 1.5t60 119.5v727q0 97 -58 153t-153 56q-97 0 -160.5 -58.5t-63.5 -160.5v-635h-180z" />
    <glyph glyph-name="Omacron" unicode="&#x14c;" horiz-adv-x="1435" 
d="M1077 1755v-160h-700v160h700zM719 1446q140 0 263.5 -54.5t211.5 -150t139 -231.5t51 -293t-51 -293t-139 -231.5t-211.5 -150t-263.5 -54.5q-141 0 -264.5 54.5t-212.5 150t-140 231.5t-51 293t51 293t140 231.5t212.5 150t264.5 54.5zM719 156q98 0 184 43.5
t146.5 118.5t95.5 178.5t35 220.5t-35 220.5t-95.5 178.5t-146.5 118.5t-184 43.5q-131 0 -237 -74t-166 -202.5t-60 -284.5t60 -284.5t166 -202.5t237 -74z" />
    <glyph glyph-name="omacron" unicode="&#x14d;" horiz-adv-x="1044" 
d="M879 1358v-160h-701v160h701zM522 1049q134 0 244.5 -69t174 -191t63.5 -271q0 -225 -139.5 -377.5t-342.5 -152.5t-342 152.5t-139 377.5q0 227 138.5 379t342.5 152zM522 152q130 0 211.5 105.5t81.5 260.5q0 157 -81.5 262t-211.5 105t-211.5 -105t-81.5 -262
q0 -155 81.5 -260.5t211.5 -105.5z" />
    <glyph glyph-name="Obreve" unicode="&#x14e;" horiz-adv-x="1435" 
d="M721 1679q57 0 91 42t28 110h168q6 -134 -76.5 -218.5t-210.5 -84.5t-210.5 84.5t-76.5 218.5h168q-6 -68 28 -110t91 -42zM719 1446q140 0 263.5 -54.5t211.5 -150t139 -231.5t51 -293t-51 -293t-139 -231.5t-211.5 -150t-263.5 -54.5q-141 0 -264.5 54.5t-212.5 150
t-140 231.5t-51 293t51 293t140 231.5t212.5 150t264.5 54.5zM719 156q98 0 184 43.5t146.5 118.5t95.5 178.5t35 220.5t-35 220.5t-95.5 178.5t-146.5 118.5t-184 43.5q-131 0 -237 -74t-166 -202.5t-60 -284.5t60 -284.5t166 -202.5t237 -74z" />
    <glyph glyph-name="obreve" unicode="&#x14f;" horiz-adv-x="1044" 
d="M526 1282q57 0 91 42t28 110h168q6 -134 -76.5 -219t-210.5 -85t-210 84.5t-76 219.5h168q-6 -68 28 -110t90 -42zM522 1049q134 0 244.5 -69t174 -191t63.5 -271q0 -225 -139.5 -377.5t-342.5 -152.5t-342 152.5t-139 377.5q0 227 138.5 379t342.5 152zM522 152
q130 0 211.5 105.5t81.5 260.5q0 157 -81.5 262t-211.5 105t-211.5 -105t-81.5 -262q0 -155 81.5 -260.5t211.5 -105.5z" />
    <glyph glyph-name="Ohungarumlaut" unicode="&#x150;" horiz-adv-x="1435" 
d="M834 2073l129 -127l-377 -357l-107 88zM1192 2073l129 -127l-377 -357l-106 88zM719 1446q140 0 263.5 -54.5t211.5 -150t139 -231.5t51 -293t-51 -293t-139 -231.5t-211.5 -150t-263.5 -54.5q-141 0 -264.5 54.5t-212.5 150t-140 231.5t-51 293t51 293t140 231.5
t212.5 150t264.5 54.5zM719 156q98 0 184 43.5t146.5 118.5t95.5 178.5t35 220.5t-35 220.5t-95.5 178.5t-146.5 118.5t-184 43.5q-131 0 -237 -74t-166 -202.5t-60 -284.5t60 -284.5t166 -202.5t237 -74z" />
    <glyph glyph-name="ohungarumlaut" unicode="&#x151;" horiz-adv-x="1044" 
d="M629 1675l129 -127l-377 -356l-107 88zM987 1675l129 -127l-377 -356l-106 88zM522 1049q134 0 244.5 -69t174 -191t63.5 -271q0 -225 -139.5 -377.5t-342.5 -152.5t-342 152.5t-139 377.5q0 227 138.5 379t342.5 152zM522 152q130 0 211.5 105.5t81.5 260.5
q0 157 -81.5 262t-211.5 105t-211.5 -105t-81.5 -262q0 -155 81.5 -260.5t211.5 -105.5z" />
    <glyph glyph-name="OE" unicode="&#x152;" horiz-adv-x="2316" 
d="M51 717q0 157 51 293t140 231.5t212.5 150t264.5 54.5q273 0 461 -191v179h1061v-189h-865v-405l4 -37h717v-172h-717l-4 -37v-406h865v-188h-1061v178q-187 -190 -461 -190q-141 0 -264.5 54.5t-212.5 150t-140 231.5t-51 293zM256 717q0 -156 60 -284.5t166 -202.5
t237 -74q98 0 184 43.5t146.5 118.5t95.5 178.5t35 220.5t-35 220.5t-95.5 178.5t-146.5 118.5t-184 43.5q-131 0 -237 -74t-166 -202.5t-60 -284.5z" />
    <glyph glyph-name="oe" unicode="&#x153;" horiz-adv-x="1798" 
d="M41 518q0 227 138.5 379t342.5 152q119 0 219.5 -55t167.5 -152q64 97 165 152t222 55q151 0 262 -76t161.5 -207.5t35.5 -294.5h-749q12 -135 94 -225t196 -90q96 0 167 58.5t98 154.5h196q-31 -164 -161.5 -272.5t-299.5 -108.5q-118 0 -219 56t-168 155
q-65 -98 -167 -154.5t-220 -56.5q-203 0 -342 152.5t-139 377.5zM229 518q0 -155 81.5 -260.5t211.5 -105.5t211.5 105.5t81.5 260.5q0 157 -81.5 262t-211.5 105t-211.5 -105t-81.5 -262zM1016 627h551q-9 108 -85 183t-186 75q-107 0 -180.5 -71.5t-99.5 -186.5z" />
    <glyph glyph-name="Racute" unicode="&#x154;" horiz-adv-x="1271" 
d="M1069 1946l-377 -357l-106 88l354 396zM946 713q64 -19 102.5 -52.5t61.5 -103.5t27 -184q6 -176 16.5 -261.5t32.5 -111.5h-219q-6 10 -9.5 27.5t-6 53t-4 62t-3.5 91.5t-4 104q-4 91 -27 151.5t-63.5 90t-83 40.5t-100.5 11h-355v-631h-196v1434h678q199 0 304 -97
t105 -288q0 -131 -72 -217t-184 -119zM782 795q107 0 165.5 65t58.5 170q0 113 -63.5 172.5t-180.5 59.5h-451v-467h471z" />
    <glyph glyph-name="racute" unicode="&#x155;" horiz-adv-x="671" 
d="M745 1548l-376 -356l-107 88l354 395zM270 887q39 65 113.5 113.5t167.5 48.5q37 0 90 -11v-223q-63 39 -147 39q-94 0 -159 -64t-65 -155v-635h-180v1036h180v-149z" />
    <glyph glyph-name="uni0156" unicode="&#x156;" horiz-adv-x="1271" 
d="M946 713q64 -19 102.5 -52.5t61.5 -103.5t27 -184q6 -176 16.5 -261.5t32.5 -111.5h-219q-6 10 -9.5 27.5t-6 53t-4 62t-3.5 91.5t-4 104q-4 91 -27 151.5t-63.5 90t-83 40.5t-100.5 11h-355v-631h-196v1434h678q199 0 304 -97t105 -288q0 -131 -72 -217t-184 -119z
M782 795q107 0 165.5 65t58.5 170q0 113 -63.5 172.5t-180.5 59.5h-451v-467h471zM760 -365q0 -24 -0.5 -35.5t-9 -33t-25.5 -33.5q-43 -32 -135 -18v90q72 -15 72 37v45h-127v229h225v-281z" />
    <glyph glyph-name="uni0157" unicode="&#x157;" horiz-adv-x="671" 
d="M551 1049q37 0 90 -11v-223q-63 39 -147 39q-94 0 -159 -64t-65 -155v-635h-180v1036h180v-149q39 65 113.5 113.5t167.5 48.5zM293 -365q0 -24 -0.5 -35.5t-9 -33t-25.5 -33.5q-43 -32 -135 -18v90q72 -15 72 37v45h-127v229h225v-281z" />
    <glyph glyph-name="Rcaron" unicode="&#x158;" horiz-adv-x="1271" 
d="M752 1540h-205l-277 352h215l164 -239l164 239h215zM946 713q64 -19 102.5 -52.5t61.5 -103.5t27 -184q6 -176 16.5 -261.5t32.5 -111.5h-219q-6 10 -9.5 27.5t-6 53t-4 62t-3.5 91.5t-4 104q-4 91 -27 151.5t-63.5 90t-83 40.5t-100.5 11h-355v-631h-196v1434h678
q199 0 304 -97t105 -288q0 -131 -72 -217t-184 -119zM782 795q107 0 165.5 65t58.5 170q0 113 -63.5 172.5t-180.5 59.5h-451v-467h471z" />
    <glyph glyph-name="rcaron" unicode="&#x159;" horiz-adv-x="671" 
d="M444 1143h-204l-277 352h215l164 -240l164 240h215zM270 887q39 65 113.5 113.5t167.5 48.5q37 0 90 -11v-223q-63 39 -147 39q-94 0 -159 -64t-65 -155v-635h-180v1036h180v-149z" />
    <glyph glyph-name="Sacute" unicode="&#x15a;" horiz-adv-x="1300" 
d="M961 2073l129 -127l-377 -357l-107 88zM397 889l424 -162q13 -5 46.5 -17.5t50 -19t47.5 -20.5t47.5 -26.5t40.5 -31.5t37.5 -41t27 -49.5t19.5 -62.5t6 -76q0 -75 -34.5 -145t-97.5 -126t-163 -90t-221 -34q-168 0 -300.5 67.5t-207 195t-70.5 292.5h197
q-4 -114 48.5 -204t141 -136.5t195.5 -46.5q133 0 222 60t89 155q0 33 -16.5 60.5t-48 47.5t-55.5 31t-60 25l-424 157q-144 54 -208 130t-64 204q0 179 148.5 299.5t412.5 120.5q145 0 264.5 -50t197.5 -135.5t117.5 -201t30.5 -246.5h-193q5 90 -19.5 173t-75 148.5
t-134 104.5t-188.5 39q-156 0 -258.5 -64.5t-102.5 -175.5q0 -52 31.5 -87t99.5 -62z" />
    <glyph glyph-name="sacute" unicode="&#x15b;" horiz-adv-x="958" 
d="M780 1675l129 -127l-377 -356l-106 88zM297 664l297 -115q7 -3 37.5 -14t42.5 -15.5t39 -18t39.5 -24.5t32 -31t28.5 -41.5t16 -51.5t7 -66q0 -128 -109 -213.5t-276 -85.5q-196 0 -316 115t-108 292h190q-12 -101 58 -172t180 -71q81 0 133.5 34.5t52.5 87.5
q0 58 -106 95l-293 110q-110 42 -158.5 100t-48.5 154q0 136 117 226t299 90q216 0 352.5 -128t118.5 -329h-193q12 133 -66.5 213t-211.5 80q-96 0 -160 -39t-64 -98q0 -58 70 -84z" />
    <glyph glyph-name="Scircumflex" unicode="&#x15c;" horiz-adv-x="1300" 
d="M492 1540h-216l277 352h205l276 -352h-215l-164 240zM397 889l424 -162q13 -5 46.5 -17.5t50 -19t47.5 -20.5t47.5 -26.5t40.5 -31.5t37.5 -41t27 -49.5t19.5 -62.5t6 -76q0 -75 -34.5 -145t-97.5 -126t-163 -90t-221 -34q-168 0 -300.5 67.5t-207 195t-70.5 292.5h197
q-4 -114 48.5 -204t141 -136.5t195.5 -46.5q133 0 222 60t89 155q0 33 -16.5 60.5t-48 47.5t-55.5 31t-60 25l-424 157q-144 54 -208 130t-64 204q0 179 148.5 299.5t412.5 120.5q145 0 264.5 -50t197.5 -135.5t117.5 -201t30.5 -246.5h-193q5 90 -19.5 173t-75 148.5
t-134 104.5t-188.5 39q-156 0 -258.5 -64.5t-102.5 -175.5q0 -52 31.5 -87t99.5 -62z" />
    <glyph glyph-name="scircumflex" unicode="&#x15d;" horiz-adv-x="958" 
d="M322 1143h-216l277 352h205l276 -352h-215l-164 239zM297 664l297 -115q7 -3 37.5 -14t42.5 -15.5t39 -18t39.5 -24.5t32 -31t28.5 -41.5t16 -51.5t7 -66q0 -128 -109 -213.5t-276 -85.5q-196 0 -316 115t-108 292h190q-12 -101 58 -172t180 -71q81 0 133.5 34.5
t52.5 87.5q0 58 -106 95l-293 110q-110 42 -158.5 100t-48.5 154q0 136 117 226t299 90q216 0 352.5 -128t118.5 -329h-193q12 133 -66.5 213t-211.5 80q-96 0 -160 -39t-64 -98q0 -58 70 -84z" />
    <glyph glyph-name="Scedilla" unicode="&#x15e;" horiz-adv-x="1300" 
d="M49 543h197q-4 -114 48.5 -204t141 -136.5t195.5 -46.5q133 0 222 60t89 155q0 33 -16.5 60.5t-48 47.5t-55.5 31t-60 25l-424 157q-144 54 -208 130t-64 204q0 179 148.5 299.5t412.5 120.5q145 0 264.5 -50t197.5 -135.5t117.5 -201t30.5 -246.5h-193q5 90 -19.5 173
t-75 148.5t-134 104.5t-188.5 39q-156 0 -258.5 -64.5t-102.5 -175.5q0 -52 31.5 -87t99.5 -62l424 -162q13 -5 46.5 -17.5t50 -19t47.5 -20.5t47.5 -26.5t40.5 -31.5t37.5 -41t27 -49.5t19.5 -62.5t6 -76q0 -71 -31.5 -139t-90.5 -123t-151 -91t-204 -42l-21 -54
q78 9 131 -35t53 -128q0 -81 -57.5 -133t-140.5 -52q-43 0 -84.5 19t-61.5 49v125l7 2q43 -80 129 -80q36 0 65 21t29 59q0 54 -47 72q-20 8 -49 6.5t-50 -13.5l-30 29l39 115q-238 15 -386.5 165.5t-142.5 387.5z" />
    <glyph glyph-name="scedilla" unicode="&#x15f;" horiz-adv-x="958" 
d="M27 395h190q-12 -101 58 -172t180 -71q81 0 133.5 34.5t52.5 87.5q0 58 -106 95l-293 110q-110 42 -158.5 100t-48.5 154q0 136 117 226t299 90q216 0 352.5 -128t118.5 -329h-193q12 133 -66.5 213t-211.5 80q-96 0 -160 -39t-64 -98q0 -58 70 -84l297 -115
q7 -3 37.5 -14t42.5 -15.5t39 -18t39.5 -24.5t32 -31t28.5 -41.5t16 -51.5t7 -66q0 -122 -100 -206t-255 -93l-20 -54q78 9 131 -35t53 -128q0 -80 -58 -132.5t-141 -52.5q-43 0 -84 19t-61 49v125l6 2q43 -80 129 -80q36 0 65 21t29 59q0 54 -47 72q-20 8 -48.5 6.5
t-49.5 -13.5l-31 29l39 115q-173 19 -274.5 130.5t-91.5 274.5z" />
    <glyph glyph-name="Scaron" unicode="&#x160;" horiz-adv-x="1300" 
d="M506 1892l164 -239l164 239h215l-277 -352h-205l-276 352h215zM397 889l424 -162q13 -5 46.5 -17.5t50 -19t47.5 -20.5t47.5 -26.5t40.5 -31.5t37.5 -41t27 -49.5t19.5 -62.5t6 -76q0 -75 -34.5 -145t-97.5 -126t-163 -90t-221 -34q-168 0 -300.5 67.5t-207 195
t-70.5 292.5h197q-4 -114 48.5 -204t141 -136.5t195.5 -46.5q133 0 222 60t89 155q0 33 -16.5 60.5t-48 47.5t-55.5 31t-60 25l-424 157q-144 54 -208 130t-64 204q0 179 148.5 299.5t412.5 120.5q145 0 264.5 -50t197.5 -135.5t117.5 -201t30.5 -246.5h-193q5 90 -19.5 173
t-75 148.5t-134 104.5t-188.5 39q-156 0 -258.5 -64.5t-102.5 -175.5q0 -52 31.5 -87t99.5 -62z" />
    <glyph glyph-name="scaron" unicode="&#x161;" horiz-adv-x="958" 
d="M322 1495l163 -240l164 240h215l-276 -352h-205l-277 352h216zM297 664l297 -115q7 -3 37.5 -14t42.5 -15.5t39 -18t39.5 -24.5t32 -31t28.5 -41.5t16 -51.5t7 -66q0 -128 -109 -213.5t-276 -85.5q-196 0 -316 115t-108 292h190q-12 -101 58 -172t180 -71
q81 0 133.5 34.5t52.5 87.5q0 58 -106 95l-293 110q-110 42 -158.5 100t-48.5 154q0 136 117 226t299 90q216 0 352.5 -128t118.5 -329h-193q12 133 -66.5 213t-211.5 80q-96 0 -160 -39t-64 -98q0 -58 70 -84z" />
    <glyph glyph-name="Tcaron" unicode="&#x164;" horiz-adv-x="1212" 
d="M444 1892l164 -239l164 239h215l-276 -352h-205l-277 352h215zM1176 1434v-181h-471v-1253h-197v1253h-471v181h1139z" />
    <glyph glyph-name="tcaron" unicode="&#x165;" horiz-adv-x="634" 
d="M602 1434h225v-281v-6q1 -71 -34 -96q-44 -33 -136 -19v90q72 -15 72 37v45h-127v230zM29 877v159h159v275h181v-275h217v-159h-217v-580q0 -84 48 -117t169 -8v-184q-184 -40 -291 20q-63 35 -85 101t-22 184v584h-159z" />
    <glyph glyph-name="Tbar" unicode="&#x166;" horiz-adv-x="1212" 
d="M37 1253v181h1139v-181h-471v-260h329v-172h-329v-821h-197v821h-330v172h330v260h-471z" />
    <glyph glyph-name="tbar" unicode="&#x167;" horiz-adv-x="634" 
d="M29 557v160h159v160h-159v159h159v275h181v-275h217v-159h-217v-160h217v-160h-217v-260q0 -84 48 -117t169 -8v-184q-184 -40 -291 20q-63 35 -85 101t-22 184v264h-159z" />
    <glyph glyph-name="Utilde" unicode="&#x168;" horiz-adv-x="1318" 
d="M352 1577q-19 84 -3 145.5t61 96.5q91 69 206 10l185 -94q31 -15 55 2q30 23 6 94h148q19 -84 3 -145.5t-61 -96.5q-44 -33 -98.5 -35.5t-108.5 25.5l-184 94q-13 7 -29 7t-26 -9q-30 -23 -6 -94h-148zM1024 1434h197v-940q0 -157 -76 -273.5t-202.5 -174.5t-283.5 -58
t-283 58t-202 174.5t-76 273.5v940h197v-940q0 -159 103 -248.5t261 -89.5t261.5 89.5t103.5 248.5v940z" />
    <glyph glyph-name="utilde" unicode="&#x169;" 
d="M303 1180h-147q-19 84 -3.5 145t60.5 96q44 34 98.5 36.5t108.5 -25.5l184 -95q31 -15 55 2q31 24 7 95h147q19 -84 3.5 -145.5t-60.5 -96.5q-44 -33 -98.5 -35.5t-108.5 25.5l-184 94q-13 6 -29.5 6t-26.5 -8q-30 -23 -6 -94zM700 1036h181v-1036h-181v150
q-36 -67 -102 -114.5t-158 -47.5q-170 0 -264 93t-94 290v665h188v-645q0 -97 56 -153t151 -56q97 0 160 58t63 161v635z" />
    <glyph glyph-name="Umacron" unicode="&#x16a;" horiz-adv-x="1318" 
d="M1026 1755v-160h-700v160h700zM1024 1434h197v-940q0 -157 -76 -273.5t-202.5 -174.5t-283.5 -58t-283 58t-202 174.5t-76 273.5v940h197v-940q0 -159 103 -248.5t261 -89.5t261.5 89.5t103.5 248.5v940z" />
    <glyph glyph-name="umacron" unicode="&#x16b;" 
d="M846 1358v-160h-701v160h701zM700 1036h181v-1036h-181v150q-36 -67 -102 -114.5t-158 -47.5q-170 0 -264 93t-94 290v665h188v-645q0 -97 56 -153t151 -56q97 0 160 58t63 161v635z" />
    <glyph glyph-name="Ubreve" unicode="&#x16c;" horiz-adv-x="1318" 
d="M651 1679q57 0 91 42t28 110h168q6 -134 -76.5 -218.5t-210.5 -84.5t-210 84.5t-76 218.5h167q-6 -68 28 -110t91 -42zM1024 1434h197v-940q0 -157 -76 -273.5t-202.5 -174.5t-283.5 -58t-283 58t-202 174.5t-76 273.5v940h197v-940q0 -159 103 -248.5t261 -89.5
t261.5 89.5t103.5 248.5v940z" />
    <glyph glyph-name="ubreve" unicode="&#x16d;" 
d="M475 1130q-128 0 -210.5 85t-76.5 219h168q-6 -68 28 -110t91 -42t91 42t28 110h168q6 -134 -76.5 -219t-210.5 -85zM700 1036h181v-1036h-181v150q-36 -67 -102 -114.5t-158 -47.5q-170 0 -264 93t-94 290v665h188v-645q0 -97 56 -153t151 -56q97 0 160 58t63 161v635z
" />
    <glyph glyph-name="Uring" unicode="&#x16e;" horiz-adv-x="1318" 
d="M670 2028q101 0 169 -71.5t68 -178.5q0 -106 -68.5 -178t-168.5 -72t-169 72t-69 178q0 107 68.5 178.5t169.5 71.5zM670 1649q44 0 75 37.5t31 91.5q0 53 -31 91t-75 38q-45 0 -77 -38t-32 -91q0 -54 31.5 -91.5t77.5 -37.5zM1024 1434h197v-940q0 -157 -76 -273.5
t-202.5 -174.5t-283.5 -58t-283 58t-202 174.5t-76 273.5v940h197v-940q0 -159 103 -248.5t261 -89.5t261.5 89.5t103.5 248.5v940z" />
    <glyph glyph-name="uring" unicode="&#x16f;" 
d="M489 1130q-100 0 -168.5 72t-68.5 178q0 107 68 178.5t169 71.5t169.5 -71.5t68.5 -178.5q0 -106 -69 -178t-169 -72zM489 1509q-45 0 -76.5 -38t-31.5 -91q0 -54 31 -91.5t77 -37.5q44 0 75.5 37.5t31.5 91.5q0 53 -31.5 91t-75.5 38zM700 1036h181v-1036h-181v150
q-36 -67 -102 -114.5t-158 -47.5q-170 0 -264 93t-94 290v665h188v-645q0 -97 56 -153t151 -56q97 0 160 58t63 161v635z" />
    <glyph glyph-name="Uhungarumlaut" unicode="&#x170;" horiz-adv-x="1318" 
d="M772 2073l129 -127l-377 -357l-106 88zM1130 2073l130 -127l-377 -357l-107 88zM1024 1434h197v-940q0 -157 -76 -273.5t-202.5 -174.5t-283.5 -58t-283 58t-202 174.5t-76 273.5v940h197v-940q0 -159 103 -248.5t261 -89.5t261.5 89.5t103.5 248.5v940z" />
    <glyph glyph-name="uhungarumlaut" unicode="&#x171;" 
d="M717 1548l-377 -356l-107 88l355 395zM698 1192l-106 88l354 395l129 -127zM700 401v635h181v-1036h-181v150q-36 -67 -102 -114.5t-158 -47.5q-170 0 -264 93t-94 290v665h188v-645q0 -97 56 -153t151 -56q97 0 160 58t63 161z" />
    <glyph glyph-name="Uogonek" unicode="&#x172;" horiz-adv-x="1318" 
d="M98 494v940h197v-940q0 -159 103 -248.5t261 -89.5t261.5 89.5t103.5 248.5v940h197v-940q0 -144 -65 -255t-174 -172t-249 -75q-117 -53 -117 -139q0 -45 32.5 -71.5t78.5 -25.5t94 23v-170q-69 -30 -135.5 -30.5t-116.5 25.5t-81 79t-31 124q0 56 30 107.5t78 79.5
q-207 26 -337 157.5t-130 342.5z" />
    <glyph glyph-name="uogonek" unicode="&#x173;" 
d="M82 371v665h188v-645q0 -97 56 -153t151 -56q97 0 160 58t63 161v635h181v-1036q-138 -53 -138 -147q0 -45 32.5 -71.5t78.5 -25.5t94 23v-170q-69 -30 -135.5 -30.5t-116.5 25.5t-81 79t-31 124q0 59 34 112.5t87 80.5h-5v150q-36 -67 -102 -114.5t-158 -47.5
q-170 0 -264 93t-94 290z" />
    <glyph glyph-name="Wcircumflex" unicode="&#x174;" horiz-adv-x="1921" 
d="M795 1540h-215l276 352h205l276 -352h-215l-164 240zM1694 1434h215l-348 -1434h-295l-305 1249l-308 -1249h-293l-348 1434h215l285 -1264l315 1264h265l315 -1264z" />
    <glyph glyph-name="wcircumflex" unicode="&#x175;" horiz-adv-x="1611" 
d="M649 1143h-215l277 352h204l277 -352h-215l-164 239zM4 1036h213l234 -864l254 864h202l254 -864l234 864h213l-326 -1036h-227l-250 852l-250 -852h-227z" />
    <glyph glyph-name="Ycircumflex" unicode="&#x176;" horiz-adv-x="1253" 
d="M471 1540h-215l276 352h205l277 -352h-215l-164 240zM997 1434h246l-518 -842v-592h-197v592l-518 842h246l371 -646z" />
    <glyph glyph-name="ycircumflex" unicode="&#x177;" horiz-adv-x="993" 
d="M342 1143h-215l276 352h205l277 -352h-215l-164 239zM4 1036h213l281 -843l278 843h213l-399 -1116q-5 -14 -17.5 -49.5t-18 -49t-17 -41t-21 -42t-23.5 -34.5t-31 -35.5t-38 -30.5q-49 -34 -115 -40t-157 9v180q50 -12 86.5 -12.5t61.5 7t44 28t31 45t26 63.5l2 4z" />
    <glyph glyph-name="Ydieresis" unicode="&#x178;" horiz-adv-x="1253" 
d="M342 1831h225v-229h-225v229zM680 1831h225v-229h-225v229zM997 1434h246l-518 -842v-592h-197v592l-518 842h246l371 -646z" />
    <glyph glyph-name="Zacute" unicode="&#x179;" horiz-adv-x="1337" 
d="M961 2073l129 -127l-377 -357l-107 88zM1276 1434v-199l-967 -1055h971v-180h-1223l-4 199l973 1054h-973v181h1223z" />
    <glyph glyph-name="zacute" unicode="&#x17a;" horiz-adv-x="997" 
d="M801 1675l129 -127l-377 -356l-107 88zM952 1036v-174l-641 -682h631v-180h-887l-2 174l641 682h-631v180h889z" />
    <glyph glyph-name="Zdotaccent" unicode="&#x17b;" horiz-adv-x="1337" 
d="M563 1831h225v-229h-225v229zM1276 1434v-199l-967 -1055h971v-180h-1223l-4 199l973 1054h-973v181h1223z" />
    <glyph glyph-name="zdotaccent" unicode="&#x17c;" horiz-adv-x="997" 
d="M418 1434h225v-230h-225v230zM952 1036v-174l-641 -682h631v-180h-887l-2 174l641 682h-631v180h889z" />
    <glyph glyph-name="Zcaron" unicode="&#x17d;" horiz-adv-x="1337" 
d="M516 1892l164 -239l164 239h215l-277 -352h-204l-277 352h215zM1276 1434v-199l-967 -1055h971v-180h-1223l-4 199l973 1054h-973v181h1223z" />
    <glyph glyph-name="zcaron" unicode="&#x17e;" horiz-adv-x="997" 
d="M362 1495l164 -240l164 240h215l-276 -352h-205l-277 352h215zM952 1036v-174l-641 -682h631v-180h-887l-2 174l641 682h-631v180h889z" />
    <glyph glyph-name="uni0218" unicode="&#x218;" horiz-adv-x="1300" 
d="M397 889l424 -162q13 -5 46.5 -17.5t50 -19t47.5 -20.5t47.5 -26.5t40.5 -31.5t37.5 -41t27 -49.5t19.5 -62.5t6 -76q0 -75 -34.5 -145t-97.5 -126t-163 -90t-221 -34q-168 0 -300.5 67.5t-207 195t-70.5 292.5h197q-4 -114 48.5 -204t141 -136.5t195.5 -46.5
q133 0 222 60t89 155q0 33 -16.5 60.5t-48 47.5t-55.5 31t-60 25l-424 157q-144 54 -208 130t-64 204q0 179 148.5 299.5t412.5 120.5q145 0 264.5 -50t197.5 -135.5t117.5 -201t30.5 -246.5h-193q5 90 -19.5 173t-75 148.5t-134 104.5t-188.5 39q-156 0 -258.5 -64.5
t-102.5 -175.5q0 -52 31.5 -87t99.5 -62zM498 -84h225v-281q0 -24 -0.5 -35.5t-9 -33t-25.5 -33.5q-43 -32 -135 -18v90q72 -15 72 37v45h-127v229z" />
    <glyph glyph-name="uni0219" unicode="&#x219;" horiz-adv-x="958" 
d="M297 664l297 -115q7 -3 37.5 -14t42.5 -15.5t39 -18t39.5 -24.5t32 -31t28.5 -41.5t16 -51.5t7 -66q0 -128 -109 -213.5t-276 -85.5q-196 0 -316 115t-108 292h190q-12 -101 58 -172t180 -71q81 0 133.5 34.5t52.5 87.5q0 58 -106 95l-293 110q-110 42 -158.5 100
t-48.5 154q0 136 117 226t299 90q216 0 352.5 -128t118.5 -329h-193q12 133 -66.5 213t-211.5 80q-96 0 -160 -39t-64 -98q0 -58 70 -84zM332 -84h225v-281q0 -24 -0.5 -35.5t-9 -33t-25.5 -33.5q-43 -32 -135 -18v90q72 -15 72 37v45h-127v229z" />
    <glyph glyph-name="uni021A" unicode="&#x21a;" horiz-adv-x="1212" 
d="M1176 1434v-181h-471v-1253h-197v1253h-471v181h1139zM492 -84h225v-281q0 -24 -0.5 -35.5t-9 -33t-25.5 -33.5q-43 -32 -135 -18v90q71 -14 71 37v45h-126v229z" />
    <glyph glyph-name="uni021B" unicode="&#x21b;" horiz-adv-x="634" 
d="M29 877v159h159v275h181v-275h217v-159h-217v-580q0 -84 48 -117t169 -8v-184q-184 -40 -291 20q-63 35 -85 101t-22 184v584h-159zM281 -84h225v-281q0 -24 -0.5 -35.5t-9 -33t-25.5 -33.5q-43 -32 -135 -18v90q72 -15 72 37v45h-127v229z" />
    <glyph glyph-name="uni0226" unicode="&#x226;" horiz-adv-x="1388" 
d="M584 1831h225v-229h-225v229zM1178 0l-177 451h-620l-176 -451h-197l553 1434h262l551 -1434h-196zM449 618h487l-244 660z" />
    <glyph glyph-name="uni0227" unicode="&#x227;" horiz-adv-x="985" 
d="M397 1434h226v-230h-226v230zM41 629q-7 193 118.5 306.5t346.5 113.5q125 0 222 -42t149 -120q53 -82 53 -211q-2 -135 -2 -438q0 -182 8 -234h-180q-6 44 -6 119q-58 -59 -142 -97t-176 -38q-162 0 -254 87.5t-92 237.5q0 53 16 96.5t44 74.5t71.5 56t91 41.5
t110.5 30.5t122.5 24t134.5 21q49 7 74 11q0 213 -244 213q-136 0 -207 -65t-66 -187h-192zM270 307q0 -74 51 -114.5t130 -40.5q140 0 225.5 93.5t75.5 260.5q-48 -9 -114 -19t-105.5 -16t-87.5 -16t-75 -21.5t-52.5 -28.5t-36.5 -41.5t-11 -56.5z" />
    <glyph glyph-name="uni0232" unicode="&#x232;" horiz-adv-x="1253" 
d="M995 1755v-160h-700v160h700zM997 1434h246l-518 -842v-592h-197v592l-518 842h246l371 -646z" />
    <glyph glyph-name="uni0233" unicode="&#x233;" horiz-adv-x="993" 
d="M846 1358v-160h-701v160h701zM4 1036h213l281 -843l278 843h213l-399 -1116q-5 -14 -17.5 -49.5t-18 -49t-17 -41t-21 -42t-23.5 -34.5t-31 -35.5t-38 -30.5q-49 -34 -115 -40t-157 9v180q50 -12 86.5 -12.5t61.5 7t44 28t31 45t26 63.5l2 4z" />
    <glyph glyph-name="circumflex" unicode="&#x2c6;" horiz-adv-x="1093" 
d="M383 1143h-215l276 352h205l277 -352h-215l-164 239z" />
    <glyph glyph-name="caron" unicode="&#x2c7;" horiz-adv-x="1093" 
d="M383 1495l164 -240l164 240h215l-277 -352h-205l-276 352h215z" />
    <glyph glyph-name="breve" unicode="&#x2d8;" horiz-adv-x="995" 
d="M537 1282q56 0 90 42t28 110h168q6 -135 -76 -219.5t-210 -84.5t-210.5 85t-76.5 219h168q-6 -68 28 -110t91 -42z" />
    <glyph glyph-name="dotaccent" unicode="&#x2d9;" horiz-adv-x="970" 
d="M373 1434h225v-230h-225v230z" />
    <glyph glyph-name="ring" unicode="&#x2da;" horiz-adv-x="1101" 
d="M551 1630q101 0 169 -71.5t68 -178.5q0 -106 -68.5 -178t-168.5 -72t-169 72t-69 178q0 107 68.5 178.5t169.5 71.5zM551 1251q44 0 75 37.5t31 91.5q0 53 -31 91t-75 38q-45 0 -77 -38t-32 -91q0 -54 31.5 -91.5t77.5 -37.5z" />
    <glyph glyph-name="ogonek" unicode="&#x2db;" horiz-adv-x="1044" 
d="M393 0h176q-137 -53 -137 -147q0 -45 32.5 -71.5t78.5 -25.5t94 23v-170q-69 -30 -135.5 -30.5t-117 25.5t-81.5 79t-31 124q0 59 34 112.5t87 80.5z" />
    <glyph glyph-name="tilde" unicode="&#x2dc;" horiz-adv-x="1087" 
d="M215 1180q-19 84 -3.5 145t60.5 96q44 34 98.5 36.5t108.5 -25.5l185 -95q31 -15 55 2q30 24 6 95h147q19 -84 3.5 -145.5t-60.5 -96.5q-44 -33 -98.5 -35.5t-108.5 25.5l-184 94q-13 6 -29 6t-26 -8q-31 -24 -7 -94h-147z" />
    <glyph glyph-name="hungarumlaut" unicode="&#x2dd;" horiz-adv-x="1163" 
d="M588 1675l129 -127l-377 -356l-107 88zM946 1675l129 -127l-377 -356l-106 88z" />
    <glyph glyph-name="uni0326" unicode="&#x326;" horiz-adv-x="0" 
d="M-219 -84h225v-281q0 -24 -0.5 -35.5t-9 -33t-25.5 -33.5q-43 -32 -135 -18v90q72 -15 72 37v45h-127v229z" />
    <glyph glyph-name="Wgrave" unicode="&#x1e80;" horiz-adv-x="1921" 
d="M694 2073l355 -396l-107 -88l-377 357zM1694 1434h215l-348 -1434h-295l-305 1249l-308 -1249h-293l-348 1434h215l285 -1264l315 1264h265l315 -1264z" />
    <glyph glyph-name="wgrave" unicode="&#x1e81;" horiz-adv-x="1611" 
d="M555 1675l354 -395l-106 -88l-377 356zM4 1036h213l234 -864l254 864h202l254 -864l234 864h213l-326 -1036h-227l-250 852l-250 -852h-227z" />
    <glyph glyph-name="Wdieresis" unicode="&#x1e84;" horiz-adv-x="1921" 
d="M670 1831h225v-229h-225v229zM1008 1831h225v-229h-225v229zM1694 1434h215l-348 -1434h-295l-305 1249l-308 -1249h-293l-348 1434h215l285 -1264l315 1264h265l315 -1264z" />
    <glyph glyph-name="wdieresis" unicode="&#x1e85;" horiz-adv-x="1611" 
d="M520 1434h225v-230h-225v230zM858 1434h225v-230h-225v230zM4 1036h213l234 -864l254 864h202l254 -864l234 864h213l-326 -1036h-227l-250 852l-250 -852h-227z" />
    <glyph glyph-name="Ygrave" unicode="&#x1ef2;" horiz-adv-x="1253" 
d="M346 2073l354 -396l-106 -88l-377 357zM997 1434h246l-518 -842v-592h-197v592l-518 842h246l371 -646z" />
    <glyph glyph-name="ygrave" unicode="&#x1ef3;" horiz-adv-x="993" 
d="M227 1675l355 -395l-107 -88l-377 356zM4 1036h213l281 -843l278 843h213l-399 -1116q-5 -14 -17.5 -49.5t-18 -49t-17 -41t-21 -42t-23.5 -34.5t-31 -35.5t-38 -30.5q-49 -34 -115 -40t-157 9v180q50 -12 86.5 -12.5t61.5 7t44 28t31 45t26 63.5l2 4z" />
    <glyph glyph-name="endash" unicode="&#x2013;" horiz-adv-x="856" 
d="M0 643h856v-164h-856v164z" />
    <glyph glyph-name="emdash" unicode="&#x2014;" horiz-adv-x="1542" 
d="M205 479v164h1132v-164h-1132z" />
    <glyph glyph-name="quoteleft" unicode="&#x2018;" horiz-adv-x="356" 
d="M291 1032h-225v281v6q-1 71 34 96q44 33 136 19v-91q-72 15 -72 -36v-45h127v-230z" />
    <glyph glyph-name="quoteright" unicode="&#x2019;" horiz-adv-x="356" 
d="M66 1434h225v-281q0 -24 -0.5 -35.5t-9 -33t-25.5 -33.5q-44 -33 -135 -19v90q72 -15 72 37v45h-127v230z" />
    <glyph glyph-name="quotesinglbase" unicode="&#x201a;" horiz-adv-x="356" 
d="M66 229h225v-280q0 -24 -0.5 -35.5t-9 -33.5t-25.5 -34q-43 -32 -135 -18v90q72 -15 72 37v45h-127v229z" />
    <glyph glyph-name="quotedblleft" unicode="&#x201c;" horiz-adv-x="653" 
d="M291 1032h-225v281v6q-1 71 34 96q44 33 136 19v-91q-72 15 -72 -36v-45h127v-230zM588 1032h-226v281q0 24 0.5 35.5t9 33t25.5 33.5q44 33 135 19v-91q-71 14 -71 -36v-45h127v-230z" />
    <glyph glyph-name="quotedblright" unicode="&#x201d;" horiz-adv-x="653" 
d="M66 1434h225v-281q0 -24 -0.5 -35.5t-9 -33t-25.5 -33.5q-44 -33 -135 -19v90q72 -15 72 37v45h-127v230zM362 1434h226v-281q0 -24 -0.5 -35.5t-9 -33t-25.5 -33.5q-44 -33 -135 -19v90q71 -14 71 37v45h-127v230z" />
    <glyph glyph-name="quotedblbase" unicode="&#x201e;" horiz-adv-x="653" 
d="M66 229h225v-280q0 -24 -0.5 -35.5t-9 -33.5t-25.5 -34q-43 -32 -135 -18v90q72 -15 72 37v45h-127v229zM362 229h226v-280q0 -24 -0.5 -35.5t-9 -33.5t-25.5 -34q-43 -32 -135 -18v90q71 -14 71 37v45h-127v229z" />
    <glyph glyph-name="dagger" unicode="&#x2020;" horiz-adv-x="806" 
d="M70 1008v163h243v263h181v-263h243v-163h-243v-521h-181v521h-243z" />
    <glyph glyph-name="daggerdbl" unicode="&#x2021;" horiz-adv-x="806" 
d="M70 680v164h243v164h-243v163h243v263h181v-263h243v-163h-243v-164h243v-164h-243v-262h-181v262h-243z" />
    <glyph glyph-name="bullet" unicode="&#x2022;" horiz-adv-x="1208" 
d="M1135 518q0 143 -71 265.5t-193.5 194t-266.5 71.5t-266 -71.5t-193 -194t-71 -265.5t71 -265t193 -193.5t266 -71.5t266.5 71.5t193.5 193.5t71 265z" />
    <glyph glyph-name="ellipsis" unicode="&#x2026;" horiz-adv-x="1048" 
d="M74 229h225v-229h-225v229zM412 229h225v-229h-225v229zM750 229h225v-229h-225v229z" />
    <glyph glyph-name="perthousand" unicode="&#x2030;" horiz-adv-x="1845" 
d="M39 1085q0 162 79.5 261.5t209.5 99.5q128 0 207 -100.5t79 -260.5q0 -169 -77 -268.5t-209 -99.5q-134 0 -211.5 99t-77.5 269zM90 0l975 1434h197l-977 -1434h-195zM180 1085q0 -118 38.5 -180.5t109.5 -62.5q69 0 107 63t38 180q0 112 -38 174t-107 62
q-71 0 -109.5 -61t-38.5 -175zM735 356q0 162 79.5 261.5t209.5 99.5q82 0 146 -43.5t100 -120.5q37 78 101.5 121t148.5 43q128 0 207 -100.5t79 -260.5q0 -169 -77 -268.5t-209 -99.5q-85 0 -149.5 42.5t-100.5 119.5q-36 -77 -99 -119.5t-147 -42.5q-134 0 -211.5 99
t-77.5 269zM877 356q0 -118 38 -180.5t109 -62.5q69 0 107 63t38 180q0 112 -38 174t-107 62q-71 0 -109 -61t-38 -175zM1372 356q0 -118 38.5 -180.5t109.5 -62.5q69 0 107 63t38 180q0 112 -38 174t-107 62q-71 0 -109.5 -61t-38.5 -175z" />
    <glyph glyph-name="guilsinglleft" unicode="&#x2039;" horiz-adv-x="628" 
d="M508 344v-242l-397 349v221l397 348v-242l-285 -217z" />
    <glyph glyph-name="guilsinglright" unicode="&#x203a;" horiz-adv-x="628" 
d="M121 344l285 217l-285 217v242l397 -348v-221l-397 -349v242z" />
    <glyph glyph-name="fraction" unicode="&#x2044;" horiz-adv-x="475" 
d="M647 1434h182l-976 -1434h-181z" />
    <glyph glyph-name="uni2070" unicode="&#x2070;" horiz-adv-x="681" 
d="M342 1434q129 0 209 -101t80 -264q0 -172 -78 -272.5t-211 -100.5q-135 0 -213 100.5t-78 272.5q0 163 80.5 264t210.5 101zM342 799q80 0 124 70.5t44 199.5q0 126 -44 194t-124 68t-125 -69t-45 -193q0 -130 44 -200t126 -70z" />
    <glyph glyph-name="uni2074" unicode="&#x2074;" horiz-adv-x="681" 
d="M532 987h103v-106h-103v-185h-116v185h-363v104l326 449h153v-447zM174 987h242v332z" />
    <glyph glyph-name="uni2075" unicode="&#x2075;" horiz-adv-x="657" 
d="M340 1243q120 0 190 -72t70 -194t-78.5 -201.5t-199.5 -79.5q-92 0 -159.5 46t-96.5 112.5t-23 136.5h117q-10 -71 33.5 -134.5t125.5 -63.5q74 0 120 50.5t46 133.5q0 86 -40 130t-117 44q-52 0 -93 -26.5t-53 -67.5l-100 24l24 353h439v-105h-350l-9 -135q61 49 154 49
z" />
    <glyph glyph-name="uni2076" unicode="&#x2076;" horiz-adv-x="675" 
d="M633 1171h-113q6 72 -40 120t-120 48q-83 0 -135.5 -64t-56.5 -173q31 40 79.5 62.5t100.5 21.5q103 -3 169.5 -70.5t66.5 -171.5q0 -107 -72.5 -177.5t-181.5 -70.5q-123 0 -200 103t-77 266t85.5 266t221.5 103q128 0 203.5 -72.5t69.5 -190.5zM330 1092
q-62 0 -103 -42t-41 -108q0 -62 43 -108t101 -46q60 0 100.5 44t40.5 110q0 67 -39 108.5t-102 41.5z" />
    <glyph glyph-name="uni2077" unicode="&#x2077;" horiz-adv-x="634" 
d="M45 1434h533v-95q0 -96 -23 -154.5t-88 -105.5l-164 -118q-32 -23 -51 -62.5t-19 -81.5v-121h-116v131q0 69 28.5 128t79.5 96l146 104q52 38 70 72t20 96h-416v111z" />
    <glyph glyph-name="uni2078" unicode="&#x2078;" horiz-adv-x="608" 
d="M455 1077q43 -22 75.5 -66t32.5 -100q0 -97 -72 -157t-186 -58q-117 2 -188.5 61t-71.5 154q0 56 33 100.5t76 65.5q-40 23 -69.5 63.5t-29.5 90.5q0 89 70.5 146t179.5 57q108 0 178 -57t70 -146q0 -48 -29.5 -89.5t-68.5 -64.5zM305 1343q-57 0 -94 -33.5t-37 -84.5
q0 -50 35.5 -79.5t95.5 -29.5q56 0 92.5 31.5t36.5 77.5q0 48 -38 83t-91 35zM305 788q58 0 97.5 35t39.5 86q0 50 -41 86.5t-96 36.5q-58 0 -98.5 -36t-40.5 -87q0 -53 39 -87t100 -34z" />
    <glyph glyph-name="uni2079" unicode="&#x2079;" horiz-adv-x="620" 
d="M299 1434q123 0 199.5 -103t76.5 -266q0 -166 -73 -267.5t-193 -101.5q-109 0 -180 61.5t-82 164.5h117q3 -54 45 -92.5t100 -38.5q70 0 112 63t42 168q-30 -36 -79.5 -57.5t-102.5 -20.5q-103 3 -169.5 70.5t-66.5 171.5q0 107 72.5 177.5t181.5 70.5zM299 1038
q62 0 102.5 42t40.5 108q0 62 -42.5 107.5t-100.5 45.5q-57 0 -98 -44.5t-41 -108.5q0 -66 39.5 -108t99.5 -42z" />
    <glyph glyph-name="uni2080" unicode="&#x2080;" horiz-adv-x="681" 
d="M342 725q129 0 209 -101t80 -264q0 -172 -78 -272t-211 -100q-135 0 -213 100t-78 272q0 163 80.5 264t210.5 101zM342 90q80 0 124 70.5t44 199.5q0 126 -44 194.5t-124 68.5t-125 -69.5t-45 -193.5q0 -130 44 -200t126 -70z" />
    <glyph glyph-name="uni2081" unicode="&#x2081;" horiz-adv-x="436" 
d="M334 737v-737h-115v575q-71 -57 -174 -110v127q92 50 184 145h105z" />
    <glyph glyph-name="uni2082" unicode="&#x2082;" horiz-adv-x="690" 
d="M229 113h404v-109h-518v109q0 100 38 150.5t136 84.5l139 47q82 30 82 111q0 57 -43.5 94t-112.5 37q-92 0 -146 -70.5t-40 -171.5h-115q-17 146 70 246t229 100q130 0 201.5 -71t71.5 -162q0 -90 -41.5 -142t-141.5 -87l-127 -41q-49 -17 -67.5 -44t-18.5 -81z" />
    <glyph glyph-name="uni2083" unicode="&#x2083;" horiz-adv-x="604" 
d="M463 369q45 -23 70.5 -65t25.5 -93q0 -100 -70.5 -161.5t-183.5 -61.5q-130 0 -204 84.5t-60 218.5h117q-17 -87 26 -147t121 -60q61 0 100 35.5t39 91.5q0 44 -30 74t-76 30h-68v99h68q42 0 71 30.5t29 75.5q0 50 -34 80.5t-89 30.5q-78 0 -116 -46.5t-29 -133.5h-117
q-12 123 60.5 198.5t201.5 75.5q106 0 172 -56.5t66 -148.5q0 -48 -24 -88t-66 -63z" />
    <glyph glyph-name="uni2084" unicode="&#x2084;" horiz-adv-x="681" 
d="M532 291h103v-107h-103v-184h-116v184h-363v105l326 448h153v-446zM174 291h242v332z" />
    <glyph glyph-name="uni2085" unicode="&#x2085;" horiz-adv-x="657" 
d="M340 535q120 0 190 -72.5t70 -194.5t-78.5 -201t-199.5 -79q-92 0 -159.5 46t-96.5 112.5t-23 136.5h117q-10 -72 33.5 -135.5t125.5 -63.5q74 0 120 50.5t46 133.5q0 86 -40 130t-117 44q-52 0 -93 -26.5t-53 -67.5l-100 25l24 352h439v-104h-350l-9 -136q62 50 154 50z
" />
    <glyph glyph-name="uni2086" unicode="&#x2086;" horiz-adv-x="677" 
d="M629 463h-113q6 72 -40 120t-120 48q-83 0 -135 -64.5t-57 -173.5q31 40 79.5 62.5t100.5 21.5q103 -3 169.5 -70t66.5 -171q0 -107 -72.5 -177.5t-181.5 -70.5q-123 0 -200 102.5t-77 265.5t85.5 266t221.5 103q128 0 203.5 -72t69.5 -190zM326 383q-62 0 -103 -42
t-41 -108q0 -62 43 -107.5t101 -45.5q60 0 100.5 43.5t40.5 109.5q0 67 -39 108.5t-102 41.5z" />
    <glyph glyph-name="uni2087" unicode="&#x2087;" horiz-adv-x="634" 
d="M45 737h533v-94q0 -96 -23 -154.5t-88 -105.5l-164 -119q-32 -23 -51 -62t-19 -81v-121h-116v131q0 69 28.5 127.5t79.5 95.5l146 105q52 38 70 72t20 96h-416v110z" />
    <glyph glyph-name="uni2088" unicode="&#x2088;" horiz-adv-x="612" 
d="M457 369q43 -22 75.5 -66t32.5 -100q0 -97 -72 -157t-186 -58q-117 2 -188.5 61t-71.5 154q0 56 33 100.5t76 65.5q-41 23 -70 63t-29 90q0 89 70.5 146t179.5 57q108 0 178 -57t70 -146q0 -48 -29.5 -88.5t-68.5 -64.5zM307 635q-57 0 -94 -34t-37 -85q0 -49 35.5 -78.5
t95.5 -29.5q56 0 92.5 31t36.5 77q0 48 -38 83.5t-91 35.5zM307 80q58 0 97.5 35t39.5 86q0 50 -41 86.5t-96 36.5q-58 0 -98.5 -36t-40.5 -87q0 -53 39 -87t100 -34z" />
    <glyph glyph-name="uni2089" unicode="&#x2089;" horiz-adv-x="626" 
d="M299 725q123 0 199.5 -103t76.5 -266q0 -166 -73 -267t-193 -101q-109 0 -180.5 61t-81.5 164h117q3 -54 45 -92.5t100 -38.5q70 0 112 63t42 168q-30 -36 -79.5 -57t-102.5 -20q-103 3 -169.5 70t-66.5 171q0 107 72.5 177.5t181.5 70.5zM299 330q62 0 102.5 41.5
t40.5 107.5q0 62 -42.5 108t-100.5 46q-57 0 -98 -45t-41 -109q0 -66 39.5 -107.5t99.5 -41.5z" />
    <glyph glyph-name="Euro" unicode="&#x20ac;" horiz-adv-x="1187" 
d="M37 489v164h123q-2 20 -2 64q0 43 2 63h-123v164h149q63 229 236 365.5t403 136.5q185 0 338 -92v-226h-6q-51 70 -140 110t-192 40q-145 0 -259 -91t-167 -243h494l-41 -164h-487q-3 -30 -3 -63q0 -34 3 -64h466l-40 -164h-392q53 -152 166.5 -242.5t259.5 -90.5
q104 0 192.5 39.5t139.5 109.5h6v-225q-153 -92 -338 -92q-231 0 -403.5 136.5t-235.5 364.5h-149z" />
    <glyph glyph-name="trademark" unicode="&#x2122;" horiz-adv-x="1517" 
d="M641 1434v-134h-219v-583h-139v583h-220v134h578zM1419 1434v-717h-137v424l-131 -424h-160l-127 422v-422h-139v717h186l160 -537l164 537h184z" />
    <glyph glyph-name="arrowleft" unicode="&#x2190;" horiz-adv-x="1601" 
d="M1511 518h-1171v-4q132 -132 145 -147q88 -98 162 -174l-53 -50q-207 179 -272.5 231t-251.5 187q186 135 251.5 187.5t272.5 230.5l53 -49q-74 -76 -162 -174q-46 -51 -145 -148v-4h1171v-86z" />
    <glyph glyph-name="arrowup" unicode="&#x2191;" horiz-adv-x="1015" 
d="M465 0v1171h-4q-125 -125 -148 -145q-98 -88 -174 -162l-49 54q179 207 231 272.5t187 251.5q135 -186 187.5 -251.5t230.5 -272.5l-49 -54q-63 60 -175 162q-43 39 -147 145h-4v-1171h-86z" />
    <glyph glyph-name="arrowright" unicode="&#x2192;" horiz-adv-x="1601" 
d="M90 518v86h1172v4q-107 105 -146 148q-88 98 -162 174l54 49q207 -179 272.5 -231t251.5 -187q-186 -135 -251.5 -187t-272.5 -231l-54 50q74 76 162 174q7 8 146 147v4h-1172z" />
    <glyph glyph-name="arrowdown" unicode="&#x2193;" horiz-adv-x="1015" 
d="M465 1442h86v-1172h4q112 115 147 146q112 102 175 162l49 -54q-178 -207 -230.5 -272.5t-187.5 -251.5q-135 186 -187 251.5t-231 272.5l49 54q76 -74 174 -162q15 -13 148 -146h4v1172z" />
    <glyph glyph-name="arrowboth" unicode="&#x2194;" horiz-adv-x="1581" 
d="M70 561q186 135 251.5 187.5t272.5 230.5l53 -49q-74 -76 -162 -174q-46 -51 -145 -148v-4h901v4q-99 97 -145 148q-88 98 -162 174l53 49q207 -179 272.5 -231t251.5 -187q-186 -135 -251.5 -187t-272.5 -231l-53 50q74 76 162 174q13 15 145 147v4h-901v-4
q132 -132 145 -147q88 -98 162 -174l-53 -50q-207 179 -272.5 231t-251.5 187z" />
    <glyph glyph-name="uni2196" unicode="&#x2196;" horiz-adv-x="1230" 
d="M1141 49l-62 -61l-827 829l-4 -4v-207q0 -88 -4.5 -149.5t-5.5 -87.5l-72 4q-20 272 -29.5 355t-46.5 310q222 -36 304.5 -45t361.5 -30l4 -72q-133 -3 -238 -10h-207l-4 -4z" />
    <glyph glyph-name="uni2197" unicode="&#x2197;" horiz-adv-x="1230" 
d="M90 49l830 828l-5 4h-206q-105 7 -238 10l4 72q279 21 361.5 30t304.5 45q-37 -227 -46.5 -310t-29.5 -355l-72 -4q-1 26 -5.5 87.5t-4.5 149.5v207l-4 4l-827 -829z" />
    <glyph glyph-name="uni2198" unicode="&#x2198;" horiz-adv-x="1230" 
d="M152 1051l827 -830l4 4q0 46 -0.5 96.5t-0.5 73.5t1 37q7 105 10 238l72 -4q20 -272 29.5 -355.5t46.5 -310.5q-227 37 -310.5 46.5t-355.5 29.5l-4 71q27 1 89 6t149 5q5 0 33.5 0.5t72 0.5t100.5 -1l5 4l-830 827z" />
    <glyph glyph-name="uni2199" unicode="&#x2199;" horiz-adv-x="1230" 
d="M1079 1051l62 -62l-830 -827l4 -4q57 1 100.5 1t72.5 -0.5t34 -0.5q87 0 149 -5t89 -6l-4 -71q-272 -20 -355.5 -29.5t-310.5 -46.5q37 227 46.5 310.5t29.5 355.5l72 4q3 -133 10 -238q1 -14 1 -37t-0.5 -73.5t-0.5 -96.5l4 -4z" />
    <glyph glyph-name="uni21A9" unicode="&#x21a9;" horiz-adv-x="1447" 
d="M696 1346v88h203q144 0 277 -93q73 -52 127.5 -148t54.5 -218q0 -123 -61 -229.5t-169 -167.5q-111 -62 -229 -62q-27 0 -139 -1t-213 -1h-207q132 -132 145 -147q88 -98 162 -174l-53 -50q-207 179 -272.5 231t-251.5 187q186 135 251.5 187.5t272.5 230.5l53 -49
q-74 -76 -162 -174q-46 -51 -145 -148h205h354q148 0 256 105q111 105 111 262q0 73 -31.5 151t-95.5 131q-112 89 -240 89h-203z" />
    <glyph glyph-name="uni21AA" unicode="&#x21aa;" horiz-adv-x="1447" 
d="M752 1346h-203q-128 0 -240 -89q-64 -53 -95.5 -131t-31.5 -151q0 -157 111 -262q108 -105 256 -105h354h205q-99 97 -145 148q-88 98 -162 174l53 49q207 -178 272.5 -230.5t251.5 -187.5q-186 -135 -251.5 -187t-272.5 -231l-53 50q74 76 162 174q13 15 145 147h-207
q-101 0 -213 1t-139 1q-119 0 -230 62q-108 61 -168.5 167.5t-60.5 229.5q0 122 54.5 218t127.5 148q133 93 277 93h203v-88z" />
    <glyph glyph-name="uni21B0" unicode="&#x21b0;" horiz-adv-x="1548" 
d="M1362 0q0 172 -66 324.5t-177 259.5t-261 169t-313 62h-205q106 -104 145 -147q88 -98 162 -174l-53 -50q-207 179 -272.5 231t-251.5 187q186 135 251.5 187t272.5 231l53 -49q-74 -76 -162 -174q-20 -23 -145 -148h207q189 0 358.5 -72.5t290.5 -195t191.5 -290
t70.5 -351.5h-96z" />
    <glyph glyph-name="uni21B1" unicode="&#x21b1;" horiz-adv-x="1548" 
d="M186 0h-96q0 184 70.5 351.5t191.5 290t290.5 195t358.5 72.5h207q-125 125 -145 148q-88 98 -162 174l53 49q204 -176 270 -228.5t255 -189.5q-189 -137 -255 -189.5t-270 -228.5l-53 50q74 76 162 174q39 43 145 147h-204q-163 0 -313 -62t-261.5 -169t-177.5 -259.5
t-66 -324.5z" />
    <glyph glyph-name="uni21B2" unicode="&#x21b2;" horiz-adv-x="1548" 
d="M1362 1423h96q0 -184 -70.5 -351.5t-191.5 -290t-290.5 -195t-358.5 -72.5h-207q132 -132 145 -147q88 -98 162 -174l-53 -50q-207 179 -272.5 231t-251.5 187q186 135 251.5 187.5t272.5 230.5l53 -49q-74 -76 -162 -174q-46 -51 -145 -148h205q163 0 313 62t261 169
t177 259.5t66 324.5z" />
    <glyph glyph-name="uni21B3" unicode="&#x21b3;" horiz-adv-x="1548" 
d="M186 1423q0 -172 66 -324.5t177.5 -259.5t261.5 -169t313 -62h204q-99 97 -145 148q-88 98 -162 174l53 49q204 -176 270 -228.5t255 -189.5q-189 -137 -255 -189.5t-270 -228.5l-53 50q74 76 162 174q13 15 145 147h-207q-189 0 -358.5 72.5t-290.5 195t-191.5 290
t-70.5 351.5h96z" />
    <glyph glyph-name="partialdiff" unicode="&#x2202;" horiz-adv-x="1159" 
d="M440 1434q188 -10 337 -113.5t232 -277.5t83 -388q0 -191 -62.5 -341.5t-184.5 -238t-286 -87.5q-106 0 -199.5 38t-159 103t-103.5 154t-38 188q0 201 127 334.5t334 136.5q124 1 234.5 -56.5t156.5 -146.5q1 87 -34.5 179.5t-96.5 170t-151 129.5t-189 56v160zM559 135
q130 0 219.5 99t89.5 233q0 140 -88 232t-225 92q-134 0 -219.5 -92t-85.5 -232q0 -135 88.5 -233.5t220.5 -98.5z" />
    <glyph glyph-name="product" unicode="&#x220f;" horiz-adv-x="1269" 
d="M119 -246v1680h1032v-1680h-184v1499h-664v-1499h-184z" />
    <glyph glyph-name="summation" unicode="&#x2211;" horiz-adv-x="1077" 
d="M70 1434h925v-185h-790l588 -655l-588 -655h790v-185h-925v291l491 547l-491 551v291z" />
    <glyph glyph-name="minus" unicode="&#x2212;" horiz-adv-x="999" 
d="M72 643h856v-164h-856v164z" />
    <glyph glyph-name="radical" unicode="&#x221a;" horiz-adv-x="1193" 
d="M35 379l315 117l164 -580l479 1518h189l-555 -1680h-224l-167 510l-150 -53z" />
    <glyph glyph-name="integral" unicode="&#x222b;" horiz-adv-x="606" 
d="M-31 -246v160h64q50 0 76.5 25.5t33.5 83.5l156 1142q20 143 82 206t186 63h76v-160h-61q-50 0 -77 -25.5t-34 -83.5l-156 -1142q-19 -139 -83.5 -204t-184.5 -65h-78z" />
    <glyph glyph-name="approxequal" unicode="&#x2248;" horiz-adv-x="958" 
d="M121 721q-22 84 -4.5 146t69.5 96q105 69 236 10l211 -94q36 -15 63 2q36 22 9 94h167q22 -84 4.5 -146t-69.5 -96q-105 -69 -236 -10l-211 94q-39 16 -63 -2q-35 -22 -8 -94h-168zM121 401q-22 84 -4.5 146t69.5 96q105 69 236 10l211 -94q39 -15 63 2q35 25 9 94h167
q22 -84 4.5 -145t-69.5 -96q-51 -34 -113 -36.5t-123 25.5l-211 95q-39 16 -63 -2q-35 -24 -8 -95h-168z" />
    <glyph glyph-name="notequal" unicode="&#x2260;" horiz-adv-x="1056" 
d="M115 285v164h309l65 184h-374v164h434l57 164h152l-58 -164h271v-164h-330l-66 -184h396v-164h-455l-57 -164h-152l58 164h-250z" />
    <glyph glyph-name="lessequal" unicode="&#x2264;" horiz-adv-x="1060" 
d="M969 811l-725 -201l725 -200v-205l-877 282v246l877 283v-205zM969 164v-164h-877v164h877z" />
    <glyph glyph-name="greaterequal" unicode="&#x2265;" horiz-adv-x="1060" 
d="M92 811v205l877 -283v-246l-877 -282v205l725 200zM92 164h877v-164h-877v164z" />
    <glyph glyph-name="uni2460" unicode="&#x2460;" horiz-adv-x="1597" 
d="M799 1446q151 0 286 -56.5t232 -153.5t154 -232.5t57 -286.5t-57 -286.5t-154 -232.5t-232 -153.5t-286 -56.5t-286 56.5t-232 153.5t-154 232.5t-57 286.5t57 286.5t154 232.5t232 153.5t286 56.5zM799 74q120 0 237 52.5t205 139t142.5 206t54.5 245.5t-54.5 245.5
t-142.5 206t-205 139t-237 52.5q-119 0 -236 -52.5t-205.5 -139.5t-143 -206t-54.5 -245t54.5 -245t143 -206t205.5 -139.5t236 -52.5zM860 1085h-92q-79 -86 -182 -145v-109q95 49 178 121v-604h96v737z" />
    <glyph glyph-name="uni2461" unicode="&#x2461;" horiz-adv-x="1597" 
d="M799 1446q151 0 286 -56.5t232 -153.5t154 -232.5t57 -286.5t-57 -286.5t-154 -232.5t-232 -153.5t-286 -56.5t-286 56.5t-232 153.5t-154 232.5t-57 286.5t57 286.5t154 232.5t232 153.5t286 56.5zM799 74q160 0 307.5 87.5t239.5 237.5t92 318t-92 318t-239.5 237.5
t-307.5 87.5q-119 0 -235.5 -52.5t-205 -139.5t-143.5 -206t-55 -245t55 -245t143.5 -206t205 -139.5t235.5 -52.5zM662 471q0 53 20.5 83t75.5 48l131 45q97 33 138.5 83t41.5 142q0 91 -70.5 160.5t-199.5 69.5q-137 0 -223.5 -95t-73.5 -239h94q-9 102 48 175t157 73
q81 0 126.5 -43.5t45.5 -102.5q0 -93 -92 -125l-144 -47q-98 -34 -135 -84t-37 -149v-100h494v90h-397v16z" />
    <glyph glyph-name="uni2462" unicode="&#x2462;" horiz-adv-x="1597" 
d="M799 1446q151 0 286 -56.5t232 -153.5t154 -232.5t57 -286.5t-57 -286.5t-154 -232.5t-232 -153.5t-286 -56.5t-286 56.5t-232 153.5t-154 232.5t-57 286.5t57 286.5t154 232.5t232 153.5t286 56.5zM799 74q160 0 307.5 87.5t239.5 237.5t92 318t-92 318t-239.5 237.5
t-307.5 87.5q-119 0 -235.5 -52.5t-205 -139.5t-143.5 -206t-55 -245t55 -245t143.5 -206t205 -139.5t235.5 -52.5zM805 426q-84 0 -131 62t-35 151h-96q-12 -130 60 -210.5t202 -80.5q111 0 180.5 58.5t69.5 158.5q0 65 -35 106t-80 58q46 19 77.5 59t31.5 97
q0 95 -67 147.5t-169 52.5q-127 0 -197 -72t-59 -190h96q-6 86 35 136.5t125 50.5q63 0 101 -34.5t38 -90.5q0 -49 -31 -84t-85 -35h-58v-80h58q55 0 87.5 -35t32.5 -86q0 -62 -45 -100.5t-106 -38.5z" />
    <glyph glyph-name="uni2463" unicode="&#x2463;" horiz-adv-x="1597" 
d="M799 1446q151 0 286 -56.5t232 -153.5t154 -232.5t57 -286.5t-57 -286.5t-154 -232.5t-232 -153.5t-286 -56.5t-286 56.5t-232 153.5t-154 232.5t-57 286.5t57 286.5t154 232.5t232 153.5t286 56.5zM799 66q121 0 239 53t207.5 140.5t145 208.5t55.5 249t-55.5 249
t-145 208.5t-207.5 140.5t-239 53q-120 0 -238 -53.5t-208 -141t-145.5 -208.5t-55.5 -248t55.5 -248t145.5 -208.5t208 -141t238 -53.5zM920 625h106v-88h-106v-189h-99v189h-372v94l331 454h140v-460zM821 1010l-278 -385h278v385z" />
    <glyph glyph-name="uni2464" unicode="&#x2464;" horiz-adv-x="1597" 
d="M799 1446q151 0 286 -56.5t232 -153.5t154 -232.5t57 -286.5t-57 -286.5t-154 -232.5t-232 -153.5t-286 -56.5t-286 56.5t-232 153.5t-154 232.5t-57 286.5t57 286.5t154 232.5t232 153.5t286 56.5zM799 66q121 0 239 53t207.5 140.5t145 208.5t55.5 249t-55.5 249
t-145 208.5t-207.5 140.5t-239 53q-120 0 -238 -53.5t-208 -141t-145.5 -208.5t-55.5 -248t55.5 -248t145.5 -208.5t208 -141t238 -53.5zM637 821l10 172h361v86h-430l-25 -344l86 -20q15 42 58.5 68t97.5 26q81 0 126.5 -48t45.5 -140q0 -83 -48.5 -142t-132.5 -59
q-57 0 -100 33t-61 78.5t-15 91.5h-98q-4 -68 25.5 -131t96.5 -106.5t157 -43.5q126 0 200 83.5t74 192.5q0 91 -37.5 153t-93.5 88t-125 26q-102 0 -172 -64z" />
    <glyph glyph-name="uni2465" unicode="&#x2465;" horiz-adv-x="1597" 
d="M799 1446q151 0 286 -56.5t232 -153.5t154 -232.5t57 -286.5t-57 -286.5t-154 -232.5t-232 -153.5t-286 -56.5t-286 56.5t-232 153.5t-154 232.5t-57 286.5t57 286.5t154 232.5t232 153.5t286 56.5zM799 63q162 0 311.5 89.5t242.5 242t93 322.5q0 128 -55.5 249
t-145 209t-207.5 141.5t-239 53.5q-120 0 -238 -53.5t-208 -142t-145.5 -209.5t-55.5 -248q0 -169 93.5 -321.5t243 -242.5t310.5 -90zM1067 831q3 105 -73 179.5t-203 74.5q-135 0 -217 -100.5t-82 -267.5q0 -164 74 -266.5t200 -102.5q109 0 179.5 69.5t70.5 174.5
q0 103 -63.5 169.5t-168.5 67.5q-63 1 -117.5 -31t-78.5 -79q-3 129 51 210t152 81q81 0 132.5 -57.5t49.5 -121.5h94zM606 590q0 72 45 118t115 46q68 0 111 -46t43 -118q0 -68 -44 -118t-110 -50q-65 0 -112.5 50.5t-47.5 117.5z" />
    <glyph glyph-name="uni2466" unicode="&#x2466;" horiz-adv-x="1597" 
d="M799 1446q151 0 286 -56.5t232 -153.5t154 -232.5t57 -286.5t-57 -286.5t-154 -232.5t-232 -153.5t-286 -56.5t-286 56.5t-232 153.5t-154 232.5t-57 286.5t57 286.5t154 232.5t232 153.5t286 56.5zM799 66q121 0 239 53t207.5 140.5t145 208.5t55.5 249t-55.5 249
t-145 208.5t-207.5 140.5t-239 53q-120 0 -238 -53.5t-208 -141t-145.5 -208.5t-55.5 -248t55.5 -248t145.5 -208.5t208 -141t238 -53.5zM573 1065v-92h428q-2 -73 -20.5 -112.5t-77.5 -80.5l-149 -106q-52 -36 -80.5 -95t-28.5 -126v-125h100v112q0 100 78 156l168 123
q64 48 86.5 105t22.5 155v86h-527z" />
    <glyph glyph-name="uni2467" unicode="&#x2467;" horiz-adv-x="1597" 
d="M799 1446q151 0 286 -56.5t232 -153.5t154 -232.5t57 -286.5t-57 -286.5t-154 -232.5t-232 -153.5t-286 -56.5t-286 56.5t-232 153.5t-154 232.5t-57 286.5t57 286.5t154 232.5t232 153.5t286 56.5zM799 66q121 0 239 53t207.5 140.5t145 208.5t55.5 249t-55.5 249
t-145 208.5t-207.5 140.5t-239 53q-120 0 -238 -53.5t-208 -141t-145.5 -208.5t-55.5 -248t55.5 -248t145.5 -208.5t208 -141t238 -53.5zM928 729q45 18 82 60.5t37 97.5q0 83 -67 140.5t-179 57.5t-179 -57.5t-67 -140.5q0 -55 37.5 -98.5t81.5 -59.5q-47 -14 -88 -60.5
t-41 -109.5q0 -97 72.5 -152.5t183.5 -58.5q111 3 183.5 58.5t72.5 152.5q0 63 -41.5 110.5t-87.5 59.5zM657 881q0 53 39 93t105 40q64 0 103.5 -40t39.5 -93q0 -52 -38.5 -86.5t-104.5 -34.5q-67 0 -105.5 34t-38.5 87zM954 557q0 -58 -43 -96.5t-110 -38.5
q-68 0 -110 38.5t-42 96.5q0 53 43 94t109 41q65 0 109 -41t44 -94z" />
    <glyph glyph-name="uni2468" unicode="&#x2468;" horiz-adv-x="1597" 
d="M799 1446q151 0 286 -56.5t232 -153.5t154 -232.5t57 -286.5t-57 -286.5t-154 -232.5t-232 -153.5t-286 -56.5t-286 56.5t-232 153.5t-154 232.5t-57 286.5t57 286.5t154 232.5t232 153.5t286 56.5zM799 66q121 0 239 53t207.5 140.5t145 208.5t55.5 249t-55.5 249
t-145 208.5t-207.5 140.5t-239 53q-120 0 -238 -53.5t-208 -141t-145.5 -208.5t-55.5 -248t55.5 -248t145.5 -208.5t208 -141t238 -53.5zM557 582q14 -109 79.5 -171.5t178.5 -62.5q119 0 190.5 101t71.5 268q0 163 -74 265.5t-198 102.5q-110 0 -181 -69t-71 -174
q0 -103 63.5 -170t167.5 -68q63 -1 118.5 28t78.5 75q9 -125 -37 -204t-129 -79q-68 0 -111.5 46.5t-48.5 111.5h-98zM963 844q0 -72 -44.5 -118t-113.5 -46t-112.5 46t-43.5 118q0 68 44.5 118t111.5 50q64 0 111 -50.5t47 -117.5z" />
    <glyph glyph-name="uni24EA" unicode="&#x24ea;" horiz-adv-x="1597" 
d="M799 1446q151 0 286 -56.5t232 -153.5t154 -232.5t57 -286.5t-57 -286.5t-154 -232.5t-232 -153.5t-286 -56.5t-286 56.5t-232 153.5t-154 232.5t-57 286.5t57 286.5t154 232.5t232 153.5t286 56.5zM799 72q160 0 307.5 87.5t239.5 238t92 319.5t-92 319.5t-239.5 238
t-307.5 87.5q-119 0 -235.5 -52.5t-205 -139.5t-143.5 -207t-55 -246t55 -246t143.5 -207t205 -139.5t235.5 -52.5zM801 1085q-129 0 -208 -99t-79 -265q0 -175 77.5 -274t209.5 -99q133 0 211 99t78 274q0 165 -80.5 264.5t-208.5 99.5zM801 434q-87 0 -135 75.5t-50 211.5
q-1 130 48 204t137 74q87 0 135.5 -73.5t48.5 -204.5q0 -135 -48.5 -211t-135.5 -76z" />
    <glyph glyph-name="uni24FF" unicode="&#x24ff;" horiz-adv-x="1597" 
d="M799 1446q151 0 286 -56.5t232 -153.5t154 -232.5t57 -286.5t-57 -286.5t-154 -232.5t-232 -153.5t-286 -56.5t-286 56.5t-232 153.5t-154 232.5t-57 286.5t57 286.5t154 232.5t232 153.5t286 56.5zM801 1085q-129 0 -208 -99t-79 -265q0 -175 77.5 -274t209.5 -99
q133 0 211 99t78 274q0 165 -80.5 264.5t-208.5 99.5zM801 434q-87 0 -135 75.5t-50 211.5q-1 130 48 204t137 74q87 0 135.5 -73.5t48.5 -204.5q0 -135 -48.5 -211t-135.5 -76z" />
    <glyph glyph-name="filledbox" unicode="&#x25a0;" horiz-adv-x="1613" 
d="M90 1434h1434v-1434h-1434v1434z" />
    <glyph glyph-name="uni25A1" unicode="&#x25a1;" horiz-adv-x="1613" 
d="M1524 1434v-1434h-1434v1434h1434zM1442 1356h-1270v-1278h1270v1278z" />
    <glyph glyph-name="triagup" unicode="&#x25b2;" horiz-adv-x="1859" 
d="M930 1446l860 -1446h-1720z" />
    <glyph glyph-name="uni25B3" unicode="&#x25b3;" horiz-adv-x="1896" 
d="M948 1446l879 -1446h-1757zM948 1280l-733 -1198h1466z" />
    <glyph glyph-name="uni25B6" unicode="&#x25b6;" horiz-adv-x="1275" 
d="M1206 717l-1116 -729v1458z" />
    <glyph glyph-name="uni25C0" unicode="&#x25c0;" horiz-adv-x="1275" 
d="M70 717l1116 729v-1458z" />
    <glyph glyph-name="circle" unicode="&#x25cb;" horiz-adv-x="1638" 
d="M819 1446q151 0 286 -56.5t232 -153.5t154 -232.5t57 -286.5t-57 -286.5t-154 -232.5t-232 -153.5t-286 -56.5t-286 56.5t-232 153.5t-154 232.5t-57 286.5t57 286.5t154 232.5t232 153.5t286 56.5zM819 66q121 0 239 53t207.5 140.5t145 208.5t55.5 249t-55.5 249
t-145 208.5t-207.5 140.5t-239 53q-120 0 -238 -53.5t-208 -141t-145.5 -208.5t-55.5 -248t55.5 -248t145.5 -208.5t208 -141t238 -53.5z" />
    <glyph glyph-name="uni25CF" unicode="&#x25cf;" horiz-adv-x="1638" 
d="M819 -12q-197 0 -365 97.5t-266 265.5t-98 366t98 366t266 265.5t365 97.5t365 -97.5t266 -265.5t98 -366t-98 -366t-266 -265.5t-365 -97.5z" />
    <glyph glyph-name="uni2776" unicode="&#x2776;" horiz-adv-x="1597" 
d="M799 1446q151 0 286 -56.5t232 -153.5t154 -232.5t57 -286.5t-57 -286.5t-154 -232.5t-232 -153.5t-286 -56.5t-286 56.5t-232 153.5t-154 232.5t-57 286.5t57 286.5t154 232.5t232 153.5t286 56.5zM860 1085h-92q-79 -86 -182 -145v-109q95 49 178 121v-604h96v737z" />
    <glyph glyph-name="uni2777" unicode="&#x2777;" horiz-adv-x="1597" 
d="M799 1446q151 0 286 -56.5t232 -153.5t154 -232.5t57 -286.5t-57 -286.5t-154 -232.5t-232 -153.5t-286 -56.5t-286 56.5t-232 153.5t-154 232.5t-57 286.5t57 286.5t154 232.5t232 153.5t286 56.5zM662 471q0 53 20.5 83t75.5 48l131 45q97 33 138.5 83t41.5 142
q0 91 -70.5 160.5t-199.5 69.5q-137 0 -223.5 -95t-73.5 -239h94q-9 102 48 175t157 73q81 0 126.5 -43.5t45.5 -102.5q0 -93 -92 -125l-144 -47q-98 -34 -135 -84t-37 -149v-100h494v90h-397v16z" />
    <glyph glyph-name="uni2778" unicode="&#x2778;" horiz-adv-x="1597" 
d="M799 1446q151 0 286 -56.5t232 -153.5t154 -232.5t57 -286.5t-57 -286.5t-154 -232.5t-232 -153.5t-286 -56.5t-286 56.5t-232 153.5t-154 232.5t-57 286.5t57 286.5t154 232.5t232 153.5t286 56.5zM805 426q-84 0 -131 62t-35 151h-96q-12 -130 60 -210.5t202 -80.5
q111 0 180.5 58.5t69.5 158.5q0 65 -35 106t-80 58q46 19 77.5 59t31.5 97q0 95 -67 147.5t-169 52.5q-127 0 -197 -72t-59 -190h96q-6 86 35 136.5t125 50.5q63 0 101 -34.5t38 -90.5q0 -49 -31 -84t-85 -35h-58v-80h58q55 0 87.5 -35t32.5 -86q0 -62 -45 -100.5
t-106 -38.5z" />
    <glyph glyph-name="uni2779" unicode="&#x2779;" horiz-adv-x="1597" 
d="M799 1446q-151 0 -286 -56.5t-232 -153.5t-154 -232.5t-57 -286.5t57 -286.5t154 -232.5t232 -153.5t286 -56.5t286 56.5t232 153.5t154 232.5t57 286.5t-57 286.5t-154 232.5t-232 153.5t-286 56.5zM920 625h106v-88h-106v-189h-99v189h-372v94l331 454h140v-460z
M821 1010l-278 -385h278v385z" />
    <glyph glyph-name="uni277A" unicode="&#x277a;" horiz-adv-x="1597" 
d="M799 1446q151 0 286 -56.5t232 -153.5t154 -232.5t57 -286.5t-57 -286.5t-154 -232.5t-232 -153.5t-286 -56.5t-286 56.5t-232 153.5t-154 232.5t-57 286.5t57 286.5t154 232.5t232 153.5t286 56.5zM637 821l10 172h361v86h-430l-25 -344l86 -20q15 42 58.5 68t97.5 26
q81 0 126.5 -48t45.5 -140q0 -83 -48.5 -142t-132.5 -59q-57 0 -100 33t-61 78.5t-15 91.5h-98q-4 -68 25.5 -131t96.5 -106.5t157 -43.5q126 0 200 83.5t74 192.5q0 91 -37.5 153t-93.5 88t-125 26q-102 0 -172 -64z" />
    <glyph glyph-name="uni277B" unicode="&#x277b;" horiz-adv-x="1597" 
d="M799 1446q151 0 286 -56.5t232 -153.5t154 -232.5t57 -286.5t-57 -286.5t-154 -232.5t-232 -153.5t-286 -56.5t-286 56.5t-232 153.5t-154 232.5t-57 286.5t57 286.5t154 232.5t232 153.5t286 56.5zM1067 831q3 105 -73 179.5t-203 74.5q-135 0 -217 -100.5t-82 -267.5
q0 -164 74 -266.5t200 -102.5q109 0 179.5 69.5t70.5 174.5q0 103 -63.5 169.5t-168.5 67.5q-63 1 -117.5 -31t-78.5 -79q-3 129 51 210t152 81q81 0 132.5 -57.5t49.5 -121.5h94zM606 590q0 72 45 118t115 46q68 0 111 -46t43 -118q0 -68 -44 -118t-110 -50
q-65 0 -112.5 50.5t-47.5 117.5z" />
    <glyph glyph-name="uni277C" unicode="&#x277c;" horiz-adv-x="1597" 
d="M799 1446q151 0 286 -56.5t232 -153.5t154 -232.5t57 -286.5t-57 -286.5t-154 -232.5t-232 -153.5t-286 -56.5t-286 56.5t-232 153.5t-154 232.5t-57 286.5t57 286.5t154 232.5t232 153.5t286 56.5zM573 1065v-92h428q-2 -73 -20.5 -112.5t-77.5 -80.5l-149 -106
q-51 -37 -80 -96t-29 -125v-125h100v112q0 100 78 156l168 123q64 48 86.5 105t22.5 155v86h-527z" />
    <glyph glyph-name="uni277D" unicode="&#x277d;" horiz-adv-x="1597" 
d="M799 1446q151 0 286 -56.5t232 -153.5t154 -232.5t57 -286.5t-57 -286.5t-154 -232.5t-232 -153.5t-286 -56.5t-286 56.5t-232 153.5t-154 232.5t-57 286.5t57 286.5t154 232.5t232 153.5t286 56.5zM928 729q45 18 82 60.5t37 97.5q0 83 -67 140.5t-179 57.5t-179 -57.5
t-67 -140.5q0 -55 37.5 -98.5t81.5 -59.5q-47 -14 -88 -60.5t-41 -109.5q0 -97 72.5 -152.5t183.5 -58.5q111 3 183.5 58.5t72.5 152.5q0 63 -41.5 110.5t-87.5 59.5zM657 881q0 53 39 93t105 40q64 0 103.5 -40t39.5 -93q0 -52 -38.5 -86.5t-104.5 -34.5q-67 0 -105.5 34
t-38.5 87zM954 557q0 -58 -43 -96.5t-110 -38.5q-68 0 -110 38.5t-42 96.5q0 53 43 94t109 41q65 0 109 -41t44 -94z" />
    <glyph glyph-name="uni277E" unicode="&#x277e;" horiz-adv-x="1597" 
d="M799 1446q151 0 286 -56.5t232 -153.5t154 -232.5t57 -286.5t-57 -286.5t-154 -232.5t-232 -153.5t-286 -56.5t-286 56.5t-232 153.5t-154 232.5t-57 286.5t57 286.5t154 232.5t232 153.5t286 56.5zM557 582q14 -109 79.5 -171.5t178.5 -62.5q119 0 190.5 101t71.5 268
q0 163 -74 265.5t-198 102.5q-110 0 -181 -69t-71 -174q0 -103 63.5 -170t167.5 -68q63 -1 118.5 28t78.5 75q9 -125 -37 -204t-129 -79q-68 0 -111.5 46.5t-48.5 111.5h-98zM963 844q0 -72 -44.5 -118t-113.5 -46t-112.5 46t-43.5 118q0 68 44.5 118t111.5 50
q64 0 111 -50.5t47 -117.5z" />
    <glyph glyph-name="uni2B0E" unicode="&#x2b0e;" horiz-adv-x="1460" 
d="M90 1053v96q184 0 351.5 -70.5t290 -191.5t195 -290.5t72.5 -358.5v-207q125 125 148 145q98 88 174 162l49 -53q-176 -204 -228.5 -270t-189.5 -255q-140 193 -192 258.5t-225 266.5l49 53q76 -74 174 -162q43 -39 147 -145v205q0 163 -62 313t-169 261t-259.5 177
t-324.5 66z" />
    <glyph glyph-name="uni2B0F" unicode="&#x2b0f;" horiz-adv-x="1460" 
d="M90 96q172 0 324.5 63t259.5 170t169 254t62 310v225q-104 -106 -147 -145q-98 -88 -174 -162l-49 53q173 201 225 266.5t192 258.5q137 -189 189.5 -255t228.5 -270l-49 -53q-76 74 -174 162q-23 20 -148 145v-227q0 -189 -72.5 -355.5t-195 -283.5t-289.5 -184.5
t-352 -67.5v96z" />
    <glyph glyph-name="uni2B10" unicode="&#x2b10;" horiz-adv-x="1460" 
d="M1370 1053q-172 0 -324.5 -66t-259.5 -177t-169 -261t-62 -313v-205q104 106 147 145q112 102 175 162l49 -53q-176 -204 -228.5 -270t-189.5 -255q-137 189 -189.5 255t-228.5 270l49 53q76 -74 174 -162q23 -20 148 -145v207q0 189 72.5 358.5t195 290.5t290 191.5
t351.5 70.5v-96z" />
    <glyph glyph-name="uni2B11" unicode="&#x2b11;" horiz-adv-x="1460" 
d="M1370 96v-96q-185 0 -352 67.5t-289.5 184.5t-195 283.5t-72.5 355.5v227q-125 -125 -148 -145q-98 -88 -174 -162l-49 53q176 204 228.5 270t189.5 255q137 -189 189.5 -255t228.5 -270l-49 -53q-63 60 -175 162q-43 39 -147 145v-225q0 -163 62 -310t169 -254
t259.5 -170t324.5 -63z" />
    <glyph glyph-name="N.ss01" horiz-adv-x="1361" 
d="M1188 219l180 137v-219l-213 -149q-180 152 -180 381v305q0 188 145 252q-32 21 -47 57t-8 80q11 84 -36 146.5t-122 62.5q-85 0 -141.5 -59.5t-56.5 -149.5v-385q0 -228 -72.5 -374.5t-269.5 -315.5l-115 110l-146 -110v227l156 113l100 -101q101 94 137 198t36 253v401
q0 84 -55.5 145.5t-139.5 61.5t-134 -49.5t-50 -128.5q0 -103 57 -160l90 -94q82 -85 82 -180q0 -100 -71.5 -164t-170.5 -51v155q32 -6 54 10.5t22 47.5q0 26 -26 55l-101 102q-108 113 -108 279q0 143 102 240.5t254 97.5q108 0 180.5 -57.5t110.5 -137.5q41 74 122 128.5
t187 54.5q64 0 120 -22t99.5 -64.5t64.5 -111.5t11 -155q-4 -40 16 -58t45 -11v-197q-76 -9 -117.5 -55t-41.5 -127v-244q0 -109 51 -170z" />
    <glyph glyph-name="f_b" horiz-adv-x="1587" 
d="M1106 1049q197 0 319.5 -150t122.5 -381t-122.5 -380.5t-319.5 -149.5q-112 0 -194 52t-126 126v-166h-180v1116q4 83 -26.5 126.5t-90.5 43.5q-53 0 -85.5 -38.5t-32.5 -108.5v-103h145v-159h-145v-877h-181v877h-159v159h159v111q0 134 88 216.5t218 82.5
q70 0 124 -21.5t85.5 -55.5t51 -79t25.5 -87.5t4 -86.5v-244q41 69 126.5 123t193.5 54zM1073 164q124 0 201.5 99.5t77.5 256.5q0 155 -77.5 253.5t-201.5 98.5q-131 0 -212 -98.5t-81 -253.5q0 -157 82 -256.5t211 -99.5z" />
    <glyph glyph-name="f_f_b" horiz-adv-x="2002" 
d="M1522 1049q197 0 319.5 -150t122.5 -381t-122.5 -380.5t-319.5 -149.5q-112 0 -194 52t-126 126v-166h-180v1116q4 83 -26.5 126.5t-90.5 43.5q-53 0 -86 -38.5t-33 -108.5v-103h146v-159h-146v-877h-180v877h-235v-877h-181v877h-159v159h159v90q0 134 88 216.5
t218 82.5q118 0 192 -67q85 88 223 88q70 0 124 -21.5t86 -55.5t51.5 -79t25.5 -87.5t4 -86.5v-244q41 69 126.5 123t193.5 54zM606 1036v105q-4 59 -34.5 87.5t-79.5 28.5q-51 0 -86 -35.5t-35 -103.5v-82h235zM1489 164q124 0 201 99.5t77 256.5q0 155 -77 253.5
t-201 98.5q-131 0 -212 -98.5t-81 -253.5q0 -157 82 -256.5t211 -99.5z" />
    <glyph glyph-name="f_f_h" horiz-adv-x="1902" 
d="M1483 1049q161 0 249.5 -111t88.5 -303v-635h-189v635q0 98 -56.5 158.5t-150.5 60.5q-93 0 -158 -64t-65 -155v-635h-180v1116q4 83 -26.5 126.5t-90.5 43.5q-53 0 -86 -38.5t-33 -108.5v-103h146v-159h-146v-877h-180v877h-235v-877h-181v877h-159v159h159v90
q0 134 88 216.5t218 82.5q118 0 192 -67q85 88 223 88q70 0 124 -21.5t86 -55.5t51.5 -79t25.5 -87.5t4 -86.5v-229q39 65 113.5 113.5t167.5 48.5zM606 1036v105q-4 59 -34.5 87.5t-79.5 28.5q-51 0 -86 -35.5t-35 -103.5v-82h235z" />
    <glyph glyph-name="f_f_j" horiz-adv-x="1273" 
d="M1202 1036v-1116q0 -118 -20.5 -175t-91.5 -107q-98 -68 -306 -23v182q118 -30 178 1.5t60 119.5v959h-236v-877h-180v877h-235v-877h-181v877h-159v159h159v90q0 134 88 216.5t218 82.5q118 0 192 -67q85 88 221 88q70 0 124.5 -24t86.5 -60.5t51.5 -82t25 -87
t1.5 -78.5l-176 2q6 81 -26.5 121.5t-90.5 40.5q-51 0 -85 -35.5t-34 -103.5v-103h416zM606 1036v105q-4 59 -34.5 87.5t-79.5 28.5q-51 0 -86 -35.5t-35 -103.5v-82h235z" />
    <glyph glyph-name="f_f_k" horiz-adv-x="1861" 
d="M1360 549l504 -549h-256l-406 451v-451h-180v1116q4 83 -26.5 126.5t-90.5 43.5q-53 0 -86 -38.5t-33 -108.5v-103h146v-159h-146v-877h-180v877h-235v-877h-181v877h-159v159h159v90q0 134 88 216.5t218 82.5q118 0 192 -67q85 88 221 88q70 0 124.5 -21.5t86.5 -55.5
t51.5 -79t26 -87.5t4.5 -86.5v-469l344 389h254zM606 1036v105q-4 59 -34.5 87.5t-79.5 28.5q-51 0 -86 -35.5t-35 -103.5v-82h235z" />
    <glyph glyph-name="f_f_t" horiz-adv-x="1468" 
d="M1419 877h-217v-580q0 -84 48 -117t169 -8v-184q-184 -40 -291 20q-62 35 -84 100.5t-22 184.5v584h-236v-877h-180v877h-235v-877h-181v877h-159v159h159v90q0 134 88 216.5t218 82.5q118 0 192 -67q85 88 223 88q70 0 124 -21.5t86 -55.5t51.5 -79t25.5 -87.5t4 -86.5
v-80h217v-159zM1022 1036v80q4 83 -26.5 126.5t-90.5 43.5q-53 0 -86 -38.5t-33 -108.5v-103h236zM606 1036v105q-4 59 -34.5 87.5t-79.5 28.5q-51 0 -86 -35.5t-35 -103.5v-82h235z" />
    <glyph glyph-name="f_h" horiz-adv-x="1486" 
d="M1067 1049q161 0 249.5 -111t88.5 -303v-635h-188v635q0 98 -56.5 158.5t-150.5 60.5t-159 -64t-65 -155v-635h-180v1116q4 83 -26.5 126.5t-90.5 43.5q-53 0 -85.5 -38.5t-32.5 -108.5v-103h145v-159h-145v-877h-181v877h-159v159h159v111q0 134 88 216.5t218 82.5
q70 0 124 -21.5t85.5 -55.5t51 -79t25.5 -87.5t4 -86.5v-229q39 65 113.5 113.5t167.5 48.5z" />
    <glyph glyph-name="f_j" horiz-adv-x="858" 
d="M786 1036v-1116q0 -118 -20.5 -175t-91.5 -107q-98 -68 -305 -23v182q118 -30 177.5 1.5t59.5 119.5v959h-235v-877h-181v877h-159v159h159v111q0 134 87 216.5t217 82.5q70 0 124.5 -24t86 -60.5t51 -82t25 -87t1.5 -78.5l-176 2q6 81 -26.5 121.5t-90.5 40.5
q-51 0 -84.5 -35.5t-33.5 -103.5v-103h415z" />
    <glyph glyph-name="f_k" horiz-adv-x="1445" 
d="M944 549l504 -549h-256l-406 451v-451h-180v1116q4 83 -26.5 126.5t-90.5 43.5q-53 0 -85.5 -38.5t-32.5 -108.5v-103h145v-159h-145v-877h-181v877h-159v159h159v111q0 134 87 216.5t217 82.5q70 0 124.5 -21.5t86 -55.5t51 -79t26 -87.5t4.5 -86.5v-469l344 389h254z
" />
    <glyph glyph-name="f_t" horiz-adv-x="1052" 
d="M1004 877h-218v-580q0 -84 48.5 -117t169.5 -8v-184q-184 -40 -291 20q-63 35 -85 101t-22 184v584h-235v-877h-181v877h-159v159h159v111q0 134 88 216.5t218 82.5q70 0 124 -21.5t85.5 -55.5t51 -79t25.5 -87.5t4 -86.5v-80h218v-159zM606 1036v80q4 83 -26.5 126.5
t-90.5 43.5q-53 0 -85.5 -38.5t-32.5 -108.5v-103h235z" />
    <glyph glyph-name="t_t" horiz-adv-x="1146" 
d="M1098 877h-217v-580q0 -84 48 -117t169 -8v-184q-184 -40 -291 20q-63 35 -85 101t-22 184v584h-331v-580q0 -84 48 -117t169 -8v-184q-184 -40 -291 20q-63 35 -85 101t-22 184v584h-159v159h159v275h181v-275h331v275h181v-275h217v-159z" />
    <glyph glyph-name="w_w_w" horiz-adv-x="4392" 
d="M4 1036h213l234 -864l254 864h202l254 -864l234 864h213l233 -864l254 864h203l254 -864l233 864h213l234 -864l254 864h202l254 -864l234 864h213l-326 -1036h-227l-250 852l-250 -852h-227l-217 852l-219 -852h-228l-250 852l-249 -852h-228l-217 852l-219 -852h-227
l-250 852l-250 -852h-227z" />
    </font>
</defs>
</svg>
